<?xml version="1.0" encoding="utf-8"?>
<!-- Generator: Adobe Illustrator 23.0.0, SVG Export Plug-In . SVG Version: 6.00 Build 0)  -->
<svg version="1.1" id="Layer_1" xmlns="http://www.w3.org/2000/svg" xmlns:xlink="http://www.w3.org/1999/xlink" x="0px" y="0px"
	 viewBox="0 0 94.3 113.4" style="enable-background:new 0 0 94.3 113.4;" xml:space="preserve">
<style type="text/css">
	.st0{fill:#808080;}
</style>
<path class="st0" d="M88.4,7.7c-3.3,0-6,2.7-6,5.9v35.9L9.3,1C7.4-0.2,5.1-0.3,3.1,0.7C1.2,1.7,0,3.7,0,5.9l0,101.5
	c0,2.2,1.2,4.2,3.1,5.2c0.9,0.5,1.8,0.7,2.8,0.7c1.2,0,2.3-0.3,3.3-1l73.2-48.6v35.9c0,3.3,2.7,5.9,6,5.9c3.3,0,6-2.7,6-5.9v-86
	C94.3,10.4,91.7,7.7,88.4,7.7z M11.9,96.4V17l59.8,39.7L11.9,96.4z"/>
</svg>
