<?xml version="1.0" encoding="utf-8"?>
<!-- Generator: Adobe Illustrator 23.0.0, SVG Export Plug-In . SVG Version: 6.00 Build 0)  -->
<svg version="1.1" id="Layer_1" xmlns="http://www.w3.org/2000/svg" xmlns:xlink="http://www.w3.org/1999/xlink" x="0px" y="0px"
	 viewBox="0 0 64.2 63.9" style="enable-background:new 0 0 64.2 63.9;" xml:space="preserve">
<style type="text/css">
	.st0{fill:#FFFFFF;}
</style>
<g>
	<g>
		<path class="st0" d="M7.2,36.7c3.2,0,6.2,0,9.1,0c1.7,0,2.6,0.7,2.7,2c0.2,1.7-0.8,2.8-2.6,2.8c-3.4,0-6.8,0-10.2,0c-1,0-2,0-3,0
			c-1.2-0.1-2.4-0.3-3-1.6c-0.6-1.3-0.2-2.4,0.6-3.4c3.2-4.1,6.5-8.3,9.8-12.4c0.2-0.3,0.4-0.5,0.6-0.7c-0.2-0.4-0.5-0.2-0.8-0.2
			c-2.3,0-4.6,0-6.9,0c-0.5,0-1.1-0.1-1.6-0.2c-1.2-0.3-1.9-1.5-1.7-2.7c0.2-0.8,0.8-1.5,1.6-1.6c0.5-0.1,1-0.2,1.6-0.2
			c3.8,0,7.5,0,11.3,0c0.7,0,1.3,0.1,2,0.2c1.4,0.5,2,1.8,1.5,3.2c-0.5,1.2-1.3,2.2-2.1,3.3c-2.8,3.5-5.5,7-8.3,10.5
			C7.7,36,7.5,36.3,7.2,36.7L7.2,36.7z"/>
		<path class="st0" d="M31.6,25.6c0.5-0.7,1-1.3,1.9-1.4c1.7-0.3,3.2,0.7,3.2,2.4c0.1,4.2,0,8.4,0,12.6c0,1.1-0.7,2.1-1.7,2.4
			c-1.1,0.4-2.3,0.1-3-0.8c-0.4-0.4-0.5-0.5-1-0.1c-1.9,1.6-4.1,1.8-6.4,1.1c-3.8-1.2-5.3-4.2-5.7-7.7c-0.4-3.9,0.8-7.1,4.3-9.2
			C26.1,23.2,29,23.3,31.6,25.6L31.6,25.6z M24.2,33.3c0,0.9,0.3,1.8,0.9,2.6c1.1,1.5,3.3,1.8,4.8,0.7c0.3-0.2,0.5-0.4,0.7-0.7
			c1.2-1.6,1.2-4.2,0-5.8c-0.6-0.8-1.5-1.3-2.5-1.3C25.8,28.6,24.1,30.4,24.2,33.3z M46.2,33.5c-0.2-5.4,3.4-9.5,8.5-9.6
			c5.4-0.2,9.3,3.4,9.5,8.7c0.2,5.3-3.1,9.1-8.1,9.6C50.5,42.7,46.1,38.7,46.2,33.5L46.2,33.5z M51.5,32.9c0,1.1,0.3,2.1,0.9,3
			c1.2,1.5,3.3,1.8,4.8,0.6c0.2-0.2,0.4-0.4,0.6-0.6c1.2-1.6,1.2-4.3,0-5.9c-0.6-0.8-1.5-1.3-2.5-1.3C53.1,28.6,51.5,30.3,51.5,32.9
			z M44.4,29.3c0,3.3,0,6.5,0,9.8c0,1.5-1.2,2.7-2.7,2.8c-0.3,0-0.5,0-0.8-0.1c-1.1-0.3-1.9-1.4-1.9-2.7V22.3c0-1,0-2,0-3
			c0-1.6,1.1-2.7,2.6-2.7c1.6,0,2.7,1,2.7,2.7C44.4,22.7,44.4,26,44.4,29.3z"/>
	</g>
</g>
</svg>
