<?xml version="1.0" encoding="utf-8"?>
<!-- Generator: Adobe Illustrator 23.0.0, SVG Export Plug-In . SVG Version: 6.00 Build 0)  -->
<svg version="1.1" id="Layer_1" xmlns="http://www.w3.org/2000/svg" xmlns:xlink="http://www.w3.org/1999/xlink" x="0px" y="0px"
	 viewBox="0 0 47.9 35.5" style="enable-background:new 0 0 47.9 35.5;" xml:space="preserve">
<style type="text/css">
	.st0{fill:#818181;}
</style>
<g>
	<g>
		<path class="st0" d="M46.4,16H13.3c-0.8,0-1.5,0.7-1.5,1.5c0,0.8,0.7,1.5,1.5,1.5h33.1c0.8,0,1.5-0.7,1.5-1.5
			C47.9,16.6,47.2,16,46.4,16z"/>
		<path class="st0" d="M13.3,6.3h33.1c0.8,0,1.5-0.7,1.5-1.5s-0.7-1.5-1.5-1.5H13.3c-0.8,0-1.5,0.7-1.5,1.5S12.5,6.3,13.3,6.3z"/>
		<path class="st0" d="M46.4,29.2H13.3c-0.8,0-1.5,0.7-1.5,1.5c0,0.8,0.7,1.5,1.5,1.5h33.1c0.8,0,1.5-0.7,1.5-1.5
			C47.9,29.9,47.2,29.2,46.4,29.2z"/>
	</g>
	<path class="st0" d="M4.9,12.6c-2.7,0-4.9,2.2-4.9,4.9s2.2,4.9,4.9,4.9s4.9-2.2,4.9-4.9S7.5,12.6,4.9,12.6z M4.9,20.3L4.9,20.3
		C3.3,20.3,2,19,2,17.4s1.3-2.9,2.9-2.9s2.9,1.3,2.9,2.9S6.4,20.3,4.9,20.3z"/>
	<path class="st0" d="M4.9,0C2.2,0,0,2.2,0,4.9s2.2,4.9,4.9,4.9s4.9-2.2,4.9-4.9S7.5,0,4.9,0z M4.9,7.7C3.3,7.7,2,6.4,2,4.9
		S3.3,2,4.9,2s2.9,1.3,2.9,2.9S6.4,7.7,4.9,7.7z"/>
	<path class="st0" d="M4.9,25.8C2.2,25.8,0,28,0,30.7c0,2.7,2.2,4.9,4.9,4.9s4.9-2.2,4.9-4.9C9.7,28,7.5,25.8,4.9,25.8z M7.7,30.7
		c0,1.6-1.3,2.9-2.9,2.9l0,0c-1.6,0-2.9-1.3-2.9-2.9c0-1.6,1.3-2.9,2.9-2.9S7.7,29.1,7.7,30.7L7.7,30.7z"/>
</g>
</svg>
