<?xml version="1.0" encoding="utf-8"?>
<!-- Generator: Adobe Illustrator 23.0.0, SVG Export Plug-In . SVG Version: 6.00 Build 0)  -->
<svg version="1.1" id="Layer_1" xmlns="http://www.w3.org/2000/svg" xmlns:xlink="http://www.w3.org/1999/xlink" x="0px" y="0px"
	 viewBox="0 0 203.1 202.2" style="enable-background:new 0 0 203.1 202.2;" xml:space="preserve">
<style type="text/css">
	.st0{fill:#808080;}
</style>
<path class="st0" d="M173.4,29.6C154.2,10.5,128.7,0,101.6,0C74.4,0,48.9,10.5,29.7,29.6C10.6,48.7,0,74.1,0,101.1
	s10.6,52.4,29.7,71.5c19.2,19.1,44.7,29.6,71.8,29.6c27.1,0,52.6-10.5,71.8-29.6c19.2-19.1,29.7-44.5,29.7-71.5
	S192.5,48.7,173.4,29.6z M101.6,190.3c-49.4,0-89.7-40-89.7-89.2s40.2-89.2,89.7-89.2s89.7,40,89.7,89.2S151,190.3,101.6,190.3z
	 M87.4,143.9L87.4,143.9c-3.3,0-6-2.7-6-6V64.3c0-3.3,2.7-6,6-6h0c3.3,0,6,2.7,6,6v73.6C93.4,141.2,90.7,143.9,87.4,143.9z
	 M121.6,137.9V64.3c0-3.3-2.7-6-6-6h0c-3.3,0-6,2.7-6,6v73.6c0,3.3,2.7,6,6,6h0C119,143.9,121.6,141.2,121.6,137.9z"/>
</svg>
