<?xml version="1.0" encoding="utf-8"?>
<!-- Generator: Adobe Illustrator 23.0.0, SVG Export Plug-In . SVG Version: 6.00 Build 0)  -->
<svg version="1.1" id="Layer_1" xmlns="http://www.w3.org/2000/svg" xmlns:xlink="http://www.w3.org/1999/xlink" x="0px" y="0px"
	 viewBox="0 0 122.9 84" style="enable-background:new 0 0 122.9 84;" xml:space="preserve">
<style type="text/css">
	.st0{fill:#B3B3B3;}
</style>
<g>
	<g>
		<path class="st0" d="M92,24.8c0-0.2-0.1-0.5-0.3-0.6c-0.1-0.1-0.3-0.2-0.5-0.2c-0.1,0-0.1,0-0.2,0l-29.7,5.9
			c-0.4,0.1-0.6,0.4-0.6,0.8v25.7c-1.1-0.5-2.3-0.8-3.5-0.8c-4.7,0-8.6,3.9-8.6,8.6s3.9,8.6,8.6,8.6c4.3,0,7.9-3.1,8.5-7.4
			c0.1-0.1,0.1-0.2,0.1-0.4V44.6l21.2-4.2v9c-1.1-0.5-2.3-0.8-3.5-0.8c-4.7,0-8.6,3.9-8.6,8.6s3.9,8.6,8.6,8.6c2.4,0,4.8-1,6.4-2.9
			c1.6-1.7,2.3-4.1,2.2-6.4c0-0.1,0-0.1,0-0.2V24.8z M86.9,30v5.2l-21.2,4.2v-5.2L86.9,30z M60.7,64.2c0,1.9-1.6,3.5-3.5,3.5
			s-3.5-1.6-3.5-3.5s1.6-3.5,3.5-3.5S60.7,62.2,60.7,64.2z M86.9,57.3c0,1.9-1.6,3.5-3.5,3.5s-3.5-1.6-3.5-3.5
			c0-1.9,1.6-3.5,3.5-3.5S86.9,55.3,86.9,57.3z"/>
		<path class="st0" d="M52.3,29.8c0,0.5,0,1,0,1.5c0,0.4,0.4,0.8,0.8,0.8h3.5c0.4,0,0.8-0.4,0.8-0.8c0-0.4,0-0.8,0-1.3
			c0.1-3.4,0.1-7.2-3-10.3c-1.1-1.1-2.1-1.9-2.9-2.6c-2.2-1.9-2.9-2.5-2.9-4.3c0-0.4-0.4-0.8-0.8-0.8h-3.5c-0.4,0-0.8,0.4-0.8,0.8
			V37c-1.1-0.5-2.3-0.8-3.5-0.8c-4.7,0-8.6,3.9-8.6,8.6s3.9,8.6,8.6,8.6c4.3,0,7.9-3.1,8.5-7.4c0.1-0.1,0.1-0.2,0.1-0.4V21.2
			c0.7,0.6,1.5,1.3,2.3,2.1C52.4,24.9,52.3,27.1,52.3,29.8z M43.4,44.9c0,1.9-1.6,3.5-3.5,3.5s-3.5-1.6-3.5-3.5s1.6-3.5,3.5-3.5
			S43.4,42.9,43.4,44.9z"/>
	</g>
	<path class="st0" d="M104.9,0L18,0C8.1,0,0,8.1,0,18v48c0,9.8,7.8,17.8,17.6,18l87.8,0c9.7-0.2,17.6-8.2,17.6-18V18
		C122.9,8.1,114.8,0,104.9,0L104.9,0z M115.7,66c0,6-4.8,10.8-10.8,10.8H18C12,76.8,7.2,72,7.2,66V18C7.2,12,12,7.2,18,7.2h86.9
		c6,0,10.8,4.8,10.8,10.8V66z"/>
</g>
</svg>
