<?xml version="1.0" encoding="utf-8"?>
<!-- Generator: Adobe Illustrator 23.0.0, SVG Export Plug-In . SVG Version: 6.00 Build 0)  -->
<svg version="1.1" id="Layer_1" xmlns="http://www.w3.org/2000/svg" xmlns:xlink="http://www.w3.org/1999/xlink" x="0px" y="0px"
	 viewBox="0 0 68.1 67.8" style="enable-background:new 0 0 68.1 67.8;" xml:space="preserve">
<style type="text/css">
	.st0{fill:#808080;}
</style>
<g>
	<g>
		<g>
			<path class="st0" d="M60.8,7.3h-7.3V2.4c0-1.3-1.1-2.4-2.4-2.4c-1.3,0-2.4,1.1-2.4,2.4v4.8H19.5V2.4C19.5,1.1,18.4,0,17,0
				c-1.3,0-2.4,1.1-2.4,2.4v4.8H7.3c-4,0-7.3,3.3-7.3,7.3v46c0,4,3.3,7.3,7.3,7.3h53.5c4,0,7.3-3.3,7.3-7.3v-46
				C68.1,10.5,64.9,7.3,60.8,7.3z M63.3,60.5c0,1.3-1.1,2.4-2.4,2.4H7.3c-1.3,0-2.4-1.1-2.4-2.4V29.1h58.4V60.5z M63.3,24.2H4.9
				v-9.7c0-1.3,1.1-2.4,2.4-2.4h7.3V17c0,1.3,1.1,2.4,2.4,2.4c1.3,0,2.4-1.1,2.4-2.4v-4.8h29.2V17c0,1.3,1.1,2.4,2.4,2.4
				s2.4-1.1,2.4-2.4v-4.8h7.3c1.3,0,2.4,1.1,2.4,2.4L63.3,24.2L63.3,24.2z"/>
		</g>
	</g>
	<g>
		<g>
			<path class="st0" d="M19.5,33.9h-4.9c-1.3,0-2.4,1.1-2.4,2.4c0,1.3,1.1,2.4,2.4,2.4h4.9c1.3,0,2.4-1.1,2.4-2.4
				C21.9,35,20.8,33.9,19.5,33.9z"/>
		</g>
	</g>
	<g>
		<g>
			<path class="st0" d="M36.5,33.9h-4.9c-1.3,0-2.4,1.1-2.4,2.4c0,1.3,1.1,2.4,2.4,2.4h4.9c1.3,0,2.4-1.1,2.4-2.4
				C38.9,35,37.8,33.9,36.5,33.9z"/>
		</g>
	</g>
	<g>
		<g>
			<path class="st0" d="M53.5,33.9h-4.9c-1.3,0-2.4,1.1-2.4,2.4c0,1.3,1.1,2.4,2.4,2.4h4.9c1.3,0,2.4-1.1,2.4-2.4
				C56,35,54.9,33.9,53.5,33.9z"/>
		</g>
	</g>
	<g>
		<g>
			<path class="st0" d="M19.5,43.6h-4.9c-1.3,0-2.4,1.1-2.4,2.4c0,1.3,1.1,2.4,2.4,2.4h4.9c1.3,0,2.4-1.1,2.4-2.4
				C21.9,44.7,20.8,43.6,19.5,43.6z"/>
		</g>
	</g>
	<g>
		<g>
			<path class="st0" d="M36.5,43.6h-4.9c-1.3,0-2.4,1.1-2.4,2.4c0,1.3,1.1,2.4,2.4,2.4h4.9c1.3,0,2.4-1.1,2.4-2.4
				C38.9,44.7,37.8,43.6,36.5,43.6z"/>
		</g>
	</g>
	<g>
		<g>
			<path class="st0" d="M53.5,43.6h-4.9c-1.3,0-2.4,1.1-2.4,2.4c0,1.3,1.1,2.4,2.4,2.4h4.9c1.3,0,2.4-1.1,2.4-2.4
				C56,44.7,54.9,43.6,53.5,43.6z"/>
		</g>
	</g>
	<g>
		<g>
			<path class="st0" d="M19.5,53.3h-4.9c-1.3,0-2.4,1.1-2.4,2.4s1.1,2.4,2.4,2.4h4.9c1.3,0,2.4-1.1,2.4-2.4
				C21.9,54.4,20.8,53.3,19.5,53.3z"/>
		</g>
	</g>
	<g>
		<g>
			<path class="st0" d="M36.5,53.3h-4.9c-1.3,0-2.4,1.1-2.4,2.4s1.1,2.4,2.4,2.4h4.9c1.3,0,2.4-1.1,2.4-2.4S37.8,53.3,36.5,53.3z"/>
		</g>
	</g>
	<g>
		<g>
			<path class="st0" d="M53.5,53.3h-4.9c-1.3,0-2.4,1.1-2.4,2.4s1.1,2.4,2.4,2.4h4.9c1.3,0,2.4-1.1,2.4-2.4S54.9,53.3,53.5,53.3z"/>
		</g>
	</g>
</g>
</svg>
