<?xml version="1.0" encoding="utf-8"?>
<!-- Generator: Adobe Illustrator 23.0.0, SVG Export Plug-In . SVG Version: 6.00 Build 0)  -->
<svg version="1.1" id="Layer_1" xmlns="http://www.w3.org/2000/svg" xmlns:xlink="http://www.w3.org/1999/xlink" x="0px" y="0px"
	 viewBox="0 0 21.8 32.7" style="enable-background:new 0 0 21.8 32.7;" xml:space="preserve">
<style type="text/css">
	.st0{fill:#E61E1E;}
</style>
<g>
	<g>
		<path class="st0" d="M20.2,12.5L9.3,1.6c-2.1-2.1-5.6-2.1-7.7,0C0.6,2.6,0,4,0,5.5s0.6,2.8,1.6,3.9l7.1,7.1l-7.1,7.1
			c-1,1-1.6,2.4-1.6,3.9s0.6,2.8,1.6,3.9c1,1,2.4,1.6,3.9,1.6s2.8-0.6,3.9-1.6l10.9-10.9c1-1,1.6-2.4,1.6-3.9S21.3,13.5,20.2,12.5z
			 M18.3,18.3L7.4,29.2c-1,1-2.8,1-3.9,0c-1.1-1.1-1.1-2.8,0-3.9l9-9l-9-9C3,6.9,2.7,6.2,2.7,5.5S3,4,3.5,3.5C4.1,3,4.8,2.7,5.5,2.7
			S6.9,3,7.4,3.5l10.9,10.9c0.5,0.5,0.8,1.2,0.8,1.9C19.1,17.1,18.8,17.8,18.3,18.3z"/>
	</g>
</g>
</svg>
