<?xml version="1.0" encoding="utf-8"?>
<!-- Generator: Adobe Illustrator 23.0.0, SVG Export Plug-In . SVG Version: 6.00 Build 0)  -->
<svg version="1.1" id="Layer_1" xmlns="http://www.w3.org/2000/svg" xmlns:xlink="http://www.w3.org/1999/xlink" x="0px" y="0px"
	 viewBox="0 0 43.5 43.5" style="enable-background:new 0 0 43.5 43.5;" xml:space="preserve">
<style type="text/css">
	.st0{fill:#F1F2F2;}
	.st1{fill:#EF4135;}
</style>
<g>
	<g>
		<defs>
			<path id="SVGID_1_" d="M5.5,7.3c0.8-0.9,2.2-1.1,3.3-0.5l24.7,14.1c0.7,0.4,0.7,1.4,0,1.8l7.8-4.4c1.1-0.6,1.6-1.9,1.2-3.1
				c0,0,0,0,0,0C39.7,6.3,31.5,0,21.8,0C15.3,0,9.5,2.8,5.5,7.3"/>
		</defs>
		<linearGradient id="SVGID_2_" gradientUnits="userSpaceOnUse" x1="9.9517" y1="-0.2658" x2="41.635" y2="18.3227">
			<stop  offset="0" style="stop-color:#09446C"/>
			<stop  offset="0.2" style="stop-color:#0A4E7E"/>
			<stop  offset="0.5349" style="stop-color:#0D5D98"/>
			<stop  offset="0.8135" style="stop-color:#0D66AB"/>
			<stop  offset="1" style="stop-color:#086BB5"/>
		</linearGradient>
		<use xlink:href="#SVGID_1_"  style="overflow:visible;fill:url(#SVGID_2_);"/>
		<clipPath id="SVGID_3_">
			<use xlink:href="#SVGID_1_"  style="overflow:visible;"/>
		</clipPath>
	</g>
	<g>
		<defs>
			<path id="SVGID_4_" d="M5.5,7.3C2.1,11.1,0,16.2,0,21.8C0,29,3.5,35.4,9,39.4c-1-0.7-0.9-2.2,0.2-2.8l7.7-4.4
				c-0.7,0.4-1.5-0.1-1.5-0.9V12.2c0-0.8,0.8-1.3,1.5-0.9l-8-4.6C8.4,6.5,7.9,6.4,7.5,6.4C6.8,6.4,6,6.7,5.5,7.3"/>
		</defs>
		<linearGradient id="SVGID_5_" gradientUnits="userSpaceOnUse" x1="8.4064" y1="39.2609" x2="8.4064" y2="6.4599">
			<stop  offset="0" style="stop-color:#09446C"/>
			<stop  offset="0.2" style="stop-color:#0A4E7E"/>
			<stop  offset="0.5349" style="stop-color:#0D5D98"/>
			<stop  offset="0.8135" style="stop-color:#0D66AB"/>
			<stop  offset="1" style="stop-color:#086BB5"/>
		</linearGradient>
		<use xlink:href="#SVGID_4_"  style="overflow:visible;fill:url(#SVGID_5_);"/>
		<clipPath id="SVGID_6_">
			<use xlink:href="#SVGID_4_"  style="overflow:visible;"/>
		</clipPath>
	</g>
	<g>
		<defs>
			<path id="SVGID_7_" d="M41.3,18.2L9.1,36.6c-1,0.6-1.1,2.1-0.2,2.8c3.6,2.6,8,4.2,12.8,4.2c12,0,21.8-9.7,21.8-21.8
				c0-2.3-0.4-4.6-1-6.7C42.9,16.3,42.4,17.6,41.3,18.2"/>
		</defs>
		<linearGradient id="SVGID_8_" gradientUnits="userSpaceOnUse" x1="43.988" y1="24.2358" x2="14.6981" y2="40.8748">
			<stop  offset="0" style="stop-color:#09446C"/>
			<stop  offset="0.2" style="stop-color:#0A4E7E"/>
			<stop  offset="0.5349" style="stop-color:#0D5D98"/>
			<stop  offset="0.8135" style="stop-color:#0D66AB"/>
			<stop  offset="1" style="stop-color:#086BB5"/>
		</linearGradient>
		<use xlink:href="#SVGID_7_"  style="overflow:visible;fill:url(#SVGID_8_);"/>
		<clipPath id="SVGID_9_">
			<use xlink:href="#SVGID_7_"  style="overflow:visible;"/>
		</clipPath>
	</g>
	<g>
		<path class="st0" d="M15.3,31.3V12.2c0-0.8,0.8-1.3,1.5-0.9l16.7,9.5c0.7,0.4,0.7,1.4,0,1.8l-16.7,9.5
			C16.1,32.6,15.3,32.1,15.3,31.3"/>
		<path class="st1" d="M16.9,12.9l15.2,8.7c0.2,0.1,0.2,0.3,0,0.4l-15.2,8.7c-0.2,0.1-0.4,0-0.4-0.2V13.1
			C16.6,12.9,16.8,12.8,16.9,12.9"/>
	</g>
</g>
</svg>
