<?xml version="1.0" encoding="utf-8"?>
<!-- Generator: Adobe Illustrator 23.0.0, SVG Export Plug-In . SVG Version: 6.00 Build 0)  -->
<svg version="1.1" id="Layer_1" xmlns="http://www.w3.org/2000/svg" xmlns:xlink="http://www.w3.org/1999/xlink" x="0px" y="0px"
	 viewBox="0 0 26.6 26.6" style="enable-background:new 0 0 26.6 26.6;" xml:space="preserve">
<style type="text/css">
	.st0{fill:url(#SVGID_1_);}
	.st1{fill:#EF4135;}
	.st2{fill:#FFFFFF;}
</style>
<g>
	<g>
		<g>
			<g>
				<linearGradient id="SVGID_1_" gradientUnits="userSpaceOnUse" x1="0" y1="13.3136" x2="26.6271" y2="13.3136">
					<stop  offset="0" style="stop-color:#09446C"/>
					<stop  offset="0.2" style="stop-color:#0A4E7E"/>
					<stop  offset="0.5349" style="stop-color:#0D5D98"/>
					<stop  offset="0.8135" style="stop-color:#0D66AB"/>
					<stop  offset="1" style="stop-color:#086BB5"/>
				</linearGradient>
				<path class="st0" d="M13.3,0C6,0,0,6,0,13.3s6,13.3,13.3,13.3s13.3-6,13.3-13.3S20.7,0,13.3,0z"/>
			</g>
		</g>
	</g>
	<g>
		<g>
			<g>
				<path class="st1" d="M13.3,19.2c-0.2,0-0.4-0.1-0.6-0.2c-0.5-0.4-1-0.8-1.4-1.2c-2.5-2.1-4.2-3.6-4.2-5.8c0-2.1,1.6-3.8,3.5-3.8
					c1.1,0,2,0.5,2.7,1.4C14,8.7,14.9,8.2,16,8.2c2,0,3.5,1.7,3.5,3.8c0,2.2-1.8,3.8-4.2,5.8c-0.4,0.4-0.9,0.8-1.4,1.2
					C13.7,19.2,13.5,19.2,13.3,19.2z"/>
				<path class="st2" d="M16,8.7c1.8,0,3,1.5,3,3.3c0,2.4-2.3,3.9-5.5,6.7c-0.1,0.1-0.1,0.1-0.2,0.1s-0.2,0-0.2-0.1
					c-3.2-2.8-5.5-4.3-5.5-6.7c0-1.8,1.3-3.3,3-3.3c1.2,0,2.1,0.7,2.7,1.8C13.9,9.4,14.8,8.7,16,8.7 M16,7.7c-1,0-1.9,0.4-2.7,1.1
					c-0.7-0.7-1.7-1.1-2.7-1.1c-2.3,0-4,1.9-4,4.3c0,2.5,1.9,4,4.4,6.2c0.4,0.4,0.9,0.8,1.4,1.2c0.2,0.2,0.6,0.3,0.9,0.3
					c0.3,0,0.6-0.1,0.9-0.3c0.5-0.4,1-0.8,1.4-1.2C18.2,16,20,14.4,20,12C20,9.6,18.3,7.7,16,7.7L16,7.7z"/>
			</g>
		</g>
	</g>
</g>
</svg>
