<?xml version="1.0" encoding="utf-8"?>
<!-- Generator: Adobe Illustrator 23.0.0, SVG Export Plug-In . SVG Version: 6.00 Build 0)  -->
<svg version="1.1" id="Layer_1" xmlns="http://www.w3.org/2000/svg" xmlns:xlink="http://www.w3.org/1999/xlink" x="0px" y="0px"
	 viewBox="0 0 54 43.7" style="enable-background:new 0 0 54 43.7;" xml:space="preserve">
<style type="text/css">
	.st0{fill:#808080;}
</style>
<path class="st0" d="M18.5,14.3c-1.1-2.3-3.5-3.7-6-3.7H0V6.1h12.4c4.3,0,8.2,2.4,10.1,6.2l1,2l-2.5,5L18.5,14.3L18.5,14.3z
	 M46.6,27l-3.2,3.2l2.9,2.9h-9.3c-2.6,0-4.9-1.4-6-3.7l-2.5-5l-2.5,5l1,2c1.9,3.8,5.8,6.2,10.1,6.2h9.3l-2.9,2.9l3.2,3.2l6.8-6.8
	c0.9-0.9,0.9-2.3,0-3.2c0,0,0,0,0,0L46.6,27z M53.4,6.8L46.6,0l-3.2,3.2l2.9,2.9h-9.3c-4.3,0-8.2,2.4-10.1,6.2l-8.5,17.1
	c-1.1,2.3-3.5,3.7-6,3.7H0v4.5h12.4c4.3,0,8.2-2.4,10.1-6.2L31,14.3c1.1-2.3,3.5-3.7,6-3.7h9.3l-2.9,2.9l3.2,3.2l6.8-6.8
	C54.2,9.1,54.2,7.6,53.4,6.8C53.4,6.8,53.4,6.8,53.4,6.8L53.4,6.8z"/>
</svg>
