<?xml version="1.0" encoding="utf-8"?>
<!-- Generator: Adobe Illustrator 23.0.0, SVG Export Plug-In . SVG Version: 6.00 Build 0)  -->
<svg version="1.1" id="Layer_1" xmlns="http://www.w3.org/2000/svg" xmlns:xlink="http://www.w3.org/1999/xlink" x="0px" y="0px"
	 viewBox="0 0 52.8 44.5" style="enable-background:new 0 0 52.8 44.5;" xml:space="preserve">
<style type="text/css">
	.st0{fill:#FFFFFF;}
</style>
<g>
	<path class="st0" d="M24.2,0.7L10.3,9.1H1.5C0.7,9.1,0,9.8,0,10.7v23.1c0,0.9,0.7,1.5,1.5,1.5h8.7l13.9,8.5c3.1,1.9,7.1-0.3,7.1-4
		V4.6C31.3,1,27.3-1.2,24.2,0.7L24.2,0.7z M3.1,12.2h6.1v20H3.1V12.2z M28.2,39.8c0,1.2-1.3,2-2.4,1.3l-13.5-8.2V11.6l13.5-8.2
		c1-0.6,2.4,0.1,2.4,1.3V39.8z"/>
	<path class="st0" d="M35.7,18.2c-0.6,0.6-0.6,1.6,0,2.2c1,1,1,2.6,0,3.6c-0.6,0.6-0.6,1.6,0,2.2c0.6,0.6,1.6,0.6,2.2,0
		c2.2-2.2,2.2-5.8,0-8C37.2,17.6,36.3,17.6,35.7,18.2L35.7,18.2z"/>
	<path class="st0" d="M42.5,13.6c-0.6-0.6-1.6-0.6-2.2,0c-0.6,0.6-0.6,1.6,0,2.2c3.6,3.6,3.6,9.4,0,13c-0.6,0.6-0.6,1.6,0,2.2
		c0.6,0.6,1.6,0.6,2.2,0C47.3,26.1,47.3,18.4,42.5,13.6z"/>
	<path class="st0" d="M47.2,8.9c-0.6-0.6-1.6-0.6-2.2,0c-0.6,0.6-0.6,1.6,0,2.2c6.3,6.3,6.3,16.1,0,22.3c-0.6,0.6-0.6,1.6,0,2.2
		c0.6,0.6,1.6,0.6,2.2,0C54.7,28.1,54.7,16.4,47.2,8.9z"/>
</g>
</svg>
