<?xml version="1.0" encoding="utf-8"?>
<!-- Generator: Adobe Illustrator 23.0.0, SVG Export Plug-In . SVG Version: 6.00 Build 0)  -->
<svg version="1.1" id="Layer_1" xmlns="http://www.w3.org/2000/svg" xmlns:xlink="http://www.w3.org/1999/xlink" x="0px" y="0px"
	 viewBox="0 0 57.7 67.8" style="enable-background:new 0 0 57.7 67.8;" xml:space="preserve">
<style type="text/css">
	.st0{fill:#808080;}
</style>
<g>
	<path class="st0" d="M48.4,18.1l3.2-3.2c1-1,1-2.7,0-3.7s-2.7-1-3.8,0l-3.7,3.7c-3.8-2.4-8.1-3.9-12.7-4.3V5.3h2.6
		c1.5,0,2.7-1.2,2.7-2.6S35.5,0,34.1,0H23.6c-1.5,0-2.7,1.2-2.7,2.6s1.2,2.6,2.7,2.6h2.6v5.2C11.6,11.9,0,24,0,39.1
		C0,55,12.9,67.8,28.8,67.8c15.9,0,28.8-12.8,28.8-28.7C57.7,31.2,54.5,23.7,48.4,18.1z M28.8,62.5c-13,0-23.5-10.5-23.5-23.4
		s10.5-23.4,23.5-23.4s23.5,10.5,23.5,23.4S41.8,62.5,28.8,62.5L28.8,62.5z M36.7,44.3c0,1.5-1.2,2.6-2.7,2.6H23.6
		c-2.3,0-3.5-2.8-1.9-4.5l5.8-5.9h-3.6c-1.5,0-2.7-1.2-2.7-2.6c0-1.5,1.2-2.6,2.7-2.6h9.9c2.3,0,3.5,2.8,1.9,4.5l-5.8,5.9h4.2
		C35.5,41.7,36.7,42.9,36.7,44.3L36.7,44.3z"/>
</g>
</svg>
