<?xml version="1.0" encoding="utf-8"?>
<!-- Generator: Adobe Illustrator 23.0.0, SVG Export Plug-In . SVG Version: 6.00 Build 0)  -->
<svg version="1.1" id="Layer_1" xmlns="http://www.w3.org/2000/svg" xmlns:xlink="http://www.w3.org/1999/xlink" x="0px" y="0px"
	 viewBox="0 0 64.2 63.9" style="enable-background:new 0 0 64.2 63.9;" xml:space="preserve">
<style type="text/css">
	.st0{fill:#FFFFFF;}
</style>
<g>
	<path class="st0" d="M32.1,0C14.4,0,0,14.4,0,32.1c0,15.9,11.6,29,26.7,31.6V38.8H19v-9h7.7v-6.6c0-7.7,4.7-11.8,11.5-11.8
		c3.3,0,6.1,0.2,6.9,0.4v8l-4.7,0c-3.7,0-4.4,1.8-4.4,4.4v5.7h8.9l-1.2,9H36v25.1C51.8,62,64.2,48.5,64.2,32.1
		C64.2,14.4,49.8,0,32.1,0z"/>
</g>
</svg>
