<?xml version="1.0" encoding="utf-8"?>
<!-- Generator: Adobe Illustrator 23.0.0, SVG Export Plug-In . SVG Version: 6.00 Build 0)  -->
<svg version="1.1" id="Layer_1" xmlns="http://www.w3.org/2000/svg" xmlns:xlink="http://www.w3.org/1999/xlink" x="0px" y="0px"
	 viewBox="0 0 64.2 63.9" style="enable-background:new 0 0 64.2 63.9;" xml:space="preserve">
<style type="text/css">
	.st0{fill:#FBBD00;}
	.st1{fill:#0F9D58;}
	.st2{fill:#31AA52;}
	.st3{fill:#3C79E6;}
	.st4{fill:#CF2D48;}
	.st5{fill:#EB4132;}
</style>
<g>
	<path class="st0" d="M15,31.9c0-3.2,0.9-6.1,2.4-8.7V12.5H6.6C2.3,18.1,0,24.8,0,31.9s2.3,13.9,6.6,19.4h10.8V40.6
		C15.8,38.1,15,35.1,15,31.9z"/>
	<path class="st1" d="M31.9,48.9l-7.5,7.5l7.5,7.5c7.1,0,13.9-2.3,19.4-6.6V46.5H40.6C38.1,48.1,35.1,48.9,31.9,48.9z"/>
	<path class="st2" d="M17.4,40.6L6.6,51.4c0.8,1.1,1.8,2.2,2.8,3.1c6,6,14.1,9.4,22.6,9.4v-15C25.8,48.9,20.3,45.6,17.4,40.6
		L17.4,40.6z"/>
	<path class="st3" d="M63.9,31.9c0-1.9-0.2-3.9-0.5-5.8l-0.3-1.5H31.9v15h15.2c-1.5,2.9-3.7,5.3-6.5,6.9l10.8,10.8
		c1.1-0.8,2.2-1.8,3.1-2.8C60.6,48.5,63.9,40.5,63.9,31.9z"/>
	<path class="st4" d="M43.9,19.9l1.3,1.3l10.6-10.6l-1.3-1.3c-6-6-14.1-9.4-22.6-9.4l-7.5,7.5l7.5,7.5C36.5,15,40.7,16.7,43.9,19.9z
		"/>
	<path class="st5" d="M31.9,15V0C23.4,0,15.4,3.3,9.4,9.4c-1,1-1.9,2-2.8,3.1l10.8,10.8C20.3,18.3,25.8,15,31.9,15z"/>
</g>
</svg>
