<?xml version="1.0" encoding="utf-8"?>
<!-- Generator: Adobe Illustrator 23.0.0, SVG Export Plug-In . SVG Version: 6.00 Build 0)  -->
<svg version="1.1" id="Layer_1" xmlns="http://www.w3.org/2000/svg" xmlns:xlink="http://www.w3.org/1999/xlink" x="0px" y="0px"
	 viewBox="0 0 122.9 84" style="enable-background:new 0 0 122.9 84;" xml:space="preserve">
<style type="text/css">
	.st0{fill:#e61e1e;}
</style>
<g>
	<path class="st0" d="M104.9,0L18,0C8.1,0,0,8.1,0,18v48c0,9.8,7.8,17.8,17.6,18l87.8,0c9.7-0.2,17.6-8.2,17.6-18V18
		C122.9,8.1,114.8,0,104.9,0L104.9,0z M115.7,66c0,6-4.8,10.8-10.8,10.8H18C12,76.8,7.2,72,7.2,66V18C7.2,12,12,7.2,18,7.2h86.9
		c6,0,10.8,4.8,10.8,10.8V66z"/>
	<g>
		<path class="st0" d="M105.6,33.1H67.5c-1.8,0-3.2,1.5-3.2,3.2c0,1.8,1.5,3.2,3.2,3.2h38.1c1.8,0,3.2-1.5,3.2-3.2
			C108.8,34.6,107.3,33.1,105.6,33.1z"/>
		<path class="st0" d="M105.6,44.8H67.5c-1.8,0-3.2,1.5-3.2,3.2s1.5,3.2,3.2,3.2h38.1c1.8,0,3.2-1.5,3.2-3.2S107.3,44.8,105.6,44.8z
			"/>
		<path class="st0" d="M105.6,57.6H67.5c-1.8,0-3.2,1.5-3.2,3.2s1.5,3.2,3.2,3.2h38.1c1.8,0,3.2-1.5,3.2-3.2S107.3,57.6,105.6,57.6z
			"/>
		<path class="st0" d="M53.9,19.8H19.1c-2.6,0-4.7,2.1-4.7,4.7v34.9c0,2.6,2.1,4.7,4.7,4.7h34.9c2.6,0,4.7-2.1,4.7-4.7V24.5
			C58.6,21.9,56.5,19.8,53.9,19.8z M48.3,57.4H24.7c-2,0-3.7-1.6-3.7-3.7V30.1c0-2,1.6-3.7,3.7-3.7h23.6c2,0,3.7,1.6,3.7,3.7v23.6
			C52,55.7,50.4,57.4,48.3,57.4z"/>
		<path class="st0" d="M67.5,27.1h10.4c1.8,0,3.2-1.5,3.2-3.2c0-1.8-1.5-3.2-3.2-3.2H67.5c-1.8,0-3.2,1.5-3.2,3.2
			C64.2,25.6,65.7,27.1,67.5,27.1z"/>
	</g>
</g>
</svg>
