<?xml version="1.0" encoding="utf-8"?>
<!-- Generator: Adobe Illustrator 23.0.0, SVG Export Plug-In . SVG Version: 6.00 Build 0)  -->
<svg version="1.1" id="Layer_1" xmlns="http://www.w3.org/2000/svg" xmlns:xlink="http://www.w3.org/1999/xlink" x="0px" y="0px"
	 viewBox="0 0 46.2 29.4" style="enable-background:new 0 0 46.2 29.4;" xml:space="preserve">
<style type="text/css">
	.st0{fill:#818181;}
</style>
<g>
	<g>
		<g>
			<path class="st0" d="M45.9,13.8C45.5,13.3,35.7,0,23.1,0S0.7,13.3,0.3,13.8s-0.4,1.3,0,1.8c0.4,0.6,10.2,13.8,22.8,13.8
				s22.4-13.3,22.8-13.8C46.3,15.1,46.3,14.4,45.9,13.8z M23.1,26.4c-9.3,0-17.3-8.8-19.6-11.7C5.8,11.8,13.8,3,23.1,3
				c9.2,0,17.3,8.8,19.6,11.7C40.4,17.6,32.4,26.4,23.1,26.4z"/>
		</g>
	</g>
</g>
<path class="st0" d="M36.2,14.8l-0.9-1.2c0.2-0.2,0.3-0.4,0.3-0.6c0.1-0.3,0-0.7-0.2-0.9c-0.4-0.6-1.2-0.7-1.8-0.3
	c-11.6,8.1-20,0.4-20.4,0.1c-0.5-0.5-1.3-0.4-1.8,0.1c-0.5,0.5-0.5,1.3,0.1,1.8c0,0,0.2,0.2,0.5,0.4l-1.3,2.1
	c-0.4,0.6-0.2,1.4,0.4,1.7c0.6,0.4,1.4,0.2,1.7-0.4l1.2-2c0.8,0.4,1.6,0.8,2.4,1.2l-0.6,2c-0.1,0.3-0.1,0.7,0.1,1
	c0.2,0.3,0.4,0.5,0.8,0.6l0.3,0c0.6,0,1-0.4,1.2-0.9l0.6-2c1,0.2,2,0.4,3.1,0.5v2c0,0.7,0.6,1.3,1.3,1.3c0.7,0,1.3-0.6,1.3-1.3v-2
	c1-0.1,2.1-0.3,3.1-0.5l0.8,2.1c0.2,0.5,0.7,0.8,1.3,0.8l0.4-0.1c0.7-0.2,1-1,0.7-1.6l-0.7-1.9c1.1-0.4,2.1-0.9,3.1-1.5l1,1.3
	c0.4,0.5,1.2,0.6,1.8,0.3C36.5,16.1,36.6,15.3,36.2,14.8z"/>
</svg>
