<?xml version="1.0" encoding="utf-8"?>
<!-- Generator: Adobe Illustrator 23.0.0, SVG Export Plug-In . SVG Version: 6.00 Build 0)  -->
<svg version="1.1" id="Layer_1" xmlns="http://www.w3.org/2000/svg" xmlns:xlink="http://www.w3.org/1999/xlink" x="0px" y="0px"
	 viewBox="0 0 40.6 40.6" style="enable-background:new 0 0 40.6 40.6;" xml:space="preserve">
<style type="text/css">
	.st0{fill:#808080;}
</style>
<g>
	<g>
		<path class="st0" d="M38.2,21.7v-3.8c0-0.7-0.5-1.2-1.2-1.2c-2.5,0-4.7,0.2-6.9,0.6c-1.3-1.2-2.8-2.1-4.5-2.6c1.8-1.5,3-3.8,3-6.4
			c0-4.6-3.7-8.4-8.3-8.4S12,3.8,12,8.4c0,2.6,1.2,4.8,3,6.4c-1.7,0.5-3.2,1.4-4.5,2.6c-2.2-0.4-4.5-0.6-6.9-0.6
			c-0.7,0-1.2,0.5-1.2,1.2v3.8C1,22.2,0,23.5,0,25.1v2.4c0,1.6,1,2.9,2.4,3.4v3.8c0,0.7,0.5,1.2,1.2,1.2c6.2,0,11.3,1.5,16.1,4.6
			c0.4,0.3,0.9,0.3,1.3,0c4.7-3.2,9.9-4.6,16.1-4.6c0.7,0,1.2-0.5,1.2-1.2v-3.8c1.4-0.5,2.4-1.8,2.4-3.4v-2.4
			C40.6,23.5,39.6,22.2,38.2,21.7z M14.4,8.4c0-3.3,2.7-6,5.9-6s5.9,2.7,5.9,6c0,3.3-2.7,5.9-5.9,5.9S14.4,11.7,14.4,8.4z M3.6,28.6
			c-0.7,0-1.2-0.5-1.2-1.2v-2.4c0-0.7,0.5-1.2,1.2-1.2s1.2,0.5,1.2,1.2v2.4C4.8,28.1,4.2,28.6,3.6,28.6z M19.1,37.3
			c-4.3-2.5-9-3.7-14.4-3.9v-2.6c1.4-0.5,2.4-1.8,2.4-3.4v-2.4c0-1.6-1-2.9-2.4-3.4v-2.6c5.6,0.2,10.1,1.5,14.4,4.2V37.3z
			 M20.3,21.3c-2.2-1.4-4.5-2.4-6.9-3.2c1.3-0.9,2.9-1.4,4.5-1.4h4.8c1.6,0,3.2,0.5,4.5,1.4C24.8,18.8,22.5,19.9,20.3,21.3z
			 M35.9,33.4c-5.4,0.2-10,1.4-14.4,3.9v-14c4.3-2.7,8.8-4,14.4-4.2v2.6c-1.4,0.5-2.4,1.8-2.4,3.4v2.4c0,1.6,1,2.9,2.4,3.4V33.4z
			 M38.2,27.4c0,0.7-0.5,1.2-1.2,1.2s-1.2-0.5-1.2-1.2v-2.4c0-0.7,0.5-1.2,1.2-1.2s1.2,0.5,1.2,1.2V27.4z"/>
	</g>
</g>
</svg>
