<?xml version="1.0" encoding="utf-8"?>
<!-- Generator: Adobe Illustrator 23.0.0, SVG Export Plug-In . SVG Version: 6.00 Build 0)  -->
<svg version="1.1" id="Layer_1" xmlns="http://www.w3.org/2000/svg" xmlns:xlink="http://www.w3.org/1999/xlink" x="0px" y="0px"
	 viewBox="0 0 17.1 15.2" style="enable-background:new 0 0 17.1 15.2;" xml:space="preserve">
<style type="text/css">
	.st0{fill:#CCCCCC;}
</style>
<g>
	<g>
		<g>
			<path class="st0" d="M8.6,15.2c-0.2,0-0.5-0.1-0.6-0.2l0,0c-0.7-0.6-1.4-1.2-2-1.7c-3.6-3-5.9-5-5.9-8.1C0,2.2,2.1,0,4.8,0
				c1.5,0,2.8,0.7,3.8,2.1C9.5,0.7,10.8,0,12.4,0c2.7,0,4.8,2.3,4.8,5.1c0,3.1-2.4,5.1-5.9,8.1c-0.6,0.5-1.3,1.1-2,1.7
				C9,15.1,8.8,15.2,8.6,15.2z M8.6,14.2L8.6,14.2L8.6,14.2z M4.8,1C2.7,1,1,2.8,1,5.1c0,2.6,2.2,4.5,5.6,7.3c0.6,0.5,1.3,1.1,2,1.7
				c0.7-0.6,1.4-1.2,2-1.7c3.4-2.9,5.6-4.7,5.6-7.3c0-2.3-1.7-4.1-3.8-4.1C10.6,1,9.6,2.2,9,3.3c-0.2,0.3-0.7,0.3-0.9,0
				C7.6,2.2,6.6,1,4.8,1z"/>
		</g>
	</g>
</g>
</svg>
