<?xml version="1.0" encoding="utf-8"?>
<!-- Generator: Adobe Illustrator 23.0.0, SVG Export Plug-In . SVG Version: 6.00 Build 0)  -->
<svg version="1.1" id="Layer_1" xmlns="http://www.w3.org/2000/svg" xmlns:xlink="http://www.w3.org/1999/xlink" x="0px" y="0px"
	 viewBox="0 0 59.7 59.4" style="enable-background:new 0 0 59.7 59.4;" xml:space="preserve">
<style type="text/css">
	.st0{fill:#808080;}
</style>
<path class="st0" d="M29.7,23.4c1.3,0,2.3,1,2.3,2.3c0,1.3-1,2.3-2.3,2.3s-2.3-1-2.3-2.3C27.4,24.5,28.4,23.4,29.7,23.4z M37.9,25.8
	c0,1.3,1,2.3,2.3,2.3s2.3-1,2.3-2.3c0-1.3-1-2.3-2.3-2.3S37.9,24.5,37.9,25.8z M16.9,25.8c0,1.3,1,2.3,2.3,2.3s2.3-1,2.3-2.3
	c0-1.3-1-2.3-2.3-2.3S16.9,24.5,16.9,25.8z M57.7,47.5c2.7,2.7,2.7,7.1,0,9.9c-1.4,1.4-3.2,2-4.9,2s-3.6-0.7-4.9-2L35,44.7
	c-0.3-0.3-0.5-0.6-0.6-1l-2.8-9.1c-0.2-0.8,0-1.7,0.6-2.3c0.6-0.6,1.5-0.8,2.3-0.6l9.4,2.6c0.4,0.1,0.7,0.3,1,0.6L57.7,47.5z
	 M38.7,41.8l8.6,8.6l3.3-3.3L42,38.6l-4.7-1.3L38.7,41.8z M54.4,50.8l-0.5-0.4l-3.3,3.3l0.4,0.4c0.9,0.9,2.4,0.9,3.3,0
	C55.3,53.2,55.3,51.7,54.4,50.8z M31.2,48.1c-0.4,0-0.9,0-1.3,0c-3.8,0-7.4-0.7-10.7-2.1c-0.6-0.2-1.2-0.2-1.8,0L6.7,50.5l3.6-8.4
	c0.3-0.8,0.2-1.8-0.4-2.4c-3.4-3.8-5.2-8.4-5.2-13.2c0-12,11.3-21.8,25.2-21.8S55,14.4,55,26.4c0,2.9-0.7,5.7-2.1,8.5
	c-0.6,1.1-0.1,2.5,1.1,3.1s2.6,0.1,3.1-1.1c1.7-3.4,2.6-7,2.6-10.6C59.7,11.9,46.3,0,29.9,0C13.4,0,0,11.9,0,26.4
	C0,32,1.9,37.2,5.4,41.6L0.2,54c-0.4,0.9-0.2,1.9,0.5,2.5c0.4,0.4,1,0.7,1.6,0.7c0.3,0,0.6-0.1,0.9-0.2l15-6.3
	c3.7,1.4,7.6,2.1,11.6,2.1c0.5,0,1,0,1.5,0c1.3-0.1,2.3-1.1,2.2-2.4C33.5,49,32.4,48.1,31.2,48.1z"/>
</svg>
