<?xml version="1.0" encoding="utf-8"?>
<!-- Generator: Adobe Illustrator 23.0.0, SVG Export Plug-In . SVG Version: 6.00 Build 0)  -->
<svg version="1.1" id="Layer_1" xmlns="http://www.w3.org/2000/svg" xmlns:xlink="http://www.w3.org/1999/xlink" x="0px" y="0px"
	 viewBox="0 0 144.5 144.5" style="enable-background:new 0 0 144.5 144.5;" xml:space="preserve">
<style type="text/css">
	.st0{fill:#FFFFFF;stroke:#FF0000;stroke-width:5;stroke-miterlimit:10;}
	.st1{fill:#FF0000;}
</style>
<g>
	<circle class="st0" cx="72.2" cy="72.2" r="69.7"/>
	<g>
		<g>
			<path class="st1" d="M68.8,38.2l-22,13.4H32.9c-1.4,0-2.4,1.1-2.4,2.4v36.5c0,1.4,1.1,2.4,2.4,2.4h13.8l22,13.4
				c4.9,3,11.2-0.5,11.2-6.3V44.4C79.9,38.7,73.7,35.2,68.8,38.2L68.8,38.2z M35.4,56.4H45v31.6h-9.6V56.4z M75,100.1
				c0,1.9-2.1,3.1-3.7,2.1l-21.4-13V55.4l21.4-13c1.6-1,3.7,0.2,3.7,2.1V100.1z"/>
			<path class="st1" d="M86.9,65.9c-1,1-1,2.5,0,3.5c1.6,1.6,1.6,4.2,0,5.8c-1,1-1,2.5,0,3.5c1,1,2.5,1,3.5,0
				c3.5-3.5,3.5-9.2,0-12.7C89.4,65,87.8,65,86.9,65.9L86.9,65.9z"/>
			<path class="st1" d="M97.7,58.5c-1-1-2.5-1-3.5,0c-1,1-1,2.5,0,3.5c5.7,5.7,5.7,14.9,0,20.5c-1,1-1,2.5,0,3.5c1,1,2.5,1,3.5,0
				C105.3,78.4,105.3,66.1,97.7,58.5z"/>
			<path class="st1" d="M105.1,51.1c-1-1-2.5-1-3.5,0c-1,1-1,2.5,0,3.5c9.9,9.9,9.9,25.4,0,35.3c-1,1-1,2.5,0,3.5c1,1,2.5,1,3.5,0
				C117,81.5,117,63,105.1,51.1z"/>
		</g>
	</g>
</g>
</svg>
