<?xml version="1.0" encoding="utf-8"?>
<!-- Generator: Adobe Illustrator 23.0.0, SVG Export Plug-In . SVG Version: 6.00 Build 0)  -->
<svg version="1.1" id="Layer_1" xmlns="http://www.w3.org/2000/svg" xmlns:xlink="http://www.w3.org/1999/xlink" x="0px" y="0px"
	 viewBox="0 0 41 37.7" style="enable-background:new 0 0 41 37.7;" xml:space="preserve">
<style type="text/css">
	.st0{fill:#808080;}
</style>
<path class="st0" d="M35.3,0H5.6C2.5,0,0,2.5,0,5.6v18.2c0,3.1,2.5,5.6,5.6,5.6v8.2l11.9-8.2h17.9c3.1,0,5.6-2.5,5.6-5.6V5.6
	C41,2.5,38.4,0,35.3,0z M38.6,23.8c0,1.8-1.4,3.2-3.2,3.2H16.7L8,33.1V27H5.6c-1.8,0-3.2-1.5-3.2-3.2V5.6c0-1.8,1.4-3.2,3.2-3.2
	h29.7c1.8,0,3.2,1.4,3.2,3.2V23.8z M11.2,8.5h19v2.4h-19V8.5z M11.2,13.6h19V16h-19V13.6z M11.2,18.7h19v2.4h-19V18.7z"/>
</svg>
