<?xml version="1.0" encoding="utf-8"?>
<!-- Generator: Adobe Illustrator 23.0.0, SVG Export Plug-In . SVG Version: 6.00 Build 0)  -->
<svg version="1.1" id="Layer_1" xmlns="http://www.w3.org/2000/svg" xmlns:xlink="http://www.w3.org/1999/xlink" x="0px" y="0px"
	 viewBox="0 0 33.5 37.9" style="enable-background:new 0 0 33.5 37.9;" xml:space="preserve">
<style type="text/css">
	.st0{fill:#808080;}
</style>
<g>
	<g>
		<path class="st0" d="M16.7,0L0,4.8v9.9C0,19.8,1.6,24.8,4.6,29c3,4.1,7,7.2,11.8,8.8l0.4,0.1l0.4-0.1c4.7-1.7,8.8-4.7,11.8-8.8
			c3-4.2,4.6-9.1,4.6-14.3V4.8L16.7,0z M16.7,30.8c-2.7-1.3-5-3.2-6.7-5.7c-1.8-2.5-2.9-5.4-3.2-8.4l10-2.8l10,2.8
			c-0.3,3-1.4,5.9-3.2,8.4C21.7,27.5,19.4,29.5,16.7,30.8z M26.8,14.4l-10.1-2.9L6.7,14.4V9.8l10.1-2.9l10.1,2.9V14.4z M2.2,14.6
			V6.4l13.4-3.8v2.3L4.4,8.1v6.5c0,4.2,1.3,8.3,3.8,11.7c1.9,2.7,4.5,4.9,7.4,6.3v2.5C7.6,31.6,2.2,23.6,2.2,14.6L2.2,14.6z
			 M31.3,14.6c0,8.9-5.3,17-13.4,20.5v-2.5c2.9-1.5,5.5-3.6,7.4-6.3c2.5-3.4,3.8-7.5,3.8-11.7V8.1L17.9,4.9V2.6l13.4,3.8V14.6z"/>
	</g>
</g>
</svg>
