<?xml version="1.0" encoding="utf-8"?>
<!-- Generator: Adobe Illustrator 23.0.0, SVG Export Plug-In . SVG Version: 6.00 Build 0)  -->
<svg version="1.1" id="Layer_1" xmlns="http://www.w3.org/2000/svg" xmlns:xlink="http://www.w3.org/1999/xlink" x="0px" y="0px"
	 viewBox="0 0 50 50" style="enable-background:new 0 0 50 50;" xml:space="preserve">
<style type="text/css">
	.st0{fill:#808080;}
</style>
<path class="st0" d="M50,44.6v1.6c0,2.1-1.7,3.8-3.8,3.8H3.8C1.7,50,0,48.3,0,46.2l0-1.6c0-2.1,1.7-3.8,3.8-3.8h42.3
	C48.3,40.7,50,42.5,50,44.6z M46.2,20.4H17.6c-2.1,0-3.8,1.7-3.8,3.8v1.6c0,2.1,1.7,3.8,3.8,3.8h28.6c2.1,0,3.8-1.7,3.8-3.8v-1.6
	C50,22.1,48.3,20.4,46.2,20.4z M46.2,0L29.8,0c-2.1,0-3.8,1.7-3.8,3.8v1.6c0,2.1,1.7,3.8,3.8,3.8h16.4c2.1,0,3.8-1.7,3.8-3.8V3.8
	C50,1.7,48.3,0,46.2,0z"/>
</svg>
