<?xml version="1.0" encoding="utf-8"?>
<!-- Generator: Adobe Illustrator 23.0.0, SVG Export Plug-In . SVG Version: 6.00 Build 0)  -->
<svg version="1.1" id="Layer_1" xmlns="http://www.w3.org/2000/svg" xmlns:xlink="http://www.w3.org/1999/xlink" x="0px" y="0px"
	 viewBox="0 0 39.9 63.4" style="enable-background:new 0 0 39.9 63.4;" xml:space="preserve">
<style type="text/css">
	.st0{fill:#808080;}
</style>
<path class="st0" d="M5.9,63.4L5.9,63.4c-3.3,0-5.9-2.7-5.9-5.9L0,5.9C0,2.7,2.7,0,5.9,0h0c3.3,0,5.9,2.7,5.9,5.9v51.6
	C11.8,60.7,9.2,63.4,5.9,63.4z M39.9,57.5V5.9C39.9,2.7,37.3,0,34,0h0c-3.3,0-5.9,2.7-5.9,5.9v51.6c0,3.3,2.7,5.9,5.9,5.9h0
	C37.3,63.4,39.9,60.7,39.9,57.5z"/>
</svg>
