<?xml version="1.0" encoding="utf-8"?>
<!-- Generator: Adobe Illustrator 23.0.0, SVG Export Plug-In . SVG Version: 6.00 Build 0)  -->
<svg version="1.1" id="Layer_1" xmlns="http://www.w3.org/2000/svg" xmlns:xlink="http://www.w3.org/1999/xlink" x="0px" y="0px"
	 viewBox="0 0 122.9 84" style="enable-background:new 0 0 122.9 84;" xml:space="preserve">
<style type="text/css">
	.st0{fill:#e61e1e;}
</style>
<path class="st0" d="M104.9,0L18,0C8.1,0,0,8.1,0,18v48c0,9.8,7.8,17.8,17.6,18l87.8,0c9.7-0.2,17.6-8.2,17.6-18V18
	C122.9,8.1,114.8,0,104.9,0L104.9,0z M115.7,66c0,6-4.8,10.8-10.8,10.8H18C12,76.8,7.2,72,7.2,66V18C7.2,12,12,7.2,18,7.2h86.9
	c6,0,10.8,4.8,10.8,10.8V66z"/>
<g>
	<path class="st0" d="M82.6,24.7H40.3c-5.3,0-9.4,4.7-8.7,10L35,60.7c0.6,4.4,4.3,7.6,8.7,7.6h35.4c4.4,0,8.2-3.3,8.7-7.6l3.5-26.1
		C92.1,29.3,87.9,24.7,82.6,24.7L82.6,24.7z M86.3,34L82.8,60c-0.2,1.9-1.8,3.2-3.7,3.2H43.8c-1.9,0-3.5-1.4-3.7-3.2L36.6,34
		c-0.3-2.3,1.5-4.2,3.7-4.2h42.3C84.9,29.7,86.6,31.7,86.3,34z"/>
	<path class="st0" d="M40.8,20.7h41.2c1.4,0,2.5-1.1,2.5-2.5s-1.1-2.5-2.5-2.5H40.8c-1.4,0-2.5,1.1-2.5,2.5S39.4,20.7,40.8,20.7z"/>
	<path class="st0" d="M68.5,50.9c4.7-5.8,0.5-14.6-7-14.6c-7.5,0-11.7,8.7-7,14.6c-1.4,0.7-2.7,1.7-3.9,2.8c-1,1-1,2.6,0,3.6
		c1,1,2.6,1,3.6,0c4-4,10.6-4,14.6,0c1,1,2.6,1,3.6,0c1-1,1-2.6,0-3.6C71.2,52.6,69.9,51.6,68.5,50.9z M61.4,41.4
		c2.2,0,3.9,1.8,3.9,3.9s-1.8,3.9-3.9,3.9c-2.2,0-3.9-1.8-3.9-3.9S59.3,41.4,61.4,41.4z"/>
</g>
</svg>
