<?xml version="1.0" encoding="utf-8"?>
<!-- Generator: Adobe Illustrator 23.0.0, SVG Export Plug-In . SVG Version: 6.00 Build 0)  -->
<svg version="1.1" id="Layer_1" xmlns="http://www.w3.org/2000/svg" xmlns:xlink="http://www.w3.org/1999/xlink" x="0px" y="0px"
	 viewBox="0 0 30.7 40.3" style="enable-background:new 0 0 30.7 40.3;" xml:space="preserve">
<style type="text/css">
	.st0{fill:#808080;}
</style>
<g>
	<path class="st0" d="M30.3,9.8l-9.4-9.4C20.7,0.1,20.4,0,20.1,0H3.5C1.6,0,0,1.6,0,3.5v33.2c0,2,1.6,3.5,3.5,3.5h23.6
		c2,0,3.5-1.6,3.5-3.5V10.6C30.7,10.3,30.5,10,30.3,9.8z M21.2,4l5.4,5.4h-4.2c-0.7,0-1.2-0.5-1.2-1.2V4z M27.1,37.9H3.5
		c-0.7,0-1.2-0.5-1.2-1.2V3.5c0-0.7,0.5-1.2,1.2-1.2h15.3v5.9c0,2,1.6,3.5,3.5,3.5h5.9v24.9C28.3,37.4,27.8,37.9,27.1,37.9z"/>
	<path class="st0" d="M22.4,16.7H8.3c-0.7,0-1.2,0.5-1.2,1.2S7.6,19,8.3,19h14.2c0.7,0,1.2-0.5,1.2-1.2S23.1,16.7,22.4,16.7z"/>
	<path class="st0" d="M22.4,21.4H8.3c-0.7,0-1.2,0.5-1.2,1.2s0.5,1.2,1.2,1.2h14.2c0.7,0,1.2-0.5,1.2-1.2S23.1,21.4,22.4,21.4z"/>
	<path class="st0" d="M22.4,26.1H8.3c-0.7,0-1.2,0.5-1.2,1.2s0.5,1.2,1.2,1.2h14.2c0.7,0,1.2-0.5,1.2-1.2S23.1,26.1,22.4,26.1z"/>
	<path class="st0" d="M17.7,30.8H8.3c-0.7,0-1.2,0.5-1.2,1.2c0,0.7,0.5,1.2,1.2,1.2h9.4c0.7,0,1.2-0.5,1.2-1.2
		C18.9,31.4,18.4,30.8,17.7,30.8z"/>
</g>
</svg>
