<?xml version="1.0" encoding="utf-8"?>
<!-- Generator: Adobe Illustrator 23.0.0, SVG Export Plug-In . SVG Version: 6.00 Build 0)  -->
<svg version="1.1" id="Layer_1" xmlns="http://www.w3.org/2000/svg" xmlns:xlink="http://www.w3.org/1999/xlink" x="0px" y="0px"
	 viewBox="0 0 94.3 113.4" style="enable-background:new 0 0 94.3 113.4;" xml:space="preserve">
<style type="text/css">
	.st0{fill:#808080;}
</style>
<path class="st0" d="M0,13.7l0,86c0,3.3,2.7,5.9,6,5.9c3.3,0,6-2.7,6-5.9V63.8l73.2,48.6c1,0.7,2.1,1,3.3,1c1,0,1.9-0.2,2.8-0.7
	c1.9-1,3.1-3,3.1-5.2V5.9c0-2.2-1.2-4.2-3.1-5.2c-1.9-1-4.3-0.9-6.1,0.3L11.9,49.6V13.7c0-3.3-2.7-5.9-6-5.9C2.7,7.7,0,10.4,0,13.7z
	 M22.6,56.7L82.4,17v79.4L22.6,56.7z"/>
</svg>
