<?xml version="1.0" encoding="utf-8"?>
<!-- Generator: Adobe Illustrator 23.0.0, SVG Export Plug-In . SVG Version: 6.00 Build 0)  -->
<svg version="1.1" id="Layer_1" xmlns="http://www.w3.org/2000/svg" xmlns:xlink="http://www.w3.org/1999/xlink" x="0px" y="0px"
	 viewBox="0 0 55 58.8" style="enable-background:new 0 0 55 58.8;" xml:space="preserve">
<style type="text/css">
	.st0{fill:#808080;}
</style>
<g>
	<path class="st0" d="M44.6,20.9c5.8,0,10.4-4.7,10.4-10.4S50.3,0,44.6,0S34.2,4.7,34.2,10.4c0,0.8,0.1,1.6,0.3,2.4L17.8,22
		c-1.9-1.9-4.5-3.1-7.4-3.1C4.7,19,0,23.7,0,29.4s4.7,10.4,10.4,10.4c2.9,0,5.5-1.2,7.4-3.1L34.4,46c-0.2,0.8-0.3,1.6-0.3,2.4
		c0,5.8,4.7,10.4,10.4,10.4S55,54.1,55,48.4S50.3,38,44.6,38c-2.9,0-5.5,1.2-7.4,3.1l-16.6-9.2c0.2-0.8,0.3-1.6,0.3-2.4
		s-0.1-1.6-0.3-2.4l16.6-9.2C39.1,19.7,41.7,20.9,44.6,20.9z M44.6,43.6c2.6,0,4.7,2.1,4.7,4.7s-2.1,4.7-4.7,4.7s-4.7-2.1-4.7-4.7
		S42,43.6,44.6,43.6z M10.4,34.2c-2.6,0-4.7-2.1-4.7-4.7s2.1-4.7,4.7-4.7s4.7,2.1,4.7,4.7S13.1,34.2,10.4,34.2z M44.6,5.7
		c2.6,0,4.7,2.1,4.7,4.7s-2.1,4.7-4.7,4.7s-4.7-2.1-4.7-4.7S42,5.7,44.6,5.7z"/>
</g>
</svg>
