<?xml version="1.0" encoding="utf-8"?>
<!-- Generator: Adobe Illustrator 23.0.0, SVG Export Plug-In . SVG Version: 6.00 Build 0)  -->
<svg version="1.1" id="Layer_1" xmlns="http://www.w3.org/2000/svg" xmlns:xlink="http://www.w3.org/1999/xlink" x="0px" y="0px"
	 viewBox="0 0 36.1 28.8" style="enable-background:new 0 0 36.1 28.8;" xml:space="preserve">
<style type="text/css">
	.st0{fill:#818181;}
</style>
<g>
	<path class="st0" d="M34.6,12.6H1.5C0.7,12.6,0,13.2,0,14s0.7,1.5,1.5,1.5h33.1c0.8,0,1.5-0.7,1.5-1.5S35.4,12.6,34.6,12.6z"/>
	<path class="st0" d="M1.5,2.9h33.1c0.8,0,1.5-0.7,1.5-1.5S35.4,0,34.6,0H1.5C0.7,0,0,0.7,0,1.5S0.7,2.9,1.5,2.9z"/>
	<path class="st0" d="M34.6,25.8H1.5c-0.8,0-1.5,0.7-1.5,1.5c0,0.8,0.7,1.5,1.5,1.5h33.1c0.8,0,1.5-0.7,1.5-1.5
		C36.1,26.5,35.4,25.8,34.6,25.8z"/>
</g>
</svg>
