<?xml version="1.0" encoding="utf-8"?>
<!-- Generator: Adobe Illustrator 23.0.0, SVG Export Plug-In . SVG Version: 6.00 Build 0)  -->
<svg version="1.1" id="Layer_1" xmlns="http://www.w3.org/2000/svg" xmlns:xlink="http://www.w3.org/1999/xlink" x="0px" y="0px"
	 viewBox="0 0 92 88.1" style="enable-background:new 0 0 92 88.1;" xml:space="preserve">
<style type="text/css">
	.st0{fill:#E22728;}
</style>
<path class="st0" d="M51.7,3.5L61,22.4c0.9,1.9,2.7,3.2,4.8,3.5l20.8,3c5.2,0.8,7.3,7.1,3.5,10.8L75,54.4c-1.5,1.5-2.2,3.5-1.8,5.6
	l3.6,20.8c0.9,5.2-4.5,9.1-9.2,6.7L49,77.6c-1.8-1-4-1-5.9,0l-18.6,9.8c-4.6,2.4-10.1-1.5-9.2-6.7L18.8,60c0.4-2.1-0.3-4.1-1.8-5.6
	L1.9,39.7c-3.8-3.7-1.7-10,3.5-10.8l20.8-3c2.1-0.3,3.8-1.6,4.8-3.5l9.3-18.9C42.7-1.2,49.4-1.2,51.7,3.5z"/>
</svg>
