<?xml version="1.0" encoding="utf-8"?>
<!-- Generator: Adobe Illustrator 23.0.0, SVG Export Plug-In . SVG Version: 6.00 Build 0)  -->
<svg version="1.1" id="Layer_1" xmlns="http://www.w3.org/2000/svg" xmlns:xlink="http://www.w3.org/1999/xlink" x="0px" y="0px"
	 viewBox="0 0 46.2 29.4" style="enable-background:new 0 0 46.2 29.4;" xml:space="preserve">
<style type="text/css">
	.st0{fill:#818181;}
</style>
<g>
	<g>
		<g>
			<path class="st0" d="M45.9,13.8C45.5,13.3,35.7,0,23.1,0S0.7,13.3,0.3,13.8c-0.4,0.5-0.4,1.3,0,1.8c0.4,0.6,10.2,13.8,22.8,13.8
				s22.4-13.3,22.8-13.8C46.3,15.1,46.3,14.4,45.9,13.8z M23.1,26.4c-9.3,0-17.3-8.8-19.6-11.7C5.8,11.8,13.8,3,23.1,3
				c9.2,0,17.3,8.8,19.6,11.7C40.4,17.6,32.4,26.4,23.1,26.4z"/>
		</g>
	</g>
	<g>
		<g>
			<path class="st0" d="M23.1,5.6c-5,0-9.1,4.1-9.1,9.1s4.1,9.1,9.1,9.1s9.1-4.1,9.1-9.1S28.1,5.6,23.1,5.6z M23.1,20.8
				c-3.4,0-6.1-2.7-6.1-6.1s2.7-6.1,6.1-6.1s6.1,2.7,6.1,6.1S26.5,20.8,23.1,20.8z"/>
		</g>
	</g>
</g>
</svg>
