<?xml version="1.0" encoding="utf-8"?>
<!-- Generator: Adobe Illustrator 23.0.0, SVG Export Plug-In . SVG Version: 6.00 Build 0)  -->
<svg version="1.1" id="Layer_1" xmlns="http://www.w3.org/2000/svg" xmlns:xlink="http://www.w3.org/1999/xlink" x="0px" y="0px"
	 viewBox="0 0 55.2 80.7" style="enable-background:new 0 0 55.2 80.7;" xml:space="preserve">
<style type="text/css">
	.st0{fill:#FFFFFF;}
</style>
<g>
	<g>
		<path class="st0" d="M26.6,55.3h1.9c9.1,0,16.6-7.4,16.6-16.6V16.7C45.1,7.5,37.7,0,28.5,0h-1.9c-9.1,0-16.5,7.5-16.6,16.7v22.1
			C10.1,47.9,17.5,55.3,26.6,55.3z M26.6,4.7h1.9c6,0,11,4.6,11.7,10.6h-3.9c-1.3,0-2.4,1.1-2.4,2.4c0,1.3,1.1,2.4,2.4,2.4h3.9v5.4
			h-6.5c-1.3,0-2.4,1.1-2.4,2.4s1.1,2.4,2.4,2.4h6.5v5.4h-3.9c-1.3,0-2.4,1.1-2.4,2.4s1.1,2.4,2.4,2.4h3.9
			c-0.7,5.9-5.7,10.4-11.7,10.4h-1.9c-6,0-11-4.6-11.7-10.4h3.9c1.3,0,2.4-1.1,2.4-2.4s-1.1-2.4-2.4-2.4h-3.9v-5.4h6.5
			c1.3,0,2.4-1.1,2.4-2.4s-1.1-2.4-2.4-2.4h-6.5V20h3.9c1.3,0,2.4-1.1,2.4-2.4c0-1.3-1.1-2.4-2.4-2.4h-3.9
			C15.6,9.4,20.6,4.7,26.6,4.7z"/>
		<path class="st0" d="M55.2,37.8c0-1.3-1.1-2.4-2.4-2.4s-2.4,1.1-2.4,2.4c0,12.6-10.3,22.9-22.9,22.9S4.7,50.4,4.7,37.8
			c0-1.3-1.1-2.4-2.4-2.4S0,36.5,0,37.8c0,14.4,11.1,26.3,25.2,27.5V76H12.5c-1.3,0-2.4,1.1-2.4,2.4c0,1.3,1.1,2.4,2.4,2.4h30.3
			c1.3,0,2.4-1.1,2.4-2.4c0-1.3-1.1-2.4-2.4-2.4H29.9V65.3C44.1,64.1,55.2,52.2,55.2,37.8z"/>
	</g>
</g>
</svg>
