<?xml version="1.0" encoding="utf-8"?>
<!-- Generator: Adobe Illustrator 23.0.0, SVG Export Plug-In . SVG Version: 6.00 Build 0)  -->
<svg version="1.1" id="Layer_1" xmlns="http://www.w3.org/2000/svg" xmlns:xlink="http://www.w3.org/1999/xlink" x="0px" y="0px"
	 viewBox="0 0 56.9 54.3" style="enable-background:new 0 0 56.9 54.3;" xml:space="preserve">
<style type="text/css">
	.st0{fill:#808080;}
</style>
<g>
	<g>
		<g>
			<path class="st0" d="M53.3,21.7C52.3,9.2,41.7,0,28.5,0C15.2,0,4.6,9.2,3.6,21.7c-2.1,0.9-3.6,3-3.6,5.4v9.4
				c0,3.3,2.7,5.9,5.9,5.9c1.1,0,2.2-0.3,3.1-0.9c3.6,8,10.4,12.7,19.4,12.7c9,0,15.9-4.7,19.4-12.7c0.9,0.6,2,0.9,3.1,0.9
				c3.3,0,5.9-2.6,5.9-5.9v-9.4C56.9,24.7,55.4,22.6,53.3,21.7z M28.5,4.7c10.7,0,19.1,7.2,20.1,17.1c-0.4,0.2-0.9,0.5-1.2,0.8
				C43,15.3,35.6,9.4,28.5,9.4S13.9,15.3,9.6,22.5c-0.4-0.3-0.8-0.6-1.2-0.8C9.3,11.9,17.8,4.7,28.5,4.7z M44.1,26.5
				c-1.7-0.3-3.4-1.7-4.9-4c-1.1-1.7-3.5-2-5.1-0.8c-2.2,1.7-4.8,3-7.7,3.8c-4.4,1.2-9.1,1.4-13.5,0.9c3.4-6.6,10-12.3,15.6-12.3
				C34.1,14.2,40.7,19.9,44.1,26.5z M5.9,37.8c-0.7,0-1.2-0.5-1.2-1.2v-9.4c0-0.7,0.5-1.2,1.2-1.2s1.2,0.5,1.2,1.2v1.1c0,0,0,0,0,0
				c0,0,0,0,0,0v7.1l0,0v1.2C7.1,37.2,6.6,37.8,5.9,37.8z M28.5,49.6c-8.6,0-14.5-5.3-16.6-14.4v-4.1c5.1,0.6,10.6,0.5,15.8-1
				c3.1-0.9,5.9-2.1,8.3-3.9c2.5,3.3,5.6,5.3,9.1,5.1v3.8C42.9,44.3,37,49.6,28.5,49.6z M52.2,36.6c0,0.7-0.5,1.2-1.2,1.2
				c-0.7,0-1.2-0.5-1.2-1.2v-1.2l0,0v-7.1c0,0,0,0,0,0v0c0,0,0,0,0,0v-1.1c0-0.7,0.5-1.2,1.2-1.2c0.7,0,1.2,0.5,1.2,1.2V36.6z"/>
		</g>
	</g>
</g>
</svg>
