<?xml version="1.0" encoding="utf-8"?>
<!-- Generator: Adobe Illustrator 23.0.0, SVG Export Plug-In . SVG Version: 6.00 Build 0)  -->
<svg version="1.1" id="Layer_1" xmlns="http://www.w3.org/2000/svg" xmlns:xlink="http://www.w3.org/1999/xlink" x="0px" y="0px"
	 viewBox="0 0 26.6 26.6" style="enable-background:new 0 0 26.6 26.6;" xml:space="preserve">
<style type="text/css">
	.st0{fill:url(#SVGID_1_);}
	.st1{fill:#EF4135;}
	.st2{fill:#FFFFFF;}
</style>
<g>
	<g>
		<g>
			<g>
				<linearGradient id="SVGID_1_" gradientUnits="userSpaceOnUse" x1="-3.637979e-12" y1="13.3136" x2="26.6271" y2="13.3136">
					<stop  offset="0" style="stop-color:#09446C"/>
					<stop  offset="0.2" style="stop-color:#0A4E7E"/>
					<stop  offset="0.5349" style="stop-color:#0D5D98"/>
					<stop  offset="0.8135" style="stop-color:#0D66AB"/>
					<stop  offset="1" style="stop-color:#086BB5"/>
				</linearGradient>
				<path class="st0" d="M13.3,0C6,0,0,6,0,13.3s6,13.3,13.3,13.3s13.3-6,13.3-13.3S20.7,0,13.3,0z"/>
			</g>
		</g>
	</g>
	<g>
		<path class="st1" d="M11.8,20.5c-1.8,0-3.3-1.2-3.3-2.7s1.5-2.7,3.3-2.7c0.4,0,0.8,0.1,1.2,0.2V6.2c0-0.6,0.4-1,1-1.1c0,0,0,0,0,0
			c0.6,0,1,0.4,1.1,0.9c0,0.2,0.3,0.5,0.4,0.7l0.1,0.1c0.3,0.4,0.8,0.8,1.3,1.1c0.8,0.5,1.7,1.1,2.2,2.2c0.3,0.7,0.5,1.4,0.4,2.1
			c-0.1,1-0.4,2-0.9,2.9l-0.1,0.1c-0.1,0.2-0.3,0.4-0.4,0.6c-0.2,0.2-0.5,0.4-0.8,0.4c0,0,0,0,0,0c-0.3,0-0.5-0.1-0.7-0.3
			c-0.2-0.2-0.3-0.4-0.4-0.7c0-0.3,0.1-0.6,0.3-0.8c0,0,0,0,0.1-0.1c-0.3-1.1-0.9-1.7-1.5-2.1v5.6C15,19.3,13.6,20.5,11.8,20.5z"/>
		<path class="st2" d="M14,5.6c0.3,0,0.5,0.2,0.6,0.5c0,0.3,0.3,0.6,0.5,0.9l0.1,0.1C15.5,7.6,16,8,16.6,8.4c0.8,0.5,1.5,1,2,2
			c0.3,0.6,0.4,1.2,0.4,1.8c-0.1,0.9-0.4,1.9-0.8,2.6c0,0,0,0,0,0.1c-0.1,0.2-0.3,0.4-0.4,0.6c-0.1,0.1-0.3,0.2-0.4,0.2
			c-0.1,0-0.3,0-0.4-0.1c-0.2-0.2-0.3-0.6,0-0.8c0.1-0.1,0.1-0.2,0.2-0.3c-0.4-1.9-1.7-2.7-2.6-3v6.4c0,1.2-1.2,2.2-2.8,2.2
			C10.2,20,9,19,9,17.8s1.2-2.2,2.8-2.2c0.6,0,1.2,0.2,1.7,0.5V6.2C13.4,5.9,13.6,5.7,14,5.6C13.9,5.6,14,5.6,14,5.6 M14,4.6L14,4.6
			L14,4.6c-0.9,0.1-1.6,0.7-1.6,1.6v8.4c-0.2,0-0.4,0-0.6,0C9.7,14.6,8,16,8,17.8c0,1.8,1.7,3.2,3.8,3.2s3.8-1.4,3.8-3.2v-4.5
			c0.2,0.2,0.3,0.5,0.5,0.9c-0.2,0.3-0.3,0.6-0.3,1c0,0.4,0.2,0.8,0.5,1.1c0.3,0.2,0.6,0.4,1,0.4c0.4,0,0.9-0.2,1.2-0.5
			c0.2-0.2,0.4-0.5,0.5-0.7c0,0,0.1-0.1,0.1-0.1c0.5-0.9,0.9-2,0.9-3.1c0-0.8-0.1-1.6-0.5-2.3c-0.6-1.2-1.5-1.8-2.3-2.4
			c-0.5-0.3-0.9-0.6-1.2-1l-0.1-0.1c-0.1-0.1-0.3-0.4-0.3-0.5C15.4,5.2,14.7,4.6,14,4.6L14,4.6z"/>
	</g>
</g>
</svg>
