<?xml version="1.0" encoding="utf-8"?>
<!-- Generator: Adobe Illustrator 23.0.0, SVG Export Plug-In . SVG Version: 6.00 Build 0)  -->
<svg version="1.1" id="Layer_1" xmlns="http://www.w3.org/2000/svg" xmlns:xlink="http://www.w3.org/1999/xlink" x="0px" y="0px"
	 viewBox="0 0 122.9 84" style="enable-background:new 0 0 122.9 84;" xml:space="preserve">
<style type="text/css">
	.st0{fill:#e61e1e;}
</style>
<g>
	<g>
		<path class="st0" d="M104.9,0H18C8.1,0,0,8.1,0,18v48c0,9.8,7.8,17.8,17.6,18l87.8,0c9.7-0.2,17.6-8.2,17.6-18V18
			C122.9,8.1,114.8,0,104.9,0z M18,7.2h86.9c4.7,0,8.7,3,10.2,7.2H7.8C9.3,10.2,13.3,7.2,18,7.2z M7.2,28.8v-7.2h108.5v7.2H7.2z
			 M115.7,36v7.2H7.2V36H115.7z M104.9,76.8H18C12,76.8,7.2,72,7.2,66V50.4h108.5V66C115.7,72,110.8,76.8,104.9,76.8z"/>
		<g>
			<path class="st0" d="M28.5,54.5c-5.4,0-9.8,4.4-9.8,9.8c0,5.4,4.4,9.8,9.8,9.8s9.8-4.4,9.8-9.8C38.3,58.9,33.9,54.5,28.5,54.5z
				 M28.5,67.6c-1.8,0-3.3-1.5-3.3-3.3c0-1.8,1.5-3.3,3.3-3.3s3.3,1.5,3.3,3.3C31.8,66.1,30.3,67.6,28.5,67.6z"/>
			<path class="st0" d="M94.4,54.5c-5.4,0-9.8,4.4-9.8,9.8c0,5.4,4.4,9.8,9.8,9.8s9.8-4.4,9.8-9.8C104.2,58.9,99.8,54.5,94.4,54.5z
				 M94.4,67.6c-1.8,0-3.3-1.5-3.3-3.3c0-1.8,1.5-3.3,3.3-3.3c1.8,0,3.3,1.5,3.3,3.3C97.7,66.1,96.2,67.6,94.4,67.6z"/>
			<path class="st0" d="M48.4,61c-1.8,0-3.3,1.5-3.3,3.3c0,1.8,1.5,3.3,3.3,3.3s3.3-1.5,3.3-3.3C51.6,62.5,50.2,61,48.4,61z"/>
			<path class="st0" d="M61.4,61c-1.8,0-3.3,1.5-3.3,3.3c0,1.8,1.5,3.3,3.3,3.3c1.8,0,3.3-1.5,3.3-3.3C64.7,62.5,63.3,61,61.4,61z"
				/>
			<path class="st0" d="M74.5,61c-1.8,0-3.3,1.5-3.3,3.3c0,1.8,1.5,3.3,3.3,3.3c1.8,0,3.3-1.5,3.3-3.3C77.8,62.5,76.3,61,74.5,61z"
				/>
		</g>
	</g>
</g>
</svg>
