<?xml version="1.0" encoding="utf-8"?>
<!-- Generator: Adobe Illustrator 23.0.0, SVG Export Plug-In . SVG Version: 6.00 Build 0)  -->
<svg version="1.1" id="Layer_1" xmlns="http://www.w3.org/2000/svg" xmlns:xlink="http://www.w3.org/1999/xlink" x="0px" y="0px"
	 viewBox="0 0 122.9 84" style="enable-background:new 0 0 122.9 84;" xml:space="preserve">
<style type="text/css">
	.st0{fill:#B3B3B3;}
</style>
<g>
	<path class="st0" d="M104.9,0L18,0C8.1,0,0,8.1,0,18v48c0,9.8,7.8,17.8,17.6,18l87.8,0c9.7-0.2,17.6-8.2,17.6-18V18
		C122.9,8.1,114.8,0,104.9,0L104.9,0z M115.7,66c0,6-4.8,10.8-10.8,10.8H18C12,76.8,7.2,72,7.2,66V18C7.2,12,12,7.2,18,7.2h86.9
		c6,0,10.8,4.8,10.8,10.8V66z"/>
	<path class="st0" d="M85.7,14.4H18c-2,0-3.6,1.6-3.6,3.6v48c0,2,1.6,3.6,3.6,3.6h67.7c2,0,3.6-1.6,3.6-3.6V18
		C89.3,16,87.7,14.4,85.7,14.4z M82.1,62.4H21.6V21.6h60.5V62.4z"/>
	<path class="st0" d="M106.1,16.8h-7.2c-2,0-3.6,1.6-3.6,3.6s1.6,3.6,3.6,3.6h7.2c2,0,3.6-1.6,3.6-3.6S108.1,16.8,106.1,16.8z"/>
	<path class="st0" d="M106.1,31.2h-7.2c-2,0-3.6,1.6-3.6,3.6c0,2,1.6,3.6,3.6,3.6h7.2c2,0,3.6-1.6,3.6-3.6
		C109.7,32.8,108.1,31.2,106.1,31.2z"/>
	<circle class="st0" cx="102.5" cy="49.2" r="3.6"/>
	<circle class="st0" cx="102.5" cy="63.6" r="3.6"/>
</g>
</svg>
