<?xml version="1.0" encoding="utf-8"?>
<!-- Generator: Adobe Illustrator 23.0.0, SVG Export Plug-In . SVG Version: 6.00 Build 0)  -->
<svg version="1.1" id="Layer_1" xmlns="http://www.w3.org/2000/svg" xmlns:xlink="http://www.w3.org/1999/xlink" x="0px" y="0px"
	 viewBox="0 0 42.5 48.3" style="enable-background:new 0 0 42.5 48.3;" xml:space="preserve">
<style type="text/css">
	.st0{fill:#808080;}
</style>
<g>
	<g>
		<path class="st0" d="M39.8,31.5c-1.8-0.9-2.9-2.7-2.9-4.8v-5.3c0-7.1-4.8-13.1-11.3-15V4.2c0-2.3-1.9-4.2-4.2-4.2S17,1.9,17,4.2
			v2.2c-6.5,1.9-11.3,7.9-11.3,15v5.3c0,2-1.1,3.9-2.9,4.8C1,32.3,0,34,0,35.9c0,2.7,2.2,4.9,4.9,4.9h7.5c0.7,4.3,4.4,7.6,8.9,7.6
			c4.5,0,8.2-3.3,8.9-7.6h7.5c2.7,0,4.9-2.2,4.9-4.9C42.5,34,41.4,32.3,39.8,31.5L39.8,31.5z M19.8,4.2c0-0.8,0.6-1.4,1.4-1.4
			c0.8,0,1.4,0.6,1.4,1.4v1.7c-0.5,0-0.9-0.1-1.4-0.1s-0.9,0-1.4,0.1V4.2z M21.2,45.5c-2.9,0-5.3-2-6-4.7h11.9
			C26.6,43.5,24.1,45.5,21.2,45.5L21.2,45.5z M37.6,38H4.9c-1.1,0-2.1-0.9-2.1-2.1c0-0.8,0.4-1.5,1.2-1.9c2.8-1.4,4.5-4.2,4.5-7.3
			v-5.3c0-7,5.7-12.7,12.7-12.7S34,14.4,34,21.4v5.3c0,3.1,1.7,5.9,4.5,7.3c0.7,0.4,1.2,1.1,1.2,1.9C39.7,37,38.7,38,37.6,38z"/>
	</g>
</g>
</svg>
