<?xml version="1.0" encoding="utf-8"?>
<!-- Generator: Adobe Illustrator 23.0.0, SVG Export Plug-In . SVG Version: 6.00 Build 0)  -->
<svg version="1.1" id="Layer_1" xmlns="http://www.w3.org/2000/svg" xmlns:xlink="http://www.w3.org/1999/xlink" x="0px" y="0px"
	 viewBox="0 0 1600 900" style="enable-background:new 0 0 1600 900;" xml:space="preserve">
<style type="text/css">
	.st0{fill:url(#SVGID_1_);}
	.st1{opacity:3.000000e-02;}
	.st2{clip-path:url(#SVGID_3_);}
	.st3{fill-rule:evenodd;clip-rule:evenodd;fill:#1288C9;}
	.st4{fill:#FFFFFF;}
	.st5{fill:#EB2027;}
	.st6{fill:#01A54E;}
</style>
<radialGradient id="SVGID_1_" cx="800.1273" cy="450.2413" r="648.9568" gradientUnits="userSpaceOnUse">
	<stop  offset="0" style="stop-color:#FFFFFF"/>
	<stop  offset="1" style="stop-color:#DBFFFF"/>
</radialGradient>
<rect x="0.2" y="0.3" class="st0" width="1599.8" height="899.9"/>
<g class="st1">
	<defs>
		<rect id="SVGID_2_" x="0.2" y="0.3" class="st1" width="1599.8" height="899.9"/>
	</defs>
	<clipPath id="SVGID_3_">
		<use xlink:href="#SVGID_2_"  style="overflow:visible;"/>
	</clipPath>
	<g class="st2">
		<path class="st3" d="M855.6-325.8c-506,0-920.4,414.4-920.4,920.4c0,510.4,414.4,924.9,920.4,924.9
			c510.4,0,924.9-414.4,924.9-924.9C1780.5,88.6,1366-325.8,855.6-325.8 M885.9,1434.9c-475.8,0-865.5-389.7-865.5-869.6
			c0-475.8,389.7-865.5,865.5-865.5c479.8,0,869.6,389.6,869.6,865.5C1755.5,1045.3,1365.8,1434.9,885.9,1434.9"/>
		<path class="st3" d="M907.7-280.1c-445,0-809.3,364.3-809.3,809.3c0,448.8,364.4,813.2,809.3,813.2
			c448.7,0,813.1-364.4,813.1-813.2C1720.9,84.3,1356.5-280.1,907.7-280.1 M938.1,1262.5c-414.4,0-756.5-341.3-756.5-758.9
			c0-413.6,342-755,756.5-755c418.4,0,760.5,341.4,760.5,755C1698.6,921.3,1356.6,1262.5,938.1,1262.5"/>
		<path class="st3" d="M968.5-228.7c-386.4,0-702.8,315.6-702.8,704.8c0,385.3,316.4,700.8,702.8,700.8
			c386.3,0,702.8-315.5,702.8-700.8C1671.3,86.9,1354.8-228.7,968.5-228.7 M989.9,1087.4c-355.3,0-647.6-292.3-647.6-647.6
			c0-355.4,292.3-647.7,647.6-647.7c359.4,0,647.7,292.3,647.7,647.7C1637.6,795.1,1349.3,1087.4,989.9,1087.4"/>
		<path class="st3" d="M1023.9-178.2c-328.1,0-593.1,265.1-593.1,593.2c0,324.2,265,589.1,593.1,589.1
			c324.2,0,589.1-264.9,589.1-589.1C1613,86.9,1348-178.2,1023.9-178.2 M1058.8,926.5c-296,0-538.2-241.4-538.2-536.3
			c0-295,242.2-536.2,538.2-536.2c296,0,534.3,241.3,534.3,536.2C1593.1,685.1,1354.8,926.5,1058.8,926.5"/>
		<path class="st3" d="M1092.3-99.8c-263.4,0-474.2,213.7-474.2,472.3c0,262.4,210.7,476,474.2,476c259.7,0,474.2-213.6,474.2-476
			C1566.4,113.8,1351.9-99.8,1092.3-99.8 M1114.7,760.5c-227.3,0-415.6-189.1-415.6-417.3c0-231.9,188.3-417.4,415.6-417.4
			c230.8,0,419.2,185.5,419.2,417.4C1533.9,571.4,1345.5,760.5,1114.7,760.5"/>
		<path class="st3" d="M1144.1,11.6c-184.4,0-336.3,152-336.3,336.3c0,184.4,152,336.4,336.3,336.4c187.6,0,336.4-151.9,336.4-336.4
			C1480.4,163.6,1331.7,11.6,1144.1,11.6 M1172.5,600.5c-151.3,0-274.1-122.7-274.1-274.1c0-154.1,122.7-276.9,274.1-276.9
			c154.2,0,276.9,122.8,276.9,276.9C1449.5,477.7,1326.7,600.5,1172.5,600.5"/>
		<path class="st3" d="M1216.9,424.4c75.7,0,140.3-64.5,140.3-140.3c0-78-64.5-142.5-140.3-142.5c-77.9,0-142.6,64.5-142.6,142.5
			C1074.4,359.9,1139,424.4,1216.9,424.4"/>
	</g>
</g>
<g>
	<path class="st4" d="M1446.1,159.3h-154.3c-11.5,0-20.8,9.3-20.8,20.8v24.4c0,9.3,6.1,17.4,15.1,20c13.2,3.8,19.1,8.2,21.6,11.3
		c3.3,3.9,4.9,9.6,4.9,17.3c0,3.7-0.4,7.7-1.1,11.8c-0.7,4.4-1.9,9.3-3.4,14.7l-41.7,120.7l-51.6-132.5c-1.9-5.8-3.2-10.9-4.1-15.1
		c-0.8-3.6-1.2-6.8-1.2-9.6c0-5.5,1.7-8,3.4-9.6c2-2,7.1-5.8,19.5-8.7c9.4-2.2,16-10.6,16-20.2v-24.4c0-11.5-9.3-20.8-20.8-20.8
		H932.3c-11.5,0-20.8,9.3-20.8,20.8v24.4c0,0.6,0,1.2,0.1,1.9c-34.3-15-72.2-23.3-112-23.3c-39.3,0-76.8,8.2-110.8,23
		c0-0.5,0.1-1,0.1-1.5v-24.4c0-11.5-9.3-20.8-20.8-20.8H513.6c-11.5,0-20.8,9.3-20.8,20.8v24.4c0,9.3,6.1,17.4,15.1,20
		c13.2,3.8,19.1,8.2,21.6,11.3c3.3,4,4.9,9.6,4.9,17.3c0,3.7-0.4,7.7-1.1,11.8c-0.7,4.4-1.9,9.3-3.4,14.7l-41.7,120.7l-51.6-132.5
		c-1.9-5.8-3.2-10.9-4.1-15.1c-0.8-3.6-1.2-6.9-1.2-9.7c0-5.5,1.7-7.9,3.4-9.6c2-2,7.1-5.7,19.5-8.7c9.4-2.2,16-10.6,16-20.2v-24.4
		c0-11.5-9.3-20.8-20.8-20.8H154.1c-11.5,0-20.8,9.3-20.8,20.8v24.4c0,9.8,6.9,18.3,16.5,20.3c9,1.9,16.6,6.4,23.2,13.7
		c7.8,8.6,15.4,22.6,22.8,41.7l174.4,447.6c3.1,8,10.8,13.2,19.4,13.2H444c8.9,0,16.8-5.6,19.7-14L530.6,534
		c31.9,119.2,140.4,207.1,268.9,207.1c130.9,0,241-90.4,271.4-212l77.4,198.7c3.1,8,10.8,13.2,19.4,13.2h54.5
		c8.9,0,16.8-5.6,19.7-14l143.6-414.5c9.9-29.5,20.9-52,32.7-66.8c9.9-12.5,19.9-19.2,30.7-20.6c10.4-1.3,18.1-10.2,18.1-20.6v-24.4
		C1466.9,168.7,1457.6,159.3,1446.1,159.3z"/>
	<path class="st3" d="M799.5,203.9c-141.6,0-257.6,116-257.6,257.6c0,142.9,116,258.8,257.6,258.8c142.8,0,258.8-116,258.8-258.8
		C1058.4,319.9,942.4,203.9,799.5,203.9 M808,696.7c-133.2,0-242.2-109.1-242.2-243.4c0-133.2,109.1-242.2,242.2-242.2
		c134.3,0,243.4,109,243.4,242.2C1051.4,587.6,942.3,696.7,808,696.7"/>
	<path class="st3" d="M814.1,216.7c-124.5,0-226.5,102-226.5,226.5c0,125.6,102,227.6,226.5,227.6c125.6,0,227.6-102,227.6-227.6
		C1041.7,318.7,939.7,216.7,814.1,216.7 M822.6,648.4c-116,0-211.7-95.5-211.7-212.4c0-115.7,95.7-211.3,211.7-211.3
		c117.1,0,212.8,95.5,212.8,211.3C1035.4,552.9,939.7,648.4,822.6,648.4"/>
	<path class="st3" d="M831.1,231.1c-108.1,0-196.7,88.3-196.7,197.2c0,107.8,88.6,196.1,196.7,196.1c108.1,0,196.7-88.3,196.7-196.1
		C1027.8,319.4,939.2,231.1,831.1,231.1 M837.1,599.4c-99.4,0-181.3-81.8-181.3-181.2c0-99.5,81.8-181.3,181.3-181.3
		c100.6,0,181.3,81.8,181.3,181.3C1018.4,517.6,937.7,599.4,837.1,599.4"/>
	<path class="st3" d="M846.6,245.2c-91.8,0-166,74.2-166,166c0,90.7,74.2,164.9,166,164.9c90.7,0,164.9-74.1,164.9-164.9
		C1011.5,319.4,937.3,245.2,846.6,245.2 M856.4,554.4c-82.8,0-150.6-67.6-150.6-150.1c0-82.6,67.8-150.1,150.6-150.1
		c82.9,0,149.5,67.5,149.5,150.1C1005.9,486.8,939.2,554.4,856.4,554.4"/>
	<path class="st3" d="M865.7,267.1C792,267.1,733,326.9,733,399.3c0,73.4,59,133.2,132.7,133.2c72.7,0,132.7-59.8,132.7-133.2
		C998.4,326.9,938.4,267.1,865.7,267.1 M872,507.9c-63.6,0-116.3-52.9-116.3-116.8c0-64.9,52.7-116.8,116.3-116.8
		c64.6,0,117.3,51.9,117.3,116.8C989.3,455,936.6,507.9,872,507.9"/>
	<path class="st3" d="M880.2,298.3c-51.6,0-94.1,42.5-94.1,94.1c0,51.6,42.5,94.1,94.1,94.1c52.5,0,94.1-42.5,94.1-94.1
		C974.4,340.9,932.7,298.3,880.2,298.3 M888.2,463.1c-42.4,0-76.7-34.4-76.7-76.7c0-43.1,34.4-77.5,76.7-77.5
		c43.2,0,77.5,34.4,77.5,77.5C965.7,428.8,931.4,463.1,888.2,463.1"/>
	<path class="st3" d="M900.6,413.9c21.2,0,39.3-18.1,39.3-39.3c0-21.8-18.1-39.9-39.3-39.9c-21.8,0-39.9,18.1-39.9,39.9
		C860.7,395.8,878.8,413.9,900.6,413.9"/>
	<path class="st5" d="M515,462.1c0-15,1.2-29.8,3.4-44.2c4.1-30.8,13.8-59.9,28.2-86.4c17-33,40.3-62.2,68.3-86.2
		c2.9-4.6,5.8-8.8,8.8-12.6c13.3-16.7,28.1-26.1,44.3-28.3v-24.4H513.6v24.4c14.8,4.2,25.4,10.2,31.9,18c6.5,7.8,9.7,18,9.7,30.6
		c0,4.9-0.4,10-1.4,15.3c-0.9,5.3-2.2,11.1-4,17.4l-60.4,174.8l-72.3-185.9c-2.2-6.7-3.8-12.6-4.9-17.7c-1.1-5.1-1.6-9.8-1.6-14
		c0-9.8,3.1-18,9.4-24.3c6.3-6.3,16.1-11.1,29.4-14.2v-24.4H154.1v24.4c13.3,2.8,24.7,9.5,34.3,20.1c9.5,10.6,18.4,26.6,26.7,48
		l174.4,447.6H444l74.3-214.4C516.1,491.6,515,477,515,462.1"/>
	<path class="st6" d="M1291.8,180.1v24.4c14.8,4.2,25.4,10.2,31.8,18c6.5,7.8,9.7,18,9.7,30.6c0,4.9-0.5,10-1.4,15.3
		c-0.9,5.3-2.2,11.1-4,17.4l-60.4,174.8l-72.3-185.9c-2.2-6.7-3.8-12.6-4.9-17.7c-1.1-5.1-1.6-9.8-1.6-14c0-9.8,3.1-18,9.4-24.3
		c6.3-6.3,16.1-11.1,29.4-14.2v-24.4H932.3v24.4c13.3,2.8,24.7,9.5,34.3,20.1c3.4,3.8,6.7,8.3,9.9,13.5
		c31.6,24.9,57.8,56.4,76.6,92.3c14.8,26.8,24.7,56.3,28.8,87.5c2.2,14.4,3.4,29.1,3.4,44.2c0,13.4-1,26.6-2.8,39.6l85.2,218.6h54.5
		L1365.7,306c10.8-32,22.8-56.4,36.1-73.1c13.3-16.7,28.1-26.1,44.3-28.3v-24.4H1291.8z"/>
</g>
</svg>
