<?xml version="1.0" encoding="utf-8"?>
<!-- Generator: Adobe Illustrator 23.0.0, SVG Export Plug-In . SVG Version: 6.00 Build 0)  -->
<svg version="1.1" id="Layer_1" xmlns="http://www.w3.org/2000/svg" xmlns:xlink="http://www.w3.org/1999/xlink" x="0px" y="0px"
	 viewBox="0 0 1000 1000" style="enable-background:new 0 0 1000 1000;" xml:space="preserve">
<style type="text/css">
	.st0{fill:url(#SVGID_1_);}
	.st1{opacity:3.000000e-02;}
	.st2{clip-path:url(#SVGID_3_);}
	.st3{fill-rule:evenodd;clip-rule:evenodd;fill:#1288C9;}
	.st4{fill:#FFFFFF;}
	.st5{fill:#EB2027;}
	.st6{fill:#01A54E;}
</style>
<g>
	<radialGradient id="SVGID_1_" cx="500.1254" cy="500.3218" r="499.9022" gradientUnits="userSpaceOnUse">
		<stop  offset="0" style="stop-color:#FFFFFF"/>
		<stop  offset="1" style="stop-color:#DBFFFF"/>
	</radialGradient>
	<rect x="0.2" y="0.4" class="st0" width="999.8" height="999.8"/>
	<g>
		<g class="st1">
			<defs>
				<rect id="SVGID_2_" x="0.2" y="0.4" class="st1" width="999.8" height="999.8"/>
			</defs>
			<clipPath id="SVGID_3_">
				<use xlink:href="#SVGID_2_"  style="overflow:visible;"/>
			</clipPath>
			<g class="st2">
				<path class="st3" d="M410.1,53.2c-316.2,0-575.2,259-575.2,575.2c0,319,259,578,575.2,578c319,0,578-259,578-578
					C988,312.2,729,53.2,410.1,53.2 M429,1153.5c-297.3,0-540.8-243.5-540.8-543.4c0-297.3,243.5-540.8,540.8-540.8
					c299.9,0,543.4,243.5,543.4,540.8C972.4,910,728.9,1153.5,429,1153.5"/>
				<path class="st3" d="M442.6,81.8c-278.1,0-505.8,227.7-505.8,505.8c0,280.4,227.7,508.2,505.8,508.2
					c280.4,0,508.2-227.7,508.2-508.2C950.8,309.5,723.1,81.8,442.6,81.8 M461.6,1045.8c-259,0-472.7-213.3-472.7-474.3
					c0-258.4,213.8-471.8,472.7-471.8c261.5,0,475.3,213.3,475.3,471.8C936.9,832.5,723.1,1045.8,461.6,1045.8"/>
				<path class="st3" d="M480.6,113.9c-241.4,0-439.2,197.3-439.2,440.4c0,240.8,197.7,437.9,439.2,437.9
					c241.4,0,439.2-197.2,439.2-437.9C919.8,311.1,722.1,113.9,480.6,113.9 M494,936.4c-222,0-404.7-182.7-404.7-404.7
					C89.3,309.6,272,126.9,494,126.9c224.6,0,404.7,182.7,404.7,404.8C898.8,753.7,718.6,936.4,494,936.4"/>
				<path class="st3" d="M515.2,145.5c-205.1,0-370.7,165.6-370.7,370.7c0,202.6,165.6,368.2,370.7,368.2
					c202.6,0,368.2-165.6,368.2-368.2C883.4,311.1,717.8,145.5,515.2,145.5 M537,835.8c-185,0-336.3-150.9-336.3-335.2
					c0-184.3,151.4-335.1,336.3-335.1c185,0,333.9,150.8,333.9,335.1C870.9,685,722.1,835.8,537,835.8"/>
				<path class="st3" d="M558,194.4c-164.6,0-296.3,133.5-296.3,295.2c0,164,131.7,297.5,296.3,297.5
					c162.3,0,296.3-133.5,296.3-297.5C854.3,327.9,720.2,194.4,558,194.4 M572,732.1c-142.1,0-259.7-118.2-259.7-260.8
					c0-144.9,117.7-260.9,259.7-260.9c144.3,0,262,115.9,262,260.9C833.9,613.9,716.2,732.1,572,732.1"/>
				<path class="st3" d="M590.3,264.1c-115.2,0-210.2,95-210.2,210.2c0,115.3,95,210.2,210.2,210.2c117.2,0,210.2-94.9,210.2-210.2
					C800.5,359,707.6,264.1,590.3,264.1 M608.1,632.1c-94.6,0-171.3-76.7-171.3-171.3c0-96.3,76.7-173.1,171.3-173.1
					c96.4,0,173.1,76.7,173.1,173.1C781.2,555.3,704.5,632.1,608.1,632.1"/>
				<path class="st3" d="M635.9,522c47.3,0,87.7-40.3,87.7-87.7c0-48.7-40.3-89.1-87.7-89.1c-48.7,0-89.1,40.3-89.1,89.1
					C546.8,481.7,587.2,522,635.9,522"/>
			</g>
		</g>
		<g>
			<path class="st4" d="M903.8,318.5h-96.4c-7.2,0-13,5.8-13,13v15.3c0,5.8,3.8,10.9,9.4,12.5c8.3,2.4,11.9,5.1,13.5,7
				c2.1,2.5,3.1,6,3.1,10.8c0,2.3-0.2,4.8-0.7,7.4c-0.5,2.7-1.2,5.8-2.1,9.2l-26.1,75.4l-32.2-82.8c-1.2-3.6-2-6.8-2.6-9.4
				c-0.5-2.2-0.7-4.3-0.7-6c0-3.4,1.1-5,2.1-6c1.2-1.2,4.5-3.6,12.2-5.4c5.9-1.4,10-6.6,10-12.6v-15.3c0-7.2-5.8-13-13-13H582.7
				c-7.2,0-13,5.8-13,13v15.3c0,0.4,0,0.8,0.1,1.2c-21.4-9.4-45.1-14.6-70-14.6c-24.6,0-48,5.1-69.2,14.4c0-0.3,0-0.6,0-0.9v-15.3
				c0-7.2-5.8-13-13-13h-96.5c-7.2,0-13,5.8-13,13v15.3c0,5.8,3.8,10.9,9.4,12.5c8.3,2.4,11.9,5.2,13.5,7c2.1,2.5,3.1,6,3.1,10.8
				c0,2.3-0.2,4.8-0.7,7.4c-0.5,2.7-1.2,5.8-2.1,9.2l-26.1,75.4L273,386.3c-1.2-3.6-2-6.8-2.6-9.4c-0.5-2.3-0.7-4.3-0.7-6
				c0-3.4,1.1-5,2.1-6c1.2-1.2,4.4-3.6,12.2-5.4c5.9-1.4,10-6.6,10-12.6v-15.3c0-7.2-5.8-13-13-13H96.4c-7.2,0-13,5.8-13,13v15.3
				c0,6.1,4.3,11.4,10.3,12.7c5.6,1.2,10.4,4,14.5,8.5c4.8,5.4,9.6,14.1,14.2,26l109,279.7c1.9,5,6.8,8.3,12.1,8.3h34.1
				c5.5,0,10.5-3.5,12.3-8.7l41.8-120.7c19.9,74.5,87.7,129.4,168.1,129.4c81.8,0,150.6-56.5,169.6-132.5l48.4,124.2
				c1.9,5,6.8,8.3,12.1,8.3h34.1c5.5,0,10.5-3.5,12.3-8.7l89.7-259.1c6.2-18.5,13.1-32.5,20.4-41.8c6.2-7.8,12.5-12,19.2-12.9
				c6.5-0.8,11.3-6.4,11.3-12.9v-15.3C916.8,324.3,911,318.5,903.8,318.5z"/>
			<path class="st3" d="M499.7,346.4c-88.5,0-161,72.5-161,161c0,89.3,72.5,161.8,161,161.8c89.3,0,161.8-72.5,161.8-161.8
				C661.5,418.9,589,346.4,499.7,346.4 M505,654.3c-83.2,0-151.4-68.2-151.4-152.1c0-83.2,68.2-151.4,151.4-151.4
				c83.9,0,152.1,68.1,152.1,151.4C657.1,586.2,589,654.3,505,654.3"/>
			<path class="st3" d="M508.9,354.4c-77.8,0-141.6,63.7-141.6,141.6c0,78.5,63.7,142.2,141.6,142.2c78.5,0,142.2-63.7,142.2-142.2
				C651.1,418.1,587.3,354.4,508.9,354.4 M514.2,624.2c-72.5,0-132.3-59.7-132.3-132.7c0-72.3,59.8-132,132.3-132
				c73.2,0,133,59.7,133,132C647.2,564.5,587.4,624.2,514.2,624.2"/>
			<path class="st3" d="M519.5,363.4c-67.6,0-122.9,55.2-122.9,123.3c0,67.4,55.3,122.6,122.9,122.6c67.6,0,122.9-55.2,122.9-122.6
				C642.4,418.6,587.1,363.4,519.5,363.4 M523.2,593.6c-62.1,0-113.3-51.1-113.3-113.3c0-62.2,51.1-113.3,113.3-113.3
				c62.9,0,113.3,51.1,113.3,113.3C636.5,542.4,586.1,593.6,523.2,593.6"/>
			<path class="st3" d="M529.2,372.2c-57.4,0-103.7,46.4-103.7,103.8c0,56.7,46.3,103,103.7,103c56.7,0,103-46.3,103-103
				C632.2,418.6,585.9,372.2,529.2,372.2 M535.3,565.4c-51.8,0-94.1-42.2-94.1-93.8c0-51.6,42.4-93.8,94.1-93.8
				c51.8,0,93.4,42.2,93.4,93.8C628.7,523.2,587.1,565.4,535.3,565.4"/>
			<path class="st3" d="M541.1,385.9c-46.1,0-82.9,37.4-82.9,82.6c0,45.9,36.9,83.3,82.9,83.3c45.4,0,82.9-37.4,82.9-83.3
				C624.1,423.3,586.5,385.9,541.1,385.9 M545.1,536.4c-39.8,0-72.7-33.1-72.7-73c0-40.6,32.9-73,72.7-73c40.4,0,73.3,32.4,73.3,73
				C618.4,503.3,585.4,536.4,545.1,536.4"/>
			<path class="st3" d="M550.2,405.4c-32.2,0-58.8,26.6-58.8,58.8c0,32.3,26.6,58.8,58.8,58.8c32.8,0,58.8-26.6,58.8-58.8
				C609,432,583,405.4,550.2,405.4 M555.2,508.4c-26.5,0-47.9-21.5-47.9-47.9c0-27,21.5-48.4,47.9-48.4c27,0,48.4,21.5,48.4,48.4
				C603.6,486.9,582.1,508.4,555.2,508.4"/>
			<path class="st3" d="M562.9,477.6c13.2,0,24.5-11.3,24.5-24.5c0-13.6-11.3-24.9-24.5-24.9c-13.6,0-24.9,11.3-24.9,24.9
				C538,466.3,549.3,477.6,562.9,477.6"/>
			<path class="st5" d="M321.9,507.7c0-9.4,0.7-18.6,2.1-27.6c2.5-19.2,8.6-37.4,17.7-54c10.6-20.6,25.2-38.9,42.7-53.8
				c1.8-2.9,3.6-5.5,5.5-7.9c8.3-10.4,17.5-16.3,27.7-17.7v-15.3h-96.5v15.3c9.2,2.6,15.9,6.4,19.9,11.2c4,4.8,6.1,11.2,6.1,19.1
				c0,3.1-0.3,6.3-0.8,9.6c-0.6,3.3-1.4,6.9-2.5,10.9l-37.8,109.2l-45.2-116.2c-1.3-4.2-2.4-7.9-3-11.1c-0.7-3.2-1-6.1-1-8.7
				c0-6.2,2-11.2,5.9-15.2c3.9-4,10.1-6.9,18.4-8.9v-15.3H96.4v15.3c8.3,1.8,15.5,5.9,21.4,12.5c6,6.6,11.5,16.6,16.7,30l109,279.7
				h34.1l46.4-134C322.6,526.2,321.9,517.1,321.9,507.7"/>
			<path class="st6" d="M807.4,331.5v15.3c9.2,2.6,15.9,6.4,19.9,11.2c4,4.8,6.1,11.2,6.1,19.1c0,3.1-0.3,6.3-0.8,9.6
				c-0.6,3.3-1.4,6.9-2.5,10.9l-37.8,109.2L747,390.7c-1.3-4.2-2.4-7.9-3-11.1c-0.7-3.2-1-6.1-1-8.7c0-6.2,2-11.2,5.9-15.2
				c3.9-4,10.1-6.9,18.4-8.9v-15.3H582.7v15.3c8.3,1.8,15.5,5.9,21.4,12.5c2.1,2.3,4.2,5.2,6.2,8.4c19.8,15.6,36.1,35.2,47.8,57.7
				c9.2,16.7,15.4,35.2,18,54.7c1.4,9,2.1,18.2,2.1,27.6c0,8.4-0.6,16.6-1.7,24.7l53.2,136.6h34.1l89.7-259
				c6.7-20,14.3-35.3,22.6-45.7c8.3-10.4,17.5-16.3,27.7-17.7v-15.3H807.4z"/>
		</g>
	</g>
</g>
</svg>
