<?xml version="1.0" encoding="utf-8"?>
<!-- Generator: Adobe Illustrator 23.0.0, SVG Export Plug-In . SVG Version: 6.00 Build 0)  -->
<svg version="1.1" id="Layer_1" xmlns="http://www.w3.org/2000/svg" xmlns:xlink="http://www.w3.org/1999/xlink" x="0px" y="0px"
	 viewBox="0 0 1600 900" style="enable-background:new 0 0 1600 900;" xml:space="preserve">
<style type="text/css">
	.st0{fill:url(#SVGID_1_);}
	.st1{clip-path:url(#SVGID_3_);}
	.st2{opacity:0.74;clip-path:url(#SVGID_5_);fill:url(#SVGID_6_);}
	.st3{opacity:0.74;clip-path:url(#SVGID_5_);fill:url(#SVGID_7_);}
	.st4{opacity:0.74;clip-path:url(#SVGID_5_);fill:url(#SVGID_8_);}
	.st5{opacity:0.48;clip-path:url(#SVGID_5_);fill:url(#SVGID_9_);}
	.st6{clip-path:url(#SVGID_5_);fill:url(#SVGID_10_);}
	.st7{opacity:0.56;clip-path:url(#SVGID_5_);}
	.st8{fill:url(#SVGID_11_);}
	.st9{opacity:0.26;clip-path:url(#SVGID_5_);}
	.st10{fill:url(#SVGID_12_);}
	.st11{clip-path:url(#SVGID_5_);fill:url(#SVGID_13_);}
	.st12{clip-path:url(#SVGID_5_);fill:url(#SVGID_14_);}
	.st13{opacity:0.56;clip-path:url(#SVGID_5_);fill:url(#SVGID_15_);}
	.st14{opacity:0.56;clip-path:url(#SVGID_5_);fill:url(#SVGID_16_);}
	.st15{opacity:0.74;clip-path:url(#SVGID_5_);fill:url(#SVGID_17_);}
	.st16{opacity:0.91;clip-path:url(#SVGID_5_);fill:url(#SVGID_18_);}
	.st17{fill:#FFFFFF;}
	.st18{clip-path:url(#SVGID_20_);fill:url(#SVGID_21_);}
	.st19{clip-path:url(#SVGID_23_);fill:url(#SVGID_24_);}
	.st20{clip-path:url(#SVGID_26_);fill:url(#SVGID_27_);}
	.st21{clip-path:url(#SVGID_29_);fill:url(#SVGID_30_);}
	.st22{clip-path:url(#SVGID_32_);fill:url(#SVGID_33_);}
	.st23{fill:#F1F1F2;}
	.st24{fill:#EE4135;}
	.st25{fill:#EE4034;}
</style>
<g>
	<g>
		<g>
			<g>
				<g>
					<g>
						<g>
							<g>
								<g>
									
										<linearGradient id="SVGID_1_" gradientUnits="userSpaceOnUse" x1="293.911" y1="2701.3271" x2="1893.911" y2="2701.3271" gradientTransform="matrix(1 0 0 1 -293.911 -2250.9883)">
										<stop  offset="0" style="stop-color:#EDC336"/>
										<stop  offset="1" style="stop-color:#D9176B"/>
									</linearGradient>
									<rect y="0.7" class="st0" width="1600" height="899.2"/>
								</g>
							</g>
						</g>
					</g>
				</g>
			</g>
		</g>
		<g>
			<defs>
				<rect id="SVGID_2_" x="1.5" width="1597.1" height="898.2"/>
			</defs>
			<clipPath id="SVGID_3_">
				<use xlink:href="#SVGID_2_"  style="overflow:visible;"/>
			</clipPath>
			<g class="st1">
				<defs>
					<rect id="SVGID_4_" x="-86.6" y="-699.3" width="1773.1" height="1599"/>
				</defs>
				<clipPath id="SVGID_5_">
					<use xlink:href="#SVGID_4_"  style="overflow:visible;"/>
				</clipPath>
				
					<linearGradient id="SVGID_6_" gradientUnits="userSpaceOnUse" x1="2935.6682" y1="1375.6195" x2="1829.1835" y2="-540.8683" gradientTransform="matrix(0 1 -1 0 975.4406 -2581.5918)">
					<stop  offset="0" style="stop-color:#EDC336"/>
					<stop  offset="1" style="stop-color:#D9176B"/>
				</linearGradient>
				<path class="st2" d="M1544.2-704c0,0-568.4,523.1-673.2,1091.5c-140.2,760.4-1096,829.9-970.9,308.3
					C-43.4,460.3,38.5-1004.4,38.5-1004.4L1544.2-704z"/>
				
					<linearGradient id="SVGID_7_" gradientUnits="userSpaceOnUse" x1="3207.5845" y1="1264.7285" x2="1584.1031" y2="-358.7527" gradientTransform="matrix(0 1 -1 0 975.4406 -2581.5918)">
					<stop  offset="0" style="stop-color:#EDC336"/>
					<stop  offset="1" style="stop-color:#D9176B"/>
				</linearGradient>
				<path class="st3" d="M1627.7-704c0,0-568.4,523.1-673.2,1091.5c-140.2,760.4-1096,829.9-970.9,308.3
					c56.5-235.4,138.3-1700.1,138.3-1700.1L1627.7-704z"/>
				
					<linearGradient id="SVGID_8_" gradientUnits="userSpaceOnUse" x1="3199.5803" y1="1132.6526" x2="1576.099" y2="-490.8287" gradientTransform="matrix(0 1 -1 0 975.4406 -2581.5918)">
					<stop  offset="0" style="stop-color:#EDC336"/>
					<stop  offset="1" style="stop-color:#D9176B"/>
				</linearGradient>
				<path class="st4" d="M1759.7-712c0,0-568.4,523.1-673.2,1091.5c-140.2,760.4-1096,829.9-970.9,308.3
					C172.1,452.3,254-1012.4,254-1012.4L1759.7-712z"/>
				
					<linearGradient id="SVGID_9_" gradientUnits="userSpaceOnUse" x1="3303.6331" y1="886.511" x2="1680.1517" y2="-736.9702" gradientTransform="matrix(0 1 -1 0 975.4406 -2581.5918)">
					<stop  offset="0" style="stop-color:#EDC336"/>
					<stop  offset="1" style="stop-color:#D9176B"/>
				</linearGradient>
				<path class="st5" d="M2005.9-608c0,0-568.4,523.1-673.2,1091.5c-140.2,760.4-1096,829.9-970.9,308.3
					C418.3,556.3,500.1-908.3,500.1-908.3L2005.9-608z"/>
				
					<linearGradient id="SVGID_10_" gradientUnits="userSpaceOnUse" x1="2595.7993" y1="1130.6675" x2="2595.7993" y2="-524.6505" gradientTransform="matrix(0 1 -1 0 975.4406 -2581.5918)">
					<stop  offset="0" style="stop-color:#EDC336"/>
					<stop  offset="0.2029" style="stop-color:#EDC037"/>
					<stop  offset="0.3569" style="stop-color:#ECB63A"/>
					<stop  offset="0.4947" style="stop-color:#EAA63F"/>
					<stop  offset="0.6231" style="stop-color:#E78F46"/>
					<stop  offset="0.745" style="stop-color:#E4714F"/>
					<stop  offset="0.8619" style="stop-color:#DF4D5A"/>
					<stop  offset="0.9729" style="stop-color:#DA2367"/>
					<stop  offset="1" style="stop-color:#D9176B"/>
				</linearGradient>
				<path class="st6" d="M1500.1-704c0,0-568.4,523.1-673.2,1091.5c-140.2,760.4-1096,829.9-970.9,308.3
					C-87.5,460.3-5.7-1004.4-5.7-1004.4L1500.1-704z"/>
				<g class="st7">
					
						<linearGradient id="SVGID_11_" gradientUnits="userSpaceOnUse" x1="1044.9048" y1="2472.4009" x2="2459.9509" y2="2472.4009" gradientTransform="matrix(1 0 0 1 -293.911 -2250.9883)">
						<stop  offset="0" style="stop-color:#EDC336"/>
						<stop  offset="1" style="stop-color:#D9176B"/>
					</linearGradient>
					<path class="st8" d="M751,1212.4c0,0,161.4-827.3,653-777.8c491.6,49.5,500.1-1001.2,527.4-1204.2H2166v1855.7v126.3
						L751,1212.4z"/>
				</g>
				<g class="st9">
					
						<linearGradient id="SVGID_12_" gradientUnits="userSpaceOnUse" x1="1017.8893" y1="2348.3384" x2="2432.9355" y2="2348.3384" gradientTransform="matrix(1 0 0 1 -293.911 -2250.9883)">
						<stop  offset="0" style="stop-color:#EDC336"/>
						<stop  offset="1" style="stop-color:#D9176B"/>
					</linearGradient>
					<path class="st10" d="M724,1088.4c0,0,161.4-827.3,653-777.8C1868.6,360,1877-690.7,1904.3-893.7H2139V962v126.3L724,1088.4z"
						/>
				</g>
				
					<linearGradient id="SVGID_13_" gradientUnits="userSpaceOnUse" x1="1057.3794" y1="2542.7205" x2="2472.425" y2="2542.7205" gradientTransform="matrix(1 0 0 1 -293.911 -2250.9883)">
					<stop  offset="0" style="stop-color:#EDC336"/>
					<stop  offset="1" style="stop-color:#D9176B"/>
				</linearGradient>
				<path class="st11" d="M763.5,1282.8c0,0,161.4-827.3,653-777.8c491.6,49.5,500.1-1001.2,527.4-1204.2h234.7v1855.7v126.3
					L763.5,1282.8z"/>
				
					<linearGradient id="SVGID_14_" gradientUnits="userSpaceOnUse" x1="152.9665" y1="1982.7205" x2="1533.0848" y2="1982.7205" gradientTransform="matrix(1 0 0 1 -293.911 -2250.9883)">
					<stop  offset="0" style="stop-color:#EDC336"/>
					<stop  offset="1" style="stop-color:#D9176B"/>
				</linearGradient>
				<path class="st12" d="M-140.9-900.6V337.6c0,0,304.1,326,624.6-417.3c320.5-743.3,450.3-653.4,755.5-865.6L-140.9-900.6z"/>
				
					<linearGradient id="SVGID_15_" gradientUnits="userSpaceOnUse" x1="175.8302" y1="2047.2894" x2="1555.9485" y2="2047.2894" gradientTransform="matrix(1 0 0 1 -293.911 -2250.9883)">
					<stop  offset="0" style="stop-color:#EDC336"/>
					<stop  offset="1" style="stop-color:#D9176B"/>
				</linearGradient>
				<path class="st13" d="M-118.1-836V402.1c0,0,304.1,326,624.6-417.3C827-758.5,956.8-668.5,1262-880.7L-118.1-836z"/>
				
					<linearGradient id="SVGID_16_" gradientUnits="userSpaceOnUse" x1="-64.3079" y1="1871.2003" x2="1315.8104" y2="1871.2003" gradientTransform="matrix(1 0 0 1 -293.911 -2250.9883)">
					<stop  offset="0" style="stop-color:#EDC336"/>
					<stop  offset="1" style="stop-color:#D9176B"/>
				</linearGradient>
				<path class="st14" d="M-358.2-1012.1V226c0,0,304.1,326,624.6-417.3c320.5-743.3,450.3-653.4,755.5-865.6L-358.2-1012.1z"/>
				
					<linearGradient id="SVGID_17_" gradientUnits="userSpaceOnUse" x1="78.7948" y1="1997.069" x2="1458.9131" y2="1997.069" gradientTransform="matrix(1 0 0 1 -293.911 -2250.9883)">
					<stop  offset="0" style="stop-color:#EDC336"/>
					<stop  offset="1" style="stop-color:#D9176B"/>
				</linearGradient>
				<path class="st15" d="M-215.1-886.2V351.9c0,0,304.1,326,624.6-417.3C730-808.7,859.8-718.8,1165-930.9L-215.1-886.2z"/>
				
					<linearGradient id="SVGID_18_" gradientUnits="userSpaceOnUse" x1="23.3451" y1="1946.8488" x2="1403.4635" y2="1946.8488" gradientTransform="matrix(1 0 0 1 -293.911 -2250.9883)">
					<stop  offset="0" style="stop-color:#EDC336"/>
					<stop  offset="1" style="stop-color:#D9176B"/>
				</linearGradient>
				<path class="st16" d="M-270.6-936.4V301.7c0,0,304.1,326,624.6-417.3C674.5-858.9,804.3-769,1109.6-981.2L-270.6-936.4z"/>
			</g>
		</g>
	</g>
	<g>
		<g>
			<g>
				<g>
					<path class="st17" d="M460.2,556.5c-9,0-17-4.6-21.4-12.4L224.9,169.7c-2.2-3.8-2.2-8.5,0-12.3c2.2-3.8,6.3-6.1,10.6-6.1h135.7
						c25.7,0,49.7,13.9,62.4,36.2l83.7,146.4l38.4-67.2l-49.7-86.9c-3.4-6-3.4-13.1,0.1-19c3.4-5.9,9.6-9.5,16.5-9.5h162.2
						c4.4,0,8.4,2.3,10.6,6.1c2.2,3.8,2.2,8.5,0,12.3L481.6,544.1C477.2,551.8,469.2,556.5,460.2,556.5z"/>
					<path class="st17" d="M684.9,161.3c1.7,0,2.8,1.9,2,3.4L472.9,539.1c-2.8,4.9-7.8,7.4-12.7,7.4s-9.9-2.5-12.7-7.4L233.6,164.7
						c-0.9-1.5,0.2-3.4,2-3.4h135.7c22.2,0,42.7,11.9,53.7,31.2l84.6,148c1.7,3,4.8,4.5,7.8,4.5c3,0,6.1-1.5,7.8-4.5l40.6-71
						c1-1.7,1-3.9,0-5.6l-50.9-89.1c-3.4-6,0.9-13.5,7.8-13.5H684.9 M684.9,141.2H522.7c-10.3,0-20,5.6-25.2,14.5
						c-5.2,8.9-5.2,20.1-0.1,29l46.8,81.9l-26.8,47l-74.9-131.1c-14.6-25.5-41.8-41.3-71.2-41.3H235.5c-7.9,0-15.4,4.3-19.3,11.1
						c-4,6.9-4,15.4-0.1,22.3l213.9,374.4c6.2,10.8,17.7,17.5,30.2,17.5c12.4,0,24-6.7,30.2-17.5l213.9-374.4
						c3.9-6.9,3.9-15.4-0.1-22.3C700.2,145.5,692.8,141.2,684.9,141.2L684.9,141.2z"/>
				</g>
				<g>
					<path class="st17" d="M1146.3,556.5c-9,0-17-4.6-21.4-12.4L910.9,169.7c-2.2-3.8-2.2-8.5,0-12.3c2.2-3.8,6.3-6.1,10.6-6.1
						h135.7c25.7,0,49.7,13.9,62.4,36.2l83.7,146.4l38.4-67.2l-49.7-86.9c-3.4-6-3.4-13.1,0.1-19s9.6-9.5,16.5-9.5h162.2
						c4.4,0,8.4,2.3,10.6,6.1c2.2,3.8,2.2,8.5,0.1,12.3l-213.9,374.4C1163.2,551.8,1155.2,556.5,1146.3,556.5z"/>
					<path class="st17" d="M1370.9,161.3c1.7,0,2.8,1.9,2,3.4l-213.9,374.4c-2.8,4.9-7.8,7.4-12.7,7.4s-9.9-2.5-12.7-7.4
						L919.6,164.7c-0.9-1.5,0.2-3.4,2-3.4h135.7c22.2,0,42.7,11.9,53.7,31.2l84.6,148c1.7,3,4.8,4.5,7.8,4.5s6.1-1.5,7.8-4.5
						l40.6-71c1-1.7,1-3.9,0-5.6l-50.9-89.1c-3.4-6,0.9-13.5,7.8-13.5H1370.9 M1370.9,141.2h-162.2c-10.3,0-20,5.6-25.2,14.5
						c-5.2,8.9-5.2,20.1-0.1,29l46.8,81.9l-26.8,47l-74.9-131.1c-14.6-25.5-41.8-41.3-71.2-41.3H921.6c-7.9,0-15.4,4.3-19.3,11.1
						c-4,6.9-4,15.4-0.1,22.3l213.9,374.4c6.2,10.8,17.7,17.5,30.2,17.5c12.4,0,24-6.7,30.2-17.5l213.9-374.4
						c3.9-6.9,3.9-15.5-0.1-22.3C1386.3,145.5,1378.9,141.2,1370.9,141.2L1370.9,141.2z"/>
				</g>
				<g>
					<path class="st17" d="M803.2,556.5c-43.2,0-84.5-13.4-119.3-38.8c-25.3-18.4-46.2-42.8-60.6-70.5
						c-14.9-28.6-22.7-60.9-22.7-93.3c0-49.8,18.3-97.7,51.4-134.9c38.4-43.1,93.5-67.8,151.2-67.8c43.8,0,85.4,13.7,120.5,39.7
						c34.4,25.5,59.4,60.3,72.4,100.8c0,0,0,0.1,0,0.1c6.4,20,9.7,40.8,9.7,62C1005.8,465.6,915,556.5,803.2,556.5z"/>
					<path class="st17" d="M803.2,161.3c85.8,0,158.4,56.1,183.3,133.5c0,0,0,0.1,0,0.1c6,18.6,9.2,38.4,9.2,58.9
						c0,106.3-86.2,192.6-192.6,192.6c-42.4,0-81.6-13.7-113.4-36.9c-48-35-79.2-91.7-79.2-155.7c0-49.2,18.5-94.1,48.9-128.2
						c0.3-0.3,0.5-0.6,0.8-0.8c0.3-0.3,0.6-0.5,0.8-0.8c-0.3,0.3-0.6,0.5-0.8,0.8s-0.5,0.5-0.8,0.8
						C694.8,186.2,746.1,161.3,803.2,161.3 M803.2,141.2c-30.8,0-60.6,6.5-88.4,19.2c-26.9,12.3-50.5,29.8-70.3,51.9c0,0,0,0,0,0
						c-34.8,39-54,89.3-54,141.6c0,34.1,8.3,67.9,23.9,98c15.1,29,37.1,54.6,63.6,73.9c36.6,26.7,79.9,40.8,125.2,40.8
						c28.7,0,56.6-5.6,82.8-16.7c25.3-10.7,48.1-26,67.6-45.6c19.5-19.5,34.9-42.3,45.6-67.6c11.1-26.2,16.7-54.1,16.7-82.8
						c0-22.2-3.4-44.1-10.1-65c0-0.1-0.1-0.2-0.1-0.3c-6.8-21.1-16.9-40.9-29.9-59c-12.9-17.9-28.4-33.6-46.1-46.7
						C892.9,155.6,849.2,141.2,803.2,141.2L803.2,141.2z"/>
				</g>
			</g>
			<g>
				<g>
					<g>
						<path class="st17" d="M551.5,749.4c-5.6,0-10.1-4.5-10.1-10.1v-17l-4.8,8c-1.8,3-5.1,4.8-8.6,4.8h-2.3c-3.5,0-6.8-1.8-8.6-4.8
							l-4.8-8v17c0,5.6-4.5,10.1-10.1,10.1h-20.8c-5.6,0-10.1-4.5-10.1-10.1v-90.8c0-5.6,4.5-10.1,10.1-10.1h20.8
							c3.5,0,6.8,1.8,8.6,4.8l16.1,26.3l16.1-26.3c1.8-3,5.1-4.8,8.6-4.8h20.8c5.6,0,10.1,4.5,10.1,10.1v90.8
							c0,5.6-4.5,10.1-10.1,10.1H551.5z"/>
						<path class="st17" d="M572.3,648.5v90.8h-20.8v-52.8L528,725.1h-2.3l-23.5-38.5v52.8h-20.8v-90.8h20.8l24.7,40.4l24.7-40.4
							H572.3 M572.3,628.4h-20.8c-7,0-13.5,3.6-17.2,9.6l-7.5,12.3l-7.5-12.3c-3.7-6-10.2-9.6-17.2-9.6h-20.8
							c-11.1,0-20.1,9-20.1,20.1v90.8c0,11.1,9,20.1,20.1,20.1h20.8c9.2,0,17-6.2,19.4-14.7c1.3,0.3,2.7,0.4,4.1,0.4h2.3
							c1.4,0,2.8-0.1,4.1-0.4c2.4,8.5,10.1,14.7,19.4,14.7h20.8c11.1,0,20.1-9,20.1-20.1v-90.8C592.4,637.4,583.4,628.4,572.3,628.4
							L572.3,628.4z"/>
					</g>
					<g>
						<path class="st17" d="M652.7,749.4c-5.6,0-10.1-4.5-10.1-10.1v-90.8c0-5.6,4.5-10.1,10.1-10.1h56.4c5.6,0,10.1,4.5,10.1,10.1
							v20c0,3.9-2.2,7.2-5.4,8.9c1.3,1.7,2.1,3.8,2.1,6.2v19.7c0,2.6-1,4.9-2.6,6.7c3.8,1.4,6.5,5.1,6.5,9.4v20
							c0,5.6-4.5,10.1-10.1,10.1H652.7z"/>
						<path class="st17" d="M709.2,648.5v20h-35.7v15.1h32.4v19.7h-32.4v16.1h36.3v20h-57.1v-90.8H709.2 M709.2,628.4h-56.4
							c-11.1,0-20.1,9-20.1,20.1v90.8c0,11.1,9,20.1,20.1,20.1h57.1c11.1,0,20.1-9,20.1-20.1v-20c0-4.7-1.6-8.9-4.2-12.4
							c0.2-1.2,0.3-2.5,0.3-3.7v-19.7c0-1.2-0.1-2.4-0.3-3.6c2.2-3.2,3.6-7.2,3.6-11.4v-20C729.3,637.4,720.3,628.4,709.2,628.4
							L709.2,628.4z"/>
					</g>
					<g>
						<path class="st17" d="M786.4,749.4c-5.6,0-10.1-4.5-10.1-10.1v-90.8c0-5.6,4.5-10.1,10.1-10.1h36.3c15.2,0,28.2,5.4,38.6,16.2
							c10.3,10.6,15.6,23.9,15.6,39.3c0,15.5-5.2,28.8-15.6,39.4c-10.3,10.6-23.3,16-38.6,16H786.4z M822.7,709.3
							c4.4,0,7.6-1.2,10.2-3.8c2.6-2.7,3.9-6.5,3.9-11.5c0-5.1-1.2-8.8-3.8-11.3c-0.1-0.1-0.1-0.1-0.2-0.2
							c-2.5-2.6-5.7-3.9-10.1-3.9h-5.5v30.8H822.7z"/>
						<path class="st17" d="M822.7,648.5c12.6,0,23,4.4,31.4,13.1c8.4,8.7,12.7,19.5,12.7,32.3c0,12.8-4.3,23.7-12.7,32.4
							c-8.4,8.7-18.8,13-31.4,13h-36.3v-90.8H822.7 M807.1,719.4h15.6c7.1,0,13-2.3,17.4-6.9c4.5-4.7,6.7-10.9,6.7-18.6
							c0-7.7-2.2-13.9-6.7-18.4c-4.4-4.7-10.3-7-17.4-7h-15.6V719.4 M822.7,628.4h-36.3c-11.1,0-20.1,9-20.1,20.1v90.8
							c0,11.1,9,20.1,20.1,20.1h36.3c18.1,0,33.6-6.4,45.8-19.1c12-12.4,18.4-28.5,18.4-46.4c0-17.9-6.4-33.9-18.4-46.3
							C856.2,634.9,840.7,628.4,822.7,628.4L822.7,628.4z"/>
					</g>
					<g>
						<path class="st17" d="M943.4,749.4c-5.6,0-10.1-4.5-10.1-10.1v-90.8c0-5.6,4.5-10.1,10.1-10.1h20.8c5.6,0,10.1,4.5,10.1,10.1
							v90.8c0,5.6-4.5,10.1-10.1,10.1H943.4z"/>
						<path class="st17" d="M964.1,648.5v90.8h-20.8v-90.8H964.1 M964.1,628.4h-20.8c-11.1,0-20.1,9-20.1,20.1v90.8
							c0,11.1,9,20.1,20.1,20.1h20.8c11.1,0,20.1-9,20.1-20.1v-90.8C984.2,637.4,975.2,628.4,964.1,628.4L964.1,628.4z"/>
					</g>
					<g>
						<path class="st17" d="M1102.3,749.4c-4.4,0-8.3-2.8-9.6-7l-2.3-7.3h-19l-2.3,7.3c-1.3,4.2-5.2,7-9.6,7h-22.7
							c-3.2,0-6.3-1.6-8.2-4.2c-1.9-2.6-2.4-6-1.3-9.1l30.9-90.8c1.4-4.1,5.2-6.8,9.5-6.8h26.5c4.3,0,8.1,2.7,9.5,6.8l30.9,90.8
							c1,3.1,0.5,6.5-1.3,9.1c-1.9,2.6-4.9,4.2-8.2,4.2H1102.3z"/>
						<path class="st17" d="M1094.2,648.5l30.9,90.8h-22.7l-4.5-14.3H1064l-4.5,14.3h-22.7l30.9-90.8H1094.2 M1070.3,705.6h21.3
							l-10.6-33.3L1070.3,705.6 M1094.2,628.4h-26.5c-8.6,0-16.3,5.5-19,13.6l-30.9,90.8c-2.1,6.1-1.1,12.9,2.7,18.2
							s9.9,8.4,16.3,8.4h22.7c8.8,0,16.5-5.7,19.2-14l0.1-0.3h4.3l0.1,0.3c2.7,8.3,10.4,14,19.2,14h22.7c6.5,0,12.6-3.1,16.3-8.4
							c3.8-5.3,4.8-12,2.7-18.2l-30.9-90.8C1110.4,633.9,1102.8,628.4,1094.2,628.4L1094.2,628.4z"/>
					</g>
				</g>
			</g>
		</g>
		<g>
			<g>
				<g>
					<defs>
						<path id="SVGID_19_" d="M522.7,161.3c-6.9,0-11.2,7.5-7.8,13.5l50.9,89.1c1,1.7,1,3.9,0,5.6l-40.6,71c-3.5,6-12.2,6-15.6,0
							l-84.6-148c-11-19.3-31.5-31.2-53.7-31.2H235.5c-1.7,0-2.8,1.9-2,3.4l213.9,374.4c5.6,9.8,19.8,9.8,25.4,0l213.9-374.4
							c0.9-1.5-0.2-3.4-2-3.4H522.7z"/>
					</defs>
					<clipPath id="SVGID_20_">
						<use xlink:href="#SVGID_19_"  style="overflow:visible;"/>
					</clipPath>
					
						<linearGradient id="SVGID_21_" gradientUnits="userSpaceOnUse" x1="502.0289" y1="870.9332" x2="504.7162" y2="870.9332" gradientTransform="matrix(165.56 0 0 -165.56 -82880.8438 144546.7656)">
						<stop  offset="0" style="stop-color:#CD1627"/>
						<stop  offset="0.1301" style="stop-color:#D6222B"/>
						<stop  offset="0.3813" style="stop-color:#E43330"/>
						<stop  offset="0.6569" style="stop-color:#EB3D33"/>
						<stop  offset="1" style="stop-color:#EE4034"/>
					</linearGradient>
					<rect x="232.7" y="161.3" class="st18" width="455" height="387.6"/>
				</g>
				<g>
					<defs>
						<path id="SVGID_22_" d="M1208.7,161.3c-6.9,0-11.2,7.5-7.8,13.5l50.9,89.1c1,1.7,1,3.9,0,5.6l-40.6,71c-3.5,6-12.2,6-15.6,0
							l-84.6-148c-11-19.3-31.5-31.2-53.7-31.2H921.6c-1.7,0-2.8,1.9-2,3.4l213.9,374.4c5.6,9.8,19.8,9.8,25.4,0l213.9-374.4
							c0.9-1.5-0.2-3.4-2-3.4H1208.7z"/>
					</defs>
					<clipPath id="SVGID_23_">
						<use xlink:href="#SVGID_22_"  style="overflow:visible;"/>
					</clipPath>
					
						<linearGradient id="SVGID_24_" gradientUnits="userSpaceOnUse" x1="504.6148" y1="870.9341" x2="507.3021" y2="870.9341" gradientTransform="matrix(168.0458 0 0 -168.0458 -83879.0859 146711.9688)">
						<stop  offset="0" style="stop-color:#CD1627"/>
						<stop  offset="0.1301" style="stop-color:#D6222B"/>
						<stop  offset="0.3813" style="stop-color:#E43330"/>
						<stop  offset="0.6569" style="stop-color:#EB3D33"/>
						<stop  offset="1" style="stop-color:#EE4034"/>
					</linearGradient>
					<rect x="918.8" y="161.3" class="st19" width="455" height="387.6"/>
				</g>
				<g>
					<defs>
						<path id="SVGID_25_" d="M659.5,225.7c7.4-8.1,19.5-10,29.1-4.5l218.5,124.9c6,3.5,6,12.2,0,15.6l68.6-39.2
							c9.6-5.5,14.2-16.9,10.8-27.5c0,0,0-0.1,0-0.1c-24.9-77.5-97.6-133.5-183.3-133.5C746.1,161.3,694.8,186.2,659.5,225.7"/>
					</defs>
					<clipPath id="SVGID_26_">
						<use xlink:href="#SVGID_25_"  style="overflow:visible;"/>
					</clipPath>
					
						<linearGradient id="SVGID_27_" gradientUnits="userSpaceOnUse" x1="503.2146" y1="871.5117" x2="505.9019" y2="871.5117" gradientTransform="matrix(92.0204 53.9534 53.9534 -92.0204 -92635.9688 53229.8906)">
						<stop  offset="0" style="stop-color:#09446D"/>
						<stop  offset="0.1006" style="stop-color:#094977"/>
						<stop  offset="0.4771" style="stop-color:#075B98"/>
						<stop  offset="0.7904" style="stop-color:#0666AD"/>
						<stop  offset="1" style="stop-color:#066AB4"/>
					</linearGradient>
					<polygon class="st20" points="744.1,17.2 1077.4,212.6 905.4,505.9 572.1,310.4 					"/>
				</g>
				<g>
					<defs>
						<path id="SVGID_28_" d="M659.5,225.7c-30.4,34-48.9,78.9-48.9,128.2c0,64,31.2,120.6,79.2,155.7c-8.6-6.2-7.8-19.2,1.4-24.5
							l68.1-38.9c-6,3.4-13.5-0.9-13.5-7.8V269.4c0-6.9,7.5-11.2,13.5-7.8l-70.7-40.4c-3.7-2.1-7.7-3.1-11.8-3.1
							C670.4,218.1,664.1,220.7,659.5,225.7"/>
					</defs>
					<clipPath id="SVGID_29_">
						<use xlink:href="#SVGID_28_"  style="overflow:visible;"/>
					</clipPath>
					
						<linearGradient id="SVGID_30_" gradientUnits="userSpaceOnUse" x1="503.0093" y1="871.4058" x2="505.6965" y2="871.4058" gradientTransform="matrix(0 -107.9483 -107.9483 0 94751.8281 54807.5547)">
						<stop  offset="0" style="stop-color:#09446D"/>
						<stop  offset="0.1006" style="stop-color:#094977"/>
						<stop  offset="0.4771" style="stop-color:#075B98"/>
						<stop  offset="0.7904" style="stop-color:#0666AD"/>
						<stop  offset="1" style="stop-color:#066AB4"/>
					</linearGradient>
					<rect x="610.7" y="218.1" class="st21" width="148.7" height="291.5"/>
				</g>
				<g>
					<defs>
						<path id="SVGID_31_" d="M975.8,322.5L691.3,485c-9.2,5.3-10,18.3-1.4,24.5c31.8,23.2,71,36.9,113.4,36.9
							c106.3,0,192.6-86.2,192.6-192.6c0-20.5-3.2-40.3-9.2-58.9C989.9,305.5,985.4,317,975.8,322.5"/>
					</defs>
					<clipPath id="SVGID_32_">
						<use xlink:href="#SVGID_31_"  style="overflow:visible;"/>
					</clipPath>
					
						<linearGradient id="SVGID_33_" gradientUnits="userSpaceOnUse" x1="502.9601" y1="871.4638" x2="505.6473" y2="871.4638" gradientTransform="matrix(-104.9093 59.6484 59.6484 104.9093 1768.1907 -121087.6875)">
						<stop  offset="0" style="stop-color:#09446D"/>
						<stop  offset="0.1006" style="stop-color:#094977"/>
						<stop  offset="0.4771" style="stop-color:#075B98"/>
						<stop  offset="0.7904" style="stop-color:#0666AD"/>
						<stop  offset="1" style="stop-color:#066AB4"/>
					</linearGradient>
					<polygon class="st22" points="1103.8,485 758.1,681.6 573.3,356.4 919,159.9 					"/>
				</g>
				<path class="st23" d="M745.9,438.3V269.4c0-6.9,7.5-11.2,13.5-7.8l147.8,84.4c6,3.5,6,12.2,0,15.6l-147.8,84.4
					C753.4,449.6,745.9,445.2,745.9,438.3"/>
				<path class="st24" d="M760.6,275.2l134.2,76.7c1.5,0.9,1.5,3,0,3.9l-134.2,76.7c-1.5,0.9-3.4-0.2-3.4-2V277.2
					C757.2,275.5,759.1,274.4,760.6,275.2"/>
			</g>
			<g>
				<g>
					<path class="st25" d="M572.3,648.5v90.8h-20.8v-52.8L528,725.1h-2.3l-23.5-38.5v52.8h-20.8v-90.8h20.8l24.7,40.4l24.7-40.4
						H572.3z"/>
					<path class="st25" d="M673.5,719.4h36.3v20h-57.1v-90.8h56.4v20h-35.7v15.1h32.4v19.7h-32.4V719.4z"/>
					<path class="st25" d="M822.7,648.5c12.6,0,23,4.4,31.4,13.1c8.4,8.7,12.7,19.5,12.7,32.3c0,12.8-4.3,23.7-12.7,32.4
						c-8.4,8.7-18.8,13-31.4,13h-36.3v-90.8H822.7z M822.7,719.4c7.1,0,13-2.3,17.4-6.9c4.5-4.7,6.7-10.9,6.7-18.6
						c0-7.7-2.2-13.9-6.7-18.4c-4.4-4.7-10.3-7-17.4-7h-15.6v50.9H822.7z"/>
					<path class="st25" d="M943.4,648.5h20.8v90.8h-20.8V648.5z"/>
					<path class="st25" d="M1102.3,739.4l-4.5-14.3H1064l-4.5,14.3h-22.7l30.9-90.8h26.5l30.9,90.8H1102.3z M1070.3,705.6h21.3
						l-10.6-33.3L1070.3,705.6z"/>
				</g>
			</g>
		</g>
	</g>
</g>
</svg>
