<?xml version="1.0" encoding="utf-8"?>
<!-- Generator: Adobe Illustrator 23.0.0, SVG Export Plug-In . SVG Version: 6.00 Build 0)  -->
<svg version="1.1" id="Layer_1" xmlns="http://www.w3.org/2000/svg" xmlns:xlink="http://www.w3.org/1999/xlink" x="0px" y="0px"
	 viewBox="0 0 416.8 181.8" style="enable-background:new 0 0 416.8 181.8;" xml:space="preserve">
<style type="text/css">
	.st0{fill:#FFFFFF;}
	.st1{fill-rule:evenodd;clip-rule:evenodd;fill:#1288C9;}
	.st2{fill:#EB2027;}
	.st3{fill:#01A54E;}
</style>
<g>
	<path class="st0" d="M410.3,0H362c-3.6,0-6.5,2.9-6.5,6.5v7.6c0,2.9,1.9,5.4,4.7,6.2c4.1,1.2,6,2.6,6.7,3.5c1,1.2,1.5,3,1.5,5.4
		c0,1.2-0.1,2.4-0.3,3.7c-0.2,1.4-0.6,2.9-1.1,4.6l-13,37.7L338,33.9c-0.6-1.8-1-3.4-1.3-4.7c-0.2-1.1-0.4-2.1-0.4-3
		c0-1.7,0.5-2.5,1.1-3c0.6-0.6,2.2-1.8,6.1-2.7c2.9-0.7,5-3.3,5-6.3V6.5c0-3.6-2.9-6.5-6.5-6.5h-92.3c-3.6,0-6.5,2.9-6.5,6.5v7.6
		c0,0.2,0,0.4,0,0.6c-10.7-4.7-22.6-7.3-35-7.3c-12.3,0-24,2.6-34.6,7.2c0-0.2,0-0.3,0-0.5V6.5c0-3.6-2.9-6.5-6.5-6.5h-48.2
		c-3.6,0-6.5,2.9-6.5,6.5v7.6c0,2.9,1.9,5.4,4.7,6.2c4.1,1.2,6,2.6,6.8,3.5c1,1.2,1.5,3,1.5,5.4c0,1.2-0.1,2.4-0.3,3.7
		c-0.2,1.4-0.6,2.9-1.1,4.6l-13,37.7L94.8,33.9c-0.6-1.8-1-3.4-1.3-4.7c-0.2-1.1-0.4-2.2-0.4-3c0-1.7,0.5-2.5,1.1-3
		c0.6-0.6,2.2-1.8,6.1-2.7c2.9-0.7,5-3.3,5-6.3V6.5c0-3.6-2.9-6.5-6.5-6.5H6.5C2.9,0,0,2.9,0,6.5v7.6c0,3.1,2.1,5.7,5.2,6.4
		c2.8,0.6,5.2,2,7.2,4.3c2.4,2.7,4.8,7.1,7.1,13L74,177.7c1,2.5,3.4,4.1,6.1,4.1h17c2.8,0,5.2-1.8,6.1-4.4l20.9-60.4
		c10,37.2,43.9,64.7,84,64.7c40.9,0,75.3-28.2,84.8-66.2l24.2,62.1c1,2.5,3.4,4.1,6.1,4.1h17c2.8,0,5.2-1.8,6.1-4.4l44.9-129.6
		c3.1-9.2,6.5-16.3,10.2-20.9c3.1-3.9,6.2-6,9.6-6.4c3.2-0.4,5.7-3.2,5.7-6.4V6.5C416.8,2.9,413.9,0,410.3,0z"/>
	<path class="st1" d="M208.2,13.9c-44.3,0-80.5,36.2-80.5,80.5c0,44.6,36.2,80.9,80.5,80.9c44.6,0,80.9-36.3,80.9-80.9
		C289.1,50.2,252.8,13.9,208.2,13.9 M210.9,167.9c-41.6,0-75.7-34.1-75.7-76.1c0-41.6,34.1-75.7,75.7-75.7c42,0,76.1,34.1,76.1,75.7
		C286.9,133.8,252.8,167.9,210.9,167.9"/>
	<path class="st1" d="M212.8,17.9c-38.9,0-70.8,31.9-70.8,70.8c0,39.3,31.9,71.1,70.8,71.1c39.2,0,71.1-31.9,71.1-71.1
		C283.9,49.8,252,17.9,212.8,17.9 M215.4,152.9c-36.2,0-66.2-29.8-66.2-66.4c0-36.2,29.9-66,66.2-66c36.6,0,66.5,29.9,66.5,66
		C281.9,123,252,152.9,215.4,152.9"/>
	<path class="st1" d="M218.1,22.4c-33.8,0-61.5,27.6-61.5,61.6c0,33.7,27.7,61.3,61.5,61.3c33.8,0,61.5-27.6,61.5-61.3
		C279.5,50,251.9,22.4,218.1,22.4 M219.9,137.5c-31.1,0-56.6-25.6-56.6-56.6c0-31.1,25.6-56.7,56.6-56.7c31.4,0,56.6,25.6,56.6,56.7
		C276.6,112,251.4,137.5,219.9,137.5"/>
	<path class="st1" d="M222.9,26.8C194.2,26.8,171,50,171,78.7c0,28.4,23.2,51.5,51.9,51.5c28.4,0,51.5-23.2,51.5-51.5
		C274.4,50,251.3,26.8,222.9,26.8 M226,123.5c-25.9,0-47.1-21.1-47.1-46.9c0-25.8,21.2-46.9,47.1-46.9c25.9,0,46.7,21.1,46.7,46.9
		C272.7,102.3,251.9,123.5,226,123.5"/>
	<path class="st1" d="M228.9,33.7c-23,0-41.5,18.7-41.5,41.3c0,22.9,18.4,41.6,41.5,41.6c22.7,0,41.5-18.7,41.5-41.6
		C270.4,52.4,251.6,33.7,228.9,33.7 M230.9,108.9c-19.9,0-36.4-16.5-36.4-36.5c0-20.3,16.5-36.5,36.4-36.5
		c20.2,0,36.7,16.2,36.7,36.5C267.5,92.4,251.1,108.9,230.9,108.9"/>
	<path class="st1" d="M233.4,43.4c-16.1,0-29.4,13.3-29.4,29.4c0,16.1,13.3,29.4,29.4,29.4c16.4,0,29.4-13.3,29.4-29.4
		C262.8,56.7,249.8,43.4,233.4,43.4 M235.9,94.9c-13.2,0-24-10.7-24-24c0-13.5,10.7-24.2,24-24.2c13.5,0,24.2,10.7,24.2,24.2
		C260.1,84.2,249.4,94.9,235.9,94.9"/>
	<path class="st1" d="M239.8,79.5c6.6,0,12.3-5.6,12.3-12.3c0-6.8-5.6-12.5-12.3-12.5c-6.8,0-12.5,5.6-12.5,12.5
		C227.3,73.9,233,79.5,239.8,79.5"/>
	<path class="st2" d="M119.3,94.6c0-4.7,0.4-9.3,1.1-13.8c1.3-9.6,4.3-18.7,8.8-27c5.3-10.3,12.6-19.4,21.3-26.9
		c0.9-1.4,1.8-2.7,2.8-3.9c4.2-5.2,8.8-8.2,13.8-8.8V6.5h-48.2v7.6c4.6,1.3,7.9,3.2,10,5.6c2,2.4,3,5.6,3,9.6c0,1.5-0.1,3.1-0.4,4.8
		c-0.3,1.7-0.7,3.5-1.3,5.4l-18.9,54.6L88.7,36.1c-0.7-2.1-1.2-3.9-1.5-5.5c-0.3-1.6-0.5-3.1-0.5-4.4c0-3.1,1-5.6,3-7.6
		c2-2,5-3.5,9.2-4.5V6.5H6.5v7.6c4.2,0.9,7.7,3,10.7,6.3c3,3.3,5.8,8.3,8.4,15l54.5,139.9h17l23.2-67
		C119.6,103.9,119.3,99.3,119.3,94.6"/>
	<path class="st3" d="M362,6.5v7.6c4.6,1.3,7.9,3.2,10,5.6c2,2.4,3,5.6,3,9.6c0,1.5-0.1,3.1-0.4,4.8c-0.3,1.7-0.7,3.5-1.3,5.4
		l-18.9,54.6l-22.6-58.1c-0.7-2.1-1.2-3.9-1.5-5.5c-0.3-1.6-0.5-3.1-0.5-4.4c0-3.1,1-5.6,2.9-7.6c2-2,5-3.5,9.2-4.5V6.5h-92.3v7.6
		c4.2,0.9,7.7,3,10.7,6.3c1.1,1.2,2.1,2.6,3.1,4.2c9.9,7.8,18.1,17.6,23.9,28.9c4.6,8.4,7.7,17.6,9,27.4c0.7,4.5,1.1,9.1,1.1,13.8
		c0,4.2-0.3,8.3-0.9,12.4l26.6,68.3h17l44.9-129.5c3.4-10,7.1-17.6,11.3-22.9c4.2-5.2,8.8-8.2,13.8-8.8V6.5H362z"/>
</g>
</svg>
