<?xml version="1.0" encoding="utf-8"?>
<!-- Generator: Adobe Illustrator 23.0.0, SVG Export Plug-In . SVG Version: 6.00 Build 0)  -->
<svg version="1.1" id="Layer_1" xmlns="http://www.w3.org/2000/svg" xmlns:xlink="http://www.w3.org/1999/xlink" x="0px" y="0px"
	 viewBox="0 0 2048 2048" style="enable-background:new 0 0 2048 2048;" xml:space="preserve">
<style type="text/css">
	.st0{fill:url(#SVGID_1_);}
	.st1{fill:#FFFFFF;}
	.st2{clip-path:url(#SVGID_3_);fill:url(#SVGID_4_);}
	.st3{clip-path:url(#SVGID_6_);fill:url(#SVGID_7_);}
	.st4{clip-path:url(#SVGID_9_);fill:url(#SVGID_10_);}
	.st5{clip-path:url(#SVGID_12_);fill:url(#SVGID_13_);}
	.st6{clip-path:url(#SVGID_15_);fill:url(#SVGID_16_);}
	.st7{fill:#F1F2F2;}
	.st8{fill:#EF4135;}
	.st9{fill:url(#SVGID_17_);}
	.st10{clip-path:url(#SVGID_19_);fill:url(#SVGID_20_);}
	.st11{clip-path:url(#SVGID_22_);fill:url(#SVGID_23_);}
	.st12{clip-path:url(#SVGID_25_);fill:url(#SVGID_26_);}
	.st13{clip-path:url(#SVGID_28_);fill:url(#SVGID_29_);}
	.st14{clip-path:url(#SVGID_31_);fill:url(#SVGID_32_);}
	.st15{fill:url(#SVGID_33_);}
	.st16{clip-path:url(#SVGID_35_);fill:url(#SVGID_36_);}
	.st17{clip-path:url(#SVGID_38_);fill:url(#SVGID_39_);}
	.st18{clip-path:url(#SVGID_41_);fill:url(#SVGID_42_);}
	.st19{clip-path:url(#SVGID_44_);fill:url(#SVGID_45_);}
	.st20{clip-path:url(#SVGID_47_);fill:url(#SVGID_48_);}
	.st21{fill:url(#SVGID_49_);}
	.st22{clip-path:url(#SVGID_51_);fill:url(#SVGID_52_);}
	.st23{clip-path:url(#SVGID_54_);fill:url(#SVGID_55_);}
	.st24{clip-path:url(#SVGID_57_);fill:url(#SVGID_58_);}
	.st25{clip-path:url(#SVGID_60_);fill:url(#SVGID_61_);}
	.st26{clip-path:url(#SVGID_63_);fill:url(#SVGID_64_);}
	.st27{fill:url(#SVGID_65_);}
	.st28{clip-path:url(#SVGID_67_);fill:url(#SVGID_68_);}
	.st29{clip-path:url(#SVGID_70_);fill:url(#SVGID_71_);}
	.st30{clip-path:url(#SVGID_73_);fill:url(#SVGID_74_);}
	.st31{clip-path:url(#SVGID_76_);fill:url(#SVGID_77_);}
	.st32{clip-path:url(#SVGID_79_);fill:url(#SVGID_80_);}
	.st33{fill:url(#SVGID_81_);}
	.st34{clip-path:url(#SVGID_83_);fill:url(#SVGID_84_);}
	.st35{clip-path:url(#SVGID_86_);fill:url(#SVGID_87_);}
	.st36{clip-path:url(#SVGID_89_);fill:url(#SVGID_90_);}
	.st37{clip-path:url(#SVGID_92_);fill:url(#SVGID_93_);}
	.st38{clip-path:url(#SVGID_95_);fill:url(#SVGID_96_);}
	.st39{fill:url(#SVGID_97_);}
	.st40{clip-path:url(#SVGID_99_);fill:url(#SVGID_100_);}
	.st41{clip-path:url(#SVGID_102_);fill:url(#SVGID_103_);}
	.st42{clip-path:url(#SVGID_105_);fill:url(#SVGID_106_);}
	.st43{clip-path:url(#SVGID_108_);fill:url(#SVGID_109_);}
	.st44{clip-path:url(#SVGID_111_);fill:url(#SVGID_112_);}
	.st45{fill:url(#SVGID_113_);}
	.st46{clip-path:url(#SVGID_115_);fill:url(#SVGID_116_);}
	.st47{clip-path:url(#SVGID_118_);fill:url(#SVGID_119_);}
	.st48{clip-path:url(#SVGID_121_);fill:url(#SVGID_122_);}
	.st49{clip-path:url(#SVGID_124_);fill:url(#SVGID_125_);}
	.st50{clip-path:url(#SVGID_127_);fill:url(#SVGID_128_);}
	.st51{fill:url(#SVGID_129_);}
	.st52{clip-path:url(#SVGID_131_);fill:url(#SVGID_132_);}
	.st53{clip-path:url(#SVGID_134_);fill:url(#SVGID_135_);}
	.st54{clip-path:url(#SVGID_137_);fill:url(#SVGID_138_);}
	.st55{clip-path:url(#SVGID_140_);fill:url(#SVGID_141_);}
	.st56{clip-path:url(#SVGID_143_);fill:url(#SVGID_144_);}
</style>
<linearGradient id="SVGID_1_" gradientUnits="userSpaceOnUse" x1="1024" y1="-9.094947e-13" x2="1024" y2="2048">
	<stop  offset="0" style="stop-color:#FFCA31"/>
	<stop  offset="0.2302" style="stop-color:#FFC833"/>
	<stop  offset="0.4048" style="stop-color:#FEC138"/>
	<stop  offset="0.5611" style="stop-color:#FCB53F"/>
	<stop  offset="0.7067" style="stop-color:#FAA446"/>
	<stop  offset="0.8448" style="stop-color:#F7904D"/>
	<stop  offset="0.9757" style="stop-color:#F37652"/>
	<stop  offset="1" style="stop-color:#F37053"/>
</linearGradient>
<rect class="st0" width="2048" height="2048"/>
<g>
	<g>
		<g>
			<g>
				<path class="st1" d="M550.2,1219.7c-14.6,0-27.7-7.6-34.9-20.3L219.8,682.4c-4.1-7.1-4-16,0.1-23.1c4.1-7.1,11.8-11.5,20-11.5
					h187.5c37.7,0,72.8,20.4,91.6,53.1l110.2,192.9l46-80.5l-66.9-117c-5.8-10.2-5.8-22.3,0.1-32.4c5.9-10.1,16.4-16.1,28-16.1
					h224.1c8.2,0,15.9,4.4,20,11.5c4.1,7.1,4.1,15.9,0.1,23.1l-295.5,517.1C577.9,1212.2,564.8,1219.7,550.2,1219.7z"/>
				<path class="st1" d="M860.5,667.8c2.4,0,3.9,2.6,2.7,4.6l-295.5,517.1c-3.9,6.8-10.7,10.2-17.5,10.2s-13.7-3.4-17.5-10.2
					L237.2,672.5c-1.2-2.1,0.3-4.6,2.7-4.6h187.5c30.7,0,59,16.4,74.2,43.1l116.8,204.4c2.4,4.2,6.6,6.3,10.8,6.3s8.4-2.1,10.8-6.3
					l56.1-98.1c1.4-2.4,1.4-5.3,0-7.7l-70.3-123.1c-4.7-8.3,1.3-18.6,10.8-18.6H860.5 M860.5,627.8H636.5c-18.6,0-36,10-45.3,26.1
					c-9.3,16.1-9.4,36.2-0.2,52.3l61.2,107.1l-23,40.2L536.3,691c-22.3-39-64-63.2-108.9-63.2H239.9c-15.3,0-29.6,8.2-37.3,21.5
					c-7.7,13.2-7.7,29.7-0.1,43L498,1209.4c5.5,9.6,13.4,17.4,22.9,22.7c8.9,5,19.1,7.6,29.3,7.6c10.3,0,20.4-2.6,29.3-7.6
					c9.5-5.3,17.5-13.2,22.9-22.7L898,692.3c7.6-13.3,7.5-29.8-0.1-43C890.1,636,875.9,627.8,860.5,627.8L860.5,627.8z"/>
			</g>
			<g>
				<path class="st1" d="M1497.8,1219.7c-14.6,0-27.7-7.6-34.9-20.3l-295.5-517.1c-4.1-7.1-4-16,0.1-23.1c4.1-7.1,11.8-11.5,20-11.5
					h187.5c37.7,0,72.8,20.4,91.6,53.1l110.2,192.9l46-80.5l-66.9-117c-5.8-10.2-5.8-22.3,0.1-32.4c5.9-10.1,16.4-16.1,28-16.1
					h224.1c8.2,0,15.9,4.4,20,11.5s4.2,15.9,0.1,23.1l-295.5,517.1C1525.4,1212.2,1512.4,1219.7,1497.8,1219.7z"/>
				<path class="st1" d="M1808.1,667.8c2.4,0,3.9,2.6,2.7,4.6l-295.5,517.1c-3.9,6.8-10.7,10.2-17.5,10.2s-13.7-3.4-17.5-10.2
					l-295.5-517.1c-1.2-2.1,0.3-4.6,2.7-4.6h187.5c30.7,0,59,16.4,74.2,43.1l116.8,204.4c2.4,4.2,6.6,6.3,10.8,6.3
					c4.2,0,8.4-2.1,10.8-6.3l56.1-98.1c1.4-2.4,1.4-5.3,0-7.7l-70.3-123.1c-4.7-8.3,1.3-18.6,10.8-18.6H1808.1 M1808.1,627.8H1584
					c-18.6,0-36,10-45.3,26.1c-9.3,16.1-9.4,36.1-0.2,52.3l61.2,107.1l-23,40.2L1483.8,691c-22.3-39-64-63.2-108.9-63.2h-187.5
					c-15.3,0-29.6,8.2-37.3,21.5c-7.7,13.2-7.7,29.7-0.1,43l295.5,517.1c5.5,9.6,13.4,17.4,22.9,22.7c8.9,5,19.1,7.6,29.3,7.6
					c10.3,0,20.4-2.6,29.3-7.6c9.5-5.3,17.5-13.2,22.9-22.7l295.5-517.1c7.6-13.3,7.5-29.8-0.2-43
					C1837.7,636,1823.4,627.8,1808.1,627.8L1808.1,627.8z"/>
			</g>
			<g>
				<path class="st1" d="M1024,1219.7c-61,0-119.2-19-168.4-54.8c-35.6-26-65.2-60.4-85.5-99.4c-21-40.4-32.1-85.9-32.1-131.7
					c0-70.3,25.8-137.9,72.6-190.3c26.6-29.8,58.4-53.3,94.5-69.8c37.4-17.1,77.4-25.8,118.9-25.8c61.7,0,120.5,19.4,170,56
					c48.5,35.9,83.9,85.1,102.2,142.3c0,0.1,0,0.1,0.1,0.2c9,28.2,13.6,57.6,13.6,87.5c0,76.4-29.7,148.2-83.8,202.2
					C1172.2,1190,1100.4,1219.7,1024,1219.7z"/>
				<path class="st1" d="M1024,667.8c118.4,0,218.8,77.4,253.2,184.4c0,0.1,0,0.1,0.1,0.2c8.2,25.6,12.7,53,12.7,81.3
					c0,146.9-119.1,266-266,266c-58.5,0-112.7-18.9-156.6-51c-66.3-48.4-109.4-126.7-109.4-215c0-68,25.5-130,67.5-177
					c0.4-0.4,0.7-0.8,1.1-1.1c0.4-0.4,0.8-0.7,1.2-1.1c-0.4,0.4-0.8,0.7-1.2,1.1c-0.4,0.4-0.7,0.8-1.1,1.1
					C874.2,702.2,945.1,667.8,1024,667.8 M1024,627.8c-44.4,0-87.2,9.3-127.2,27.6c-38.6,17.7-72.7,42.8-101.1,74.6c0,0,0,0-0.1,0.1
					C745.6,786.2,718,858.5,718,933.8c0,24.9,3,49.7,8.9,73.7c5.8,23.3,14.3,45.9,25.4,67.3c21.7,41.8,53.3,78.6,91.5,106.4
					c25.6,18.7,53.8,33.2,83.8,43.2c31,10.3,63.4,15.5,96.4,15.5c41.3,0,81.4-8.1,119.1-24.1c36.4-15.4,69.2-37.5,97.2-65.6
					c28.1-28.1,50.1-60.8,65.6-97.2c16-37.7,24.1-77.8,24.1-119.1c0-31.9-4.9-63.4-14.6-93.5c-0.1-0.2-0.1-0.4-0.2-0.6
					c-9.8-30.3-24.3-58.9-43-84.8c-18.5-25.7-40.8-48.3-66.3-67.1c-25.8-19.1-54.2-33.9-84.5-44.1
					C1090.1,633.1,1057.3,627.8,1024,627.8L1024,627.8z"/>
			</g>
		</g>
		<g>
			<g>
				<g>
					<path class="st1" d="M676.3,1482.7c-9.1,0-16.5-7.4-16.5-16.5V1452l-1.9,3c-3,4.9-8.3,7.9-14.1,7.9h-3.2
						c-5.8,0-11.1-3-14.1-7.9l-1.9-3v14.2c0,9.1-7.4,16.5-16.5,16.5h-28.7c-9.1,0-16.5-7.4-16.5-16.5v-125.5
						c0-9.1,7.4-16.5,16.5-16.5h28.7c5.7,0,11.1,3,14.1,7.9l20,32.7l20-32.7c3-4.9,8.3-7.9,14.1-7.9H705c9.1,0,16.5,7.4,16.5,16.5
						v125.5c0,9.1-7.4,16.5-16.5,16.5H676.3z"/>
					<path class="st1" d="M705,1340.7v125.5h-28.7v-72.9l-32.4,53.2h-3.2l-32.4-53.2v72.9h-28.7v-125.5h28.7l34.1,55.7l34.1-55.7
						H705 M705,1307.7h-28.7c-11.5,0-22.2,6-28.2,15.8l-5.9,9.6l-5.9-9.6c-6-9.8-16.7-15.8-28.2-15.8h-28.7c-18.2,0-33,14.8-33,33
						v125.5c0,18.2,14.8,33,33,33h28.7c13.5,0,25.2-8.1,30.2-19.8c0.7,0,1.5,0.1,2.2,0.1h3.2c0.7,0,1.5,0,2.2-0.1
						c5.1,11.6,16.7,19.8,30.2,19.8H705c18.2,0,33-14.8,33-33v-125.5C738,1322.5,723.2,1307.7,705,1307.7L705,1307.7z"/>
				</g>
				<g>
					<path class="st1" d="M816.1,1482.7c-9.1,0-16.5-7.4-16.5-16.5v-125.5c0-9.1,7.4-16.5,16.5-16.5h78c9.1,0,16.5,7.4,16.5,16.5
						v27.6c0,5.3-2.5,10-6.4,13.1c1.2,2.3,1.9,4.9,1.9,7.7v27.2c0,3-0.8,5.9-2.2,8.3c4.6,2.9,7.6,8.1,7.6,13.9v27.6
						c0,9.1-7.4,16.5-16.5,16.5H816.1z"/>
					<path class="st1" d="M894.1,1340.7v27.6h-49.3v20.8h44.8v27.2h-44.8v22.2H895v27.6h-78.9v-125.5H894.1 M894.1,1307.7h-78
						c-18.2,0-33,14.8-33,33v125.5c0,18.2,14.8,33,33,33H895c18.2,0,33-14.8,33-33v-27.6c0-6.8-2.1-13.1-5.6-18.4
						c0.1-1.3,0.2-2.5,0.2-3.8v-27.2c0-1.3-0.1-2.6-0.2-3.8c3-5,4.7-10.8,4.7-17v-27.6C927.1,1322.5,912.3,1307.7,894.1,1307.7
						L894.1,1307.7z"/>
				</g>
				<g>
					<path class="st1" d="M1000.7,1482.7c-9.1,0-16.5-7.4-16.5-16.5v-125.5c0-9.1,7.4-16.5,16.5-16.5h50.2
						c21.8,0,40.3,7.8,55.2,23.1c14.7,15.2,22.2,34.1,22.2,56.1c0,22.2-7.5,41.1-22.2,56.3c-14.8,15.2-33.3,22.9-55.2,22.9H1000.7z
						 M1050.9,1422.1c7,0,10.3-2.6,12.2-4.5c2-2.1,4.7-5.8,4.7-14.1c0-9.3-3.4-12.7-4.5-13.8c-0.1-0.1-0.2-0.2-0.3-0.3
						c-2-2.1-5.1-4.5-12-4.5h-5v37.3H1050.9z"/>
					<path class="st1" d="M1050.9,1340.7c17.4,0,31.7,6.1,43.4,18.1c11.7,12,17.6,26.9,17.6,44.6c0,17.7-5.9,32.8-17.6,44.8
						c-11.6,12-26,17.9-43.4,17.9h-50.2v-125.5H1050.9 M1029.4,1438.6h21.5c9.9,0,17.9-3.2,24-9.5c6.3-6.5,9.3-15.1,9.3-25.6
						c0-10.6-3-19.2-9.3-25.5c-6.1-6.5-14.2-9.7-24-9.7h-21.5V1438.6 M1050.9,1307.7h-50.2c-18.2,0-33,14.8-33,33v125.5
						c0,18.2,14.8,33,33,33h50.2c13,0,25.3-2.3,36.4-7c11.4-4.7,21.7-11.8,30.6-21c17.6-18.1,26.9-41.6,26.9-67.8
						c0-26.1-9.3-49.5-26.9-67.6C1100.1,1317.5,1076.9,1307.7,1050.9,1307.7L1050.9,1307.7z"/>
				</g>
				<g>
					<path class="st1" d="M1217.6,1482.7c-9.1,0-16.5-7.4-16.5-16.5v-125.5c0-9.1,7.4-16.5,16.5-16.5h28.7c9.1,0,16.5,7.4,16.5,16.5
						v125.5c0,9.1-7.4,16.5-16.5,16.5H1217.6z"/>
					<path class="st1" d="M1246.2,1340.7v125.5h-28.7v-125.5H1246.2 M1246.2,1307.7h-28.7c-18.2,0-33,14.8-33,33v125.5
						c0,18.2,14.8,33,33,33h28.7c18.2,0,33-14.8,33-33v-125.5C1279.2,1322.5,1264.5,1307.7,1246.2,1307.7L1246.2,1307.7z"/>
				</g>
				<g>
					<path class="st1" d="M1437.1,1482.7c-7.2,0-13.5-4.6-15.7-11.5l-2.6-8.2h-22.5l-2.6,8.2c-2.2,6.8-8.5,11.5-15.7,11.5h-31.4
						c-5.3,0-10.3-2.6-13.4-6.9s-3.9-9.9-2.2-14.9l42.7-125.5c2.3-6.7,8.6-11.2,15.6-11.2h36.6c7.1,0,13.3,4.5,15.6,11.2l42.7,125.5
						c1.7,5,0.9,10.6-2.2,14.9s-8.1,6.9-13.4,6.9H1437.1z"/>
					<path class="st1" d="M1425.8,1340.7l42.7,125.5h-31.4l-6.3-19.7h-46.6l-6.3,19.7h-31.4l42.7-125.5H1425.8 M1392.8,1419.6h29.4
						l-14.7-46.1L1392.8,1419.6 M1425.8,1307.7h-36.6c-14.1,0-26.7,9-31.2,22.4l-42.7,125.5c-3.4,10.1-1.8,21.2,4.4,29.8
						s16.2,13.8,26.8,13.8h31.4c12.7,0,24.1-7.2,29.6-18.4c5.5,11.1,16.9,18.4,29.6,18.4h31.4c10.6,0,20.6-5.1,26.8-13.8
						s7.8-19.8,4.4-29.8l-42.7-125.5C1452.5,1316.7,1440,1307.7,1425.8,1307.7L1425.8,1307.7z"/>
				</g>
			</g>
		</g>
	</g>
	<g>
		<g>
			<g>
				<defs>
					<path id="SVGID_2_" d="M636.5,667.8c-9.5,0-15.5,10.3-10.8,18.6L696,809.5c1.4,2.4,1.4,5.3,0,7.7l-56.1,98.1
						c-4.8,8.4-16.8,8.4-21.6,0L501.5,710.9c-15.2-26.6-43.5-43.1-74.2-43.1H239.9c-2.4,0-3.9,2.6-2.7,4.6l295.5,517.1
						c7.8,13.6,27.3,13.6,35.1,0l295.5-517.1c1.2-2.1-0.3-4.6-2.7-4.6H636.5z"/>
				</defs>
				<clipPath id="SVGID_3_">
					<use xlink:href="#SVGID_2_"  style="overflow:visible;"/>
				</clipPath>
				
					<linearGradient id="SVGID_4_" gradientUnits="userSpaceOnUse" x1="724.7011" y1="1444.8948" x2="728.4128" y2="1444.8948" gradientTransform="matrix(165.56 0 0 -165.56 -119742.2813 240152.1875)">
					<stop  offset="0" style="stop-color:#CE1628"/>
					<stop  offset="9.567153e-02" style="stop-color:#D4212A"/>
					<stop  offset="0.3569" style="stop-color:#E23330"/>
					<stop  offset="0.6433" style="stop-color:#EB3D33"/>
					<stop  offset="1" style="stop-color:#EF4135"/>
				</linearGradient>
				<rect x="236" y="667.8" class="st2" width="628.4" height="535.3"/>
			</g>
			<g>
				<defs>
					<path id="SVGID_5_" d="M1584,667.8c-9.5,0-15.5,10.3-10.8,18.6l70.3,123.1c1.4,2.4,1.4,5.3,0,7.7l-56.1,98.1
						c-4.8,8.4-16.8,8.4-21.6,0l-116.8-204.4c-15.2-26.6-43.5-43.1-74.2-43.1h-187.5c-2.4,0-3.9,2.6-2.7,4.6l295.5,517.1
						c7.8,13.6,27.3,13.6,35.1,0l295.5-517.1c1.2-2.1-0.3-4.6-2.7-4.6H1584z"/>
				</defs>
				<clipPath id="SVGID_6_">
					<use xlink:href="#SVGID_5_"  style="overflow:visible;"/>
				</clipPath>
				
					<linearGradient id="SVGID_7_" gradientUnits="userSpaceOnUse" x1="728.8589" y1="1444.8962" x2="732.5706" y2="1444.8962" gradientTransform="matrix(168.0458 0 0 -168.0458 -121297.3594 243744.2813)">
					<stop  offset="0" style="stop-color:#CE1628"/>
					<stop  offset="9.567153e-02" style="stop-color:#D4212A"/>
					<stop  offset="0.3569" style="stop-color:#E23330"/>
					<stop  offset="0.6433" style="stop-color:#EB3D33"/>
					<stop  offset="1" style="stop-color:#EF4135"/>
				</linearGradient>
				<rect x="1183.6" y="667.8" class="st3" width="628.4" height="535.3"/>
			</g>
			<g>
				<defs>
					<path id="SVGID_8_" d="M825.5,756.7c10.2-11.2,27-13.8,40.2-6.2L1167.5,923c8.4,4.8,8.4,16.8,0,21.6l94.8-54.2
						c13.3-7.6,19.6-23.4,15-38c0-0.1,0-0.1-0.1-0.2c-34.4-107-134.8-184.4-253.2-184.4C945.1,667.8,874.2,702.2,825.5,756.7"/>
				</defs>
				<clipPath id="SVGID_9_">
					<use xlink:href="#SVGID_8_"  style="overflow:visible;"/>
				</clipPath>
				
					<linearGradient id="SVGID_10_" gradientUnits="userSpaceOnUse" x1="726.5619" y1="1445.7723" x2="730.2736" y2="1445.7723" gradientTransform="matrix(92.0204 53.9534 53.9534 -92.0204 -143993.7813 94538.0781)">
					<stop  offset="0" style="stop-color:#09446C"/>
					<stop  offset="0.2" style="stop-color:#0A4E7E"/>
					<stop  offset="0.5349" style="stop-color:#0D5D98"/>
					<stop  offset="0.8135" style="stop-color:#0D66AB"/>
					<stop  offset="1" style="stop-color:#086BB5"/>
				</linearGradient>
				<polygon class="st4" points="942.3,468.7 1402.6,738.6 1165.1,1143.7 704.8,873.8 				"/>
			</g>
			<g>
				<defs>
					<path id="SVGID_11_" d="M825.5,756.7c-42,47-67.5,109-67.5,177c0,88.3,43.1,166.6,109.4,215c-11.8-8.6-10.8-26.6,1.9-33.8
						l94.1-53.8c-8.3,4.7-18.6-1.3-18.6-10.8V817.1c0-9.6,10.3-15.5,18.6-10.8l-97.7-55.8c-5.1-2.9-10.7-4.3-16.2-4.3
						C840.6,746.2,831.8,749.8,825.5,756.7"/>
				</defs>
				<clipPath id="SVGID_12_">
					<use xlink:href="#SVGID_11_"  style="overflow:visible;"/>
				</clipPath>
				
					<linearGradient id="SVGID_13_" gradientUnits="userSpaceOnUse" x1="726.4085" y1="1445.8531" x2="730.1202" y2="1445.8531" gradientTransform="matrix(0 -107.9483 -107.9483 0 156938.1719 79561.9844)">
					<stop  offset="0" style="stop-color:#09446C"/>
					<stop  offset="0.2" style="stop-color:#0A4E7E"/>
					<stop  offset="0.5349" style="stop-color:#0D5D98"/>
					<stop  offset="0.8135" style="stop-color:#0D66AB"/>
					<stop  offset="1" style="stop-color:#086BB5"/>
				</linearGradient>
				<rect x="758" y="746.2" class="st5" width="205.4" height="402.6"/>
			</g>
			<g>
				<defs>
					<path id="SVGID_14_" d="M1262.3,890.4l-393,224.6c-12.7,7.3-13.7,25.2-1.9,33.8c43.9,32,98.1,51,156.6,51
						c146.9,0,266-119.1,266-266c0-28.4-4.4-55.7-12.7-81.3C1281.9,867,1275.6,882.8,1262.3,890.4"/>
				</defs>
				<clipPath id="SVGID_15_">
					<use xlink:href="#SVGID_14_"  style="overflow:visible;"/>
				</clipPath>
				
					<linearGradient id="SVGID_16_" gradientUnits="userSpaceOnUse" x1="726.4847" y1="1445.7316" x2="730.1964" y2="1445.7316" gradientTransform="matrix(-104.9093 59.6484 59.6484 104.9093 -8746.3291 -194092.875)">
					<stop  offset="0" style="stop-color:#09446C"/>
					<stop  offset="0.2" style="stop-color:#0A4E7E"/>
					<stop  offset="0.5349" style="stop-color:#0D5D98"/>
					<stop  offset="0.8135" style="stop-color:#0D66AB"/>
					<stop  offset="1" style="stop-color:#086BB5"/>
				</linearGradient>
				<polygon class="st6" points="1439.2,1114.9 961.7,1386.4 706.4,937.3 1183.8,665.8 				"/>
			</g>
			<path class="st7" d="M944.9,1050.4V817.1c0-9.5,10.3-15.5,18.6-10.8L1167.6,923c8.4,4.8,8.4,16.8,0,21.6l-204.1,116.6
				C955.2,1065.9,944.9,1059.9,944.9,1050.4"/>
			<path class="st8" d="M965,825.1l185.4,105.9c2.1,1.2,2.1,4.2,0,5.4L965,1042.4c-2.1,1.2-4.6-0.3-4.6-2.7V827.8
				C960.4,825.5,963,824,965,825.1"/>
		</g>
		<g>
			<g>
				<path class="st8" d="M705,1340.7v125.5h-28.7v-72.9l-32.4,53.2h-3.2l-32.4-53.2v72.9h-28.7v-125.5h28.7l34.1,55.7l34.1-55.7H705
					z"/>
				<path class="st8" d="M844.8,1438.6H895v27.6h-78.9v-125.5h78v27.6h-49.3v20.8h44.8v27.2h-44.8V1438.6z"/>
				<path class="st8" d="M1050.9,1340.7c17.4,0,31.7,6.1,43.4,18.1c11.7,12,17.6,26.9,17.6,44.6c0,17.7-5.9,32.8-17.6,44.8
					c-11.6,12-26,17.9-43.4,17.9h-50.2v-125.5H1050.9z M1050.9,1438.6c9.9,0,17.9-3.2,24-9.5c6.3-6.5,9.3-15.1,9.3-25.6
					c0-10.6-3-19.2-9.3-25.5c-6.1-6.5-14.2-9.7-24-9.7h-21.5v70.3H1050.9z"/>
				<path class="st8" d="M1217.6,1340.7h28.7v125.5h-28.7V1340.7z"/>
				<path class="st8" d="M1437.1,1466.2l-6.3-19.7h-46.6l-6.3,19.7h-31.4l42.7-125.5h36.6l42.7,125.5H1437.1z M1392.8,1419.6h29.4
					l-14.7-46.1L1392.8,1419.6z"/>
			</g>
		</g>
	</g>
</g>
</svg>
