<?xml version="1.0" encoding="utf-8"?>
<!-- Generator: Adobe Illustrator 23.0.0, SVG Export Plug-In . SVG Version: 6.00 Build 0)  -->
<svg version="1.1" id="Layer_1" xmlns="http://www.w3.org/2000/svg" xmlns:xlink="http://www.w3.org/1999/xlink" x="0px" y="0px"
	 viewBox="0 0 96 67" style="enable-background:new 0 0 96 67;" xml:space="preserve">
<style type="text/css">
	.st0{fill:#FFFFFF;}
</style>
<path class="st0" d="M89.1,0.2H7.2c-3.9,0-7,3.1-7,7s3.1,7,7,7h81.9c3.9,0,7-3.1,7-7S92.9,0.2,89.1,0.2z"/>
<path class="st0" d="M89.1,25.4H7.2c-3.9,0-7,3.1-7,7s3.1,7,7,7h81.9c3.9,0,7-3.1,7-7S92.9,25.4,89.1,25.4z"/>
<path class="st0" d="M89.1,52.9H7.2c-3.9,0-7,3.1-7,7s3.1,7,7,7h81.9c3.9,0,7-3.1,7-7S92.9,52.9,89.1,52.9z"/>
</svg>
