<svg width="40" height="40" viewBox="0 0 40 40" fill="none" xmlns="http://www.w3.org/2000/svg">
<path d="M11.6666 3.33334C8.92501 3.33334 6.66663 5.59173 6.66663 8.33334V31.6667C6.66663 34.4083 8.92501 36.6667 11.6666 36.6667H33.3333V33.3333H11.6666C10.7249 33.3333 9.99996 32.6084 9.99996 31.6667C9.99996 30.725 10.7249 30 11.6666 30H33.3333V26.6667V3.33334H26.6666H16.6666H11.6666ZM11.6666 6.66668H16.6666V20.2051L19.2903 18.3659L21.6666 16.696L26.6666 20.2051V6.66668H30V26.6667H11.6666C11.0802 26.6667 10.5248 26.7899 9.99996 26.9792V8.33334C9.99996 7.39163 10.7249 6.66668 11.6666 6.66668ZM20 6.66668H23.3333V13.7956L21.6666 12.627L20 13.7956V6.66668Z" fill="black"/>
</svg>
