<svg width="40" height="40" viewBox="0 0 40 40" fill="none" xmlns="http://www.w3.org/2000/svg">
<path d="M16.11 3.33334L15.2929 7.53907C13.9193 8.05709 12.6579 8.78322 11.5527 9.69076L7.51298 8.29753L3.61975 15.0358L6.85543 17.8483C6.73104 18.612 6.66663 19.3197 6.66663 20C6.66663 20.6813 6.73297 21.3877 6.85543 22.1517V22.155L3.61975 24.9675L7.51298 31.7025L11.5494 30.3125C12.6548 31.2205 13.919 31.9426 15.2929 32.4609L16.11 36.6667H23.8899L24.707 32.4609C26.0815 31.9426 27.3415 31.2176 28.4472 30.3092L32.4869 31.7025L36.3769 24.9675L33.1445 22.1517C33.2689 21.388 33.3333 20.6803 33.3333 20C33.3333 19.3208 33.2685 18.614 33.1445 17.8516V17.8483L36.3802 15.0326L32.4869 8.29753L28.4505 9.6875C27.3451 8.77947 26.0809 8.05739 24.707 7.53907L23.8899 3.33334H16.11ZM18.8574 6.66667H21.1425L21.7903 10L23.5286 10.6576C24.5764 11.0525 25.5177 11.5946 26.3346 12.2656L27.7734 13.444L30.9765 12.3438L32.1191 14.3197L29.5605 16.5462L29.8535 18.3789V18.3822C29.9554 19.0071 30 19.5313 30 20C30 20.4687 29.9554 20.9929 29.8535 21.6178L29.5572 23.4505L32.1158 25.6771L30.9733 27.6563L27.7734 26.5527L26.3313 27.7344C25.5145 28.4054 24.5764 28.9476 23.5286 29.3425H23.5253L21.7871 30L21.1393 33.3333H18.8574L18.2096 30L16.4713 29.3425C15.4235 28.9476 14.4822 28.4054 13.6653 27.7344L12.2265 26.556L9.0234 27.6563L7.88082 25.6803L10.4427 23.4505L10.1464 21.6244V21.6211C10.046 20.9935 9.99996 20.4678 9.99996 20C9.99996 19.5313 10.0445 19.0071 10.1464 18.3822L10.4427 16.5495L7.88082 14.3229L9.0234 12.3438L12.2265 13.4473L13.6653 12.2656C14.4822 11.5946 15.4235 11.0525 16.4713 10.6576L18.2096 10L18.8574 6.66667ZM20 13.3333C16.3391 13.3333 13.3333 16.3391 13.3333 20C13.3333 23.6609 16.3391 26.6667 20 26.6667C23.6608 26.6667 26.6666 23.6609 26.6666 20C26.6666 16.3391 23.6608 13.3333 20 13.3333ZM20 16.6667C21.8524 16.6667 23.3333 18.1475 23.3333 20C23.3333 21.8525 21.8524 23.3333 20 23.3333C18.1475 23.3333 16.6666 21.8525 16.6666 20C16.6666 18.1475 18.1475 16.6667 20 16.6667Z" fill="black"/>
</svg>
