<svg width="25" height="25" viewBox="0 0 25 25" fill="none" xmlns="http://www.w3.org/2000/svg">
<path fill-rule="evenodd" clip-rule="evenodd" d="M16.5084 17.1822C14.8623 18.6575 12.6855 19.5552 10.2979 19.5552C5.16095 19.5552 1 15.3996 1 10.2776C1 5.15558 5.16095 1 10.2979 1C15.4348 1 19.5958 5.15558 19.5958 10.2776C19.5958 12.6597 18.6958 14.8327 17.2163 16.4759L16.9883 16.2484L16.2819 16.9562L16.5084 17.1822ZM17.2172 17.8896C15.3889 19.5459 12.9615 20.5552 10.2979 20.5552C4.61053 20.5552 0 15.9538 0 10.2776C0 4.60144 4.61053 0 10.2979 0C15.9853 0 20.5958 4.60144 20.5958 10.2776C20.5958 12.936 19.5845 15.3586 17.925 17.1832L24.9097 24.1542L24.2033 24.862L17.2172 17.8896Z" fill="white" fill-opacity="0.8"/>
</svg>
