<svg xmlns="http://www.w3.org/2000/svg" xmlns:xlink="http://www.w3.org/1999/xlink" width="111.496" height="121.571" viewBox="0 0 111.496 121.571"><defs><style>.a{opacity:0.502;}.b{fill:#8e99a3;}.c{fill:#a0aab5;}.d{fill:url(#a);}.e{fill:#ced8e5;opacity:0.4;}.f{fill:#a8b7c5;}.g{fill:#dde5f2;}.h{fill:none;stroke:#8696c5;stroke-linecap:round;stroke-width:1.8px;}.i{fill:#8b9aa8;}.j{fill:#dae2ec;}.k{fill:#c5d0d9;}</style><linearGradient id="a" x1="0.87" y1="0.317" x2="0.13" y2="0.683" gradientUnits="objectBoundingBox"><stop offset="0" stop-color="#95abc2"/><stop offset="1" stop-color="#fff"/></linearGradient></defs><g class="a" transform="translate(-220.993 -273.424)"><path class="b" d="M359.072,394.637l46.04,12.661v44.3l-46.04-19.851Z" transform="translate(-87.604 -76.541)"/><path class="c" d="M293.953,394.756l-37.6,10.516v46.553l37.6-20.15Z" transform="translate(-22.432 -76.616)"/><path class="d" d="M37.044,82.524h0c-.746-.219-1.586-.435-2.568-.662l.3-1.313c1.013.234,1.878.457,2.645.682l-.378,1.293Zm-5.625-1.315h0l-.635-.128-.056-.011-.084-.017-1.865-.378.27-1.32,2.031.411.094.019.514.1-.268,1.32Zm-5.725-1.195h0c-.947-.215-1.81-.425-2.637-.643l.342-1.3c.808.212,1.656.419,2.594.632l-.3,1.314ZM20,78.481h0c-.894-.289-1.76-.6-2.575-.917l.491-1.254c.789.31,1.629.609,2.5.89L20,78.481Zm-5.5-2.214h0c-.836-.417-1.646-.866-2.408-1.334l.7-1.148c.726.446,1.5.876,2.3,1.276l-.6,1.206ZM9.44,73.088h0a25.7,25.7,0,0,1-2.076-1.827l.942-.962a24.534,24.534,0,0,0,1.968,1.732l-.833,1.057ZM5.206,68.853h0a26.139,26.139,0,0,1-1.591-2.261l1.14-.717A24.749,24.749,0,0,0,6.264,68.02l-1.057.833Zm-3.147-5.1h0c-.338-.708-.655-1.448-.945-2.2-.042-.107-.083-.219-.127-.34l1.266-.458c.035.1.074.2.117.314.279.725.583,1.433.9,2.1l-1.215.58ZM.18,58.04h0A16.276,16.276,0,0,1,0,55.233l1.346.033a14.952,14.952,0,0,0,.16,2.574l-1.331.2Zm1.54-5.785h0l-1.314-.29a19.072,19.072,0,0,1,.8-2.675l1.258.48a17.7,17.7,0,0,0-.747,2.485Zm16.3-4.279h0l-.112-1.343a11.334,11.334,0,0,0,2.494-.49l.408,1.284a12.7,12.7,0,0,1-2.79.549Zm-3.276-.12h0a16.14,16.14,0,0,1-2.735-.646l.424-1.279a14.8,14.8,0,0,0,2.507.592l-.2,1.333ZM3.762,47.027h0L2.59,46.363a24.346,24.346,0,0,1,1.5-2.329l1.088.793a23.064,23.064,0,0,0-1.418,2.2Zm20.061-1.065h0l-.764-1.108a7.982,7.982,0,0,0,1.811-1.7l1.069.82a9.321,9.321,0,0,1-2.115,1.989ZM9.014,45.839h0a14.557,14.557,0,0,1-2.269-1.681l.9-1a13.222,13.222,0,0,0,2.059,1.525l-.692,1.155ZM7.139,42.454h0l-.984-.918c.621-.667,1.287-1.315,1.978-1.925l.89,1.011c-.657.58-1.291,1.2-1.883,1.832Zm-2.573-.769h0a14.991,14.991,0,0,1-1.388-2.456l1.229-.55A13.629,13.629,0,0,0,5.67,40.913l-1.1.772Zm22.763-.861h0L26,40.623a4.321,4.321,0,0,0-.28-2.318l1.245-.513a5.65,5.65,0,0,1,.366,3.032Zm-15.9-2.092h0l-.769-1.105A26.06,26.06,0,0,1,13,36.166l.648,1.181a24.775,24.775,0,0,0-2.226,1.386Zm12.627-2.586h0a4.965,4.965,0,0,0-2.211-.862l.2-1.332a6.293,6.293,0,0,1,2.8,1.105l-.792,1.089Zm-7.629-.075h0l-.466-1.264a16.279,16.279,0,0,1,2.706-.753l.241,1.326a14.967,14.967,0,0,0-2.481.692ZM2.154,36.06h0a16.35,16.35,0,0,1-.335-2.79l1.345-.046a15.051,15.051,0,0,0,.307,2.56l-1.317.276Zm1.191-5.805h0l-1.33-.206c.045-.29.1-.58.155-.863.126-.615.284-1.241.471-1.858l1.288.391c-.174.573-.322,1.158-.441,1.738-.054.261-.1.53-.143.8Zm1.679-5.389h0L3.8,24.3a26.95,26.95,0,0,1,1.3-2.442l1.156.691a25.58,25.58,0,0,0-1.231,2.319Zm2.948-4.881h0l-1.079-.8c.529-.711,1.107-1.43,1.718-2.138l1.018.881c-.591.684-1.148,1.377-1.657,2.061Zm3.758-4.319h0l-.952-.952c.627-.628,1.293-1.26,1.978-1.879l.9,1c-.671.605-1.319,1.22-1.927,1.83Zm4.3-3.858h0l-.847-1.047c.694-.562,1.417-1.124,2.148-1.67l.805,1.08c-.719.537-1.427,1.087-2.106,1.637Zm4.639-3.447h0l-.76-1.112c.735-.5,1.5-1.008,2.263-1.5L22.9,6.886c-.751.481-1.5.977-2.227,1.475Zm4.881-3.112h0l-.687-1.158c.764-.454,1.554-.91,2.348-1.354l.657,1.176c-.786.44-1.566.89-2.317,1.337Zm5.066-2.825h0L29.993,1.23C30.77.824,31.558.421,32.4,0L33,1.206c-.829.413-1.609.811-2.386,1.217Z" transform="translate(258.506 290.01)"/><path class="e" d="M411.041,283.657c1.75-1.751-.261-6.6-2.008-8.351a4.482,4.482,0,0,0-6.336,6.342C404.444,283.4,409.291,285.408,411.041,283.657Z" transform="translate(-114.451 0)"/><path class="e" d="M435.012,306.484c-1.75,1.751.261,6.6,2.008,8.351a4.482,4.482,0,0,0,6.336-6.342C441.609,306.745,436.761,304.733,435.012,306.484Z" transform="translate(-135.356 -20.185)"/><path class="f" d="M425.56,292.314h4.1v4.1a3.633,3.633,0,0,1-3.635,3.638h-4.1v-4.1A3.633,3.633,0,0,1,425.56,292.314Z" transform="translate(-127.481 -11.622)"/><path class="g" d="M418.219,296.7l.864-.865,6.326,6.332-.864.865Z" transform="translate(-125.129 -13.854)"/><path class="g" d="M424.9,291.13l.864-.865,6.326,6.332-.864.865Z" transform="translate(-129.371 -10.322)"/><line class="h" y1="0.706" x2="2.976" transform="translate(306.337 278.047)"/><line class="h" y1="2.943" x2="1.144" transform="translate(305.116 274.589)"/><circle class="i" cx="3.257" cy="3.257" r="3.257" transform="translate(300.149 276.622)"/><path class="j" d="M256.351,423.753l46.04,14.622v51.634l-46.04-19.851Z" transform="translate(-22.432 -95.014)"/><path class="k" d="M418.945,429.117,380.51,441.779v51.634l38.435-19.851Z" transform="translate(-101.205 -98.417)"/><path class="j" d="M419.071,429.034l14.858,19.9L394.5,464.487,380.88,441.628Z" transform="translate(-101.44 -98.364)"/><path class="k" d="M233.863,423.459l-12.869,20.093,45.358,17.4L279.6,438.064Z" transform="translate(0 -94.827)"/></g></svg>