<svg xmlns="http://www.w3.org/2000/svg" xmlns:xlink="http://www.w3.org/1999/xlink" width="24" height="24" viewBox="0 0 24 24"><defs><style>.a{fill:#fff;}.b{fill:none;}.c{clip-path:url(#a);}.d{clip-path:url(#b);}.e{clip-path:url(#c);}.f{clip-path:url(#d);}</style><clipPath id="a"><path class="a" d="M20.75-20.685a.625.625,0,0,1,.625.625.625.625,0,0,1-.54.619l-.085.006h-.82a.625.625,0,0,0-.595.432l-.021.087L17.116-6A1.875,1.875,0,0,1,15.4-4.442l-.136,0H7a.625.625,0,0,1-.625-.625.625.625,0,0,1,.54-.619L7-5.687h8.267a.625.625,0,0,0,.595-.433l.021-.088,2.2-12.917a1.875,1.875,0,0,1,1.713-1.555l.136,0Z"/></clipPath><clipPath id="b"><path class="a" d="M8.563-3.812l.1.006a.938.938,0,0,1,.835.932.938.938,0,0,1-.937.938.938.938,0,0,1-.937-.937.938.938,0,0,1,.835-.932Z"/></clipPath><clipPath id="c"><path class="a" d="M14.813-3.812l.1.006a.938.938,0,0,1,.835.932.937.937,0,0,1-.937.938.937.937,0,0,1-.937-.937.938.938,0,0,1,.835-.932Z"/></clipPath><clipPath id="d"><path class="a" d="M18.237-16.941a.625.625,0,0,1,.625.625.625.625,0,0,1-.54.619l-.085.006H3.875l1.208,4.833A1.875,1.875,0,0,0,6.759-9.443l.142.005H16.961a.625.625,0,0,1,.625.625.625.625,0,0,1-.54.619l-.085.006H6.9A3.125,3.125,0,0,1,3.914-10.4l-.044-.159L2.662-15.387A1.25,1.25,0,0,1,2.89-16.46a1.25,1.25,0,0,1,.858-.474l.127-.006Z"/></clipPath></defs><path class="b" d="M0,0H24V-24H0Z" transform="translate(0 24)"/><g class="c" transform="translate(0 24)"><path class="a" d="M1.375-25.685h25V.563h-25Z"/></g><g class="d" transform="translate(0 24)"><path class="a" d="M2.625-8.812H14.5V3.063H2.625Z"/></g><g class="e" transform="translate(0 24)"><path class="a" d="M8.875-8.812H20.75V3.063H8.875Z"/></g><g class="f" transform="translate(0 24)"><path class="a" d="M-2.375-21.941H23.862V-3.187H-2.375Z"/></g></svg>