<svg xmlns="http://www.w3.org/2000/svg" width="24" height="24" viewBox="0 0 24 24"><defs><style>.a{fill:none;}.b{fill:#dadada;}</style></defs><path class="a" d="M0,0H24V-24H0Z" transform="translate(0 24)"/><path class="b" d="M15-6.747c.276,0,.5.448.5,1,0,.506-.188.925-.432.991L15-4.747H2c-.276,0-.5-.448-.5-1,0-.506.188-.925.432-.991L2-6.747Z" transform="translate(0.5 24)"/><path class="b" d="M20.786-12.747c.394,0,.714.448.714,1a.949.949,0,0,1-.617.991l-.1.009H2.214c-.394,0-.714-.448-.714-1a.949.949,0,0,1,.617-.991l.1-.009Z" transform="translate(0.5 24)"/><path class="b" d="M18.857-18.747c.355,0,.643.448.643,1,0,.506-.242.925-.556.991l-.087.009H2.143c-.355,0-.643-.448-.643-1,0-.506.242-.925.556-.991l.087-.009Z" transform="translate(0.5 24)"/></svg>