<svg xmlns="http://www.w3.org/2000/svg" xmlns:xlink="http://www.w3.org/1999/xlink" width="23.996" height="24.001" viewBox="0 0 23.996 24.001"><defs><style>.a{fill:#888;}.b{clip-path:url(#a);}.c{clip-path:url(#b);}.d{clip-path:url(#c);}.e{clip-path:url(#d);}</style><clipPath id="a"><path class="a" d="M9.529-24.981l-7.8-.013A1.728,1.728,0,0,0,.5-24.485,1.728,1.728,0,0,0,0-23.262v10.788a1.726,1.726,0,0,0,.5,1.221,1.727,1.727,0,0,0,1.221.509h7.8a1.728,1.728,0,0,0,1.725-1.732V-23.251A1.728,1.728,0,0,0,9.529-24.981ZM1.668-23.486l.059-.009,7.8.014a.228.228,0,0,1,.225.228v10.779a.228.228,0,0,1-.227.23h-7.8a.226.226,0,0,1-.159-.067.227.227,0,0,1-.066-.161V-23.264a.229.229,0,0,1,.066-.163A.228.228,0,0,1,1.668-23.486Z"/></clipPath><clipPath id="b"><path class="a" d="M22.412-24.989,22.263-25l-7.8.014a1.717,1.717,0,0,0-1.722,1.707v4.818a1.721,1.721,0,0,0,.511,1.217,1.718,1.718,0,0,0,1.219.5h7.795A1.718,1.718,0,0,0,24-18.451v-4.831A1.722,1.722,0,0,0,22.412-24.989Zm-7.947,1.508,7.805-.013a.221.221,0,0,1,.226.218v4.82a.218.218,0,0,1-.22.212h-7.8a.222.222,0,0,1-.16-.063.218.218,0,0,1-.065-.154v-4.808A.217.217,0,0,1,14.465-23.481Z"/></clipPath><clipPath id="c"><path class="a" d="M9.521-9.244h-7.8a1.717,1.717,0,0,0-1.215.5A1.719,1.719,0,0,0,0-7.534v4.813A1.72,1.72,0,0,0,1.726-1.007l7.8.013a1.719,1.719,0,0,0,1.217-.5A1.721,1.721,0,0,0,11.25-2.7V-7.53A1.721,1.721,0,0,0,9.521-9.244Zm-7.8,1.5H9.529a.22.22,0,0,1,.221.219v4.816a.219.219,0,0,1-.066.151.221.221,0,0,1-.157.064l-7.8-.013A.22.22,0,0,1,1.5-2.725V-7.53a.217.217,0,0,1,.065-.151A.219.219,0,0,1,1.72-7.744Z"/></clipPath><clipPath id="d"><path class="a" d="M22.273-15.244h-7.8a1.729,1.729,0,0,0-1.223.51,1.728,1.728,0,0,0-.5,1.223V-2.725a1.727,1.727,0,0,0,.5,1.222,1.728,1.728,0,0,0,1.221.509l7.8-.013A1.73,1.73,0,0,0,24-2.74V-13.513a1.727,1.727,0,0,0-.5-1.221A1.728,1.728,0,0,0,22.273-15.244Zm-7.8,1.5h7.8a.227.227,0,0,1,.159.067.228.228,0,0,1,.066.161V-2.738a.229.229,0,0,1-.228.231l-7.8.013a.226.226,0,0,1-.158-.067.228.228,0,0,1-.066-.162v-10.79a.229.229,0,0,1,.066-.164A.228.228,0,0,1,14.473-13.744Z"/></clipPath></defs><g transform="translate(0)"><g class="b" transform="translate(0 24.995)"><path class="a" d="M-5-29.994H16.25v24.25H-5Z"/></g><g class="c" transform="translate(0 24.995)"><path class="a" d="M7.746-30H29v18.251H7.746Z"/></g><g class="d" transform="translate(0 24.995)"><path class="a" d="M-5-14.244H16.25V4.006H-5Z"/></g><g class="e" transform="translate(0 24.995)"><path class="a" d="M7.746-20.244H29V4.006H7.746Z"/></g></g></svg>