<svg xmlns="http://www.w3.org/2000/svg" xmlns:xlink="http://www.w3.org/1999/xlink" width="24" height="24" viewBox="0 0 24 24"><defs><style>.a{fill:#2c6178;}.b{clip-path:url(#a);}.c{clip-path:url(#b);}.d{clip-path:url(#c);}.e{clip-path:url(#d);}</style><clipPath id="a"><path class="a" d="M.806-23.2a1.042,1.042,0,0,0-.306.737v11.486A1.043,1.043,0,0,0,1.543-9.935H9.891a1.043,1.043,0,0,0,1.043-1.043V-22.449a1.043,1.043,0,0,0-1.043-1.043l-8.348-.016A1.044,1.044,0,0,0,.806-23.2Z" transform="translate(-0.5 23.507)"/></clipPath><clipPath id="b"><path class="a" d="M22.891-23.507l-8.348.015A1.043,1.043,0,0,0,13.5-22.45v5.214a1.043,1.043,0,0,0,1.043,1.043h8.348a1.043,1.043,0,0,0,1.043-1.043v-5.229A1.043,1.043,0,0,0,22.891-23.507Z" transform="translate(-13.5 23.507)"/></clipPath><clipPath id="c"><path class="a" d="M10.629-.5a1.042,1.042,0,0,0,.306-.737V-6.45A1.043,1.043,0,0,0,9.891-7.493H1.543A1.043,1.043,0,0,0,.5-6.45v5.2A1.043,1.043,0,0,0,1.543-.209l8.348.015A1.044,1.044,0,0,0,10.629-.5Z" transform="translate(-0.5 7.493)"/></clipPath><clipPath id="d"><path class="a" d="M22.891-13.492H14.543A1.043,1.043,0,0,0,13.5-12.449V-.978A1.043,1.043,0,0,0,14.543.064L22.891.05A1.043,1.043,0,0,0,23.935-.993V-12.449A1.043,1.043,0,0,0,22.891-13.492Z" transform="translate(-13.5 13.492)"/></clipPath></defs><g class="b"><path class="a" d="M-4.5-28.507H16.37v24H-4.5Z" transform="translate(-0.717 23.293)"/></g><g class="c" transform="translate(13.565)"><path class="a" d="M8.5-28.507H29.37v17.742H8.5Z" transform="translate(-13.717 23.293)"/></g><g class="d" transform="translate(0 16.699)"><path class="a" d="M-4.5-12.493H16.37V5.234H-4.5Z" transform="translate(-0.717 7.279)"/></g><g class="e" transform="translate(13.565 10.444)"><path class="a" d="M8.5-18.492H29.37V5.492H8.5Z" transform="translate(-13.717 13.278)"/></g></svg>