<svg xmlns="http://www.w3.org/2000/svg" width="24" height="24" viewBox="0 0 24 24"><defs><style>.a{fill:none;}.b{fill:#2c6178;fill-rule:evenodd;}</style></defs><rect class="a" width="24" height="24"/><path class="b" d="M6.8,9.768A2.873,2.873,0,0,0,9.682,6.889,2.962,2.962,0,0,0,6.8,3.908,2.873,2.873,0,0,0,3.925,6.786,3.034,3.034,0,0,0,6.8,9.768ZM1.972,1.955a6.825,6.825,0,0,1,9.664,0,6.963,6.963,0,0,1,0,9.664s-4.091,4.949-4.841,4.949-4.822-4.949-4.822-4.949A7.18,7.18,0,0,1,1.972,1.955Z" transform="translate(5.206 3.8)"/></svg>