<svg xmlns="http://www.w3.org/2000/svg" width="93.547" height="24" viewBox="0 0 93.547 24"><defs><style>.a{fill:#fff;}</style></defs><path class="a" d="M74.557,90.93H63.349A3.725,3.725,0,0,0,64.632,93.7a4.809,4.809,0,0,0,3.189.981,5.3,5.3,0,0,0,3.811-1.245l1.415,2.66c-1.283,1-3.208,1.491-5.774,1.491a7.846,7.846,0,0,1-5.679-2A7.355,7.355,0,0,1,59.5,90.006a7.532,7.532,0,0,1,2.3-5.717A7.71,7.71,0,0,1,67.311,82.1a7.613,7.613,0,0,1,5.472,1.943,6.508,6.508,0,0,1,2.075,4.943A9.049,9.049,0,0,1,74.557,90.93ZM63.481,88.308H71.2c-.245-2.189-1.528-3.283-3.811-3.283Q64.245,85.024,63.481,88.308Z" transform="translate(-59.5 -73.609)"/><path class="a" d="M155.413,98.643V97.379a6.793,6.793,0,0,1-2.132,1.075,7.95,7.95,0,0,1-2.509.453c-3.642,0-5.472-1.849-5.472-5.528V83.7h3.66v9.434c0,1.925.906,2.868,2.717,2.868A4.554,4.554,0,0,0,154,95.379a3.177,3.177,0,0,0,1.415-1.415V83.7h3.66V98.662h-3.66Z" transform="translate(-129.111 -74.908)"/><path class="a" d="M237.356,85.728a3.966,3.966,0,0,0-2.151-.623,2.966,2.966,0,0,0-2.264,1.094,3.866,3.866,0,0,0-.981,2.7v8.509H228.3V82.483h3.66v1.358a5.344,5.344,0,0,1,4.094-1.642,6.138,6.138,0,0,1,2.868.547Z" transform="translate(-196.451 -73.691)"/><path class="a" d="M279.6,89.917a7.7,7.7,0,0,1,2.075-5.566,8.266,8.266,0,0,1,11.019-.094,7.823,7.823,0,0,1,1.981,5.641,7.917,7.917,0,0,1-2.019,5.679,8.285,8.285,0,0,1-11.075-.019A7.946,7.946,0,0,1,279.6,89.917Zm3.811,0c0,3.283,1.245,4.943,3.736,4.943a3.262,3.262,0,0,0,2.717-1.283,5.871,5.871,0,0,0,1-3.66c0-3.245-1.245-4.868-3.717-4.868a3.262,3.262,0,0,0-2.717,1.283A5.483,5.483,0,0,0,283.411,89.917Z" transform="translate(-238.072 -73.691)"/><path class="a" d="M368.883,58.811,371.109,58v3.7h3.83v1.887h-3.83v9.17c0,2,.566,3.113,2,3.113a4.378,4.378,0,0,0,1.509-.226l.132,1.868a5.434,5.434,0,0,1-2.189.377c-3.585,0-3.679-3.491-3.679-5.189V63.585H366.6V61.7h2.283Z" transform="translate(-308.656 -54.057)"/><path class="a" d="M414.571,48.583a1.65,1.65,0,0,1,.019-3.283,1.65,1.65,0,0,1-.019,3.283Zm1.132,18.66h-2.245V51.375H415.7Z" transform="translate(-346.383 -43.753)"/><path class="a" d="M441.345,61.483H439.1V38.2h2.245Z" transform="translate(-367.477 -37.992)"/><path class="a" d="M469.128,91.085a10.169,10.169,0,0,1-4.642.981c-4.3,0-6.887-3.264-6.887-8,0-4.981,2.6-8.566,6.585-8.566,4.547,0,5.717,4.491,5.717,7.245a13.258,13.258,0,0,1-.056,1.34H459.788c.019,4.4,2.359,6.057,5.019,6.057a8.841,8.841,0,0,0,3.868-.811Zm-1.434-8.792c.019-2.151-.811-4.943-3.717-4.943-2.717,0-3.906,2.774-4.113,4.943Z" transform="translate(-382.486 -68.255)"/><path class="a" d="M523.6,59.2a3.286,3.286,0,1,1,2.34-.962A3.175,3.175,0,0,1,523.6,59.2Zm0-6.226a2.864,2.864,0,0,0-2.076.849,2.833,2.833,0,0,0-.849,2.075,2.791,2.791,0,0,0,.849,2.057,2.833,2.833,0,0,0,2.076.849,2.791,2.791,0,0,0,2.057-.849,2.822,2.822,0,0,0,.849-2.057,2.864,2.864,0,0,0-.849-2.075A2.791,2.791,0,0,0,523.6,52.977Zm1.6,4.981h-.717l-.453-1.019c-.226-.509-.491-.755-.755-.755h-.4v1.774H522.3V53.751h1.189a1.8,1.8,0,0,1,1.132.3,1.011,1.011,0,0,1,.4.83,1.059,1.059,0,0,1-.283.736,1.458,1.458,0,0,1-.792.415v.038c.226.057.472.3.7.774Zm-2.3-3.7v1.434h.623c.585,0,.868-.245.868-.717a.624.624,0,0,0-.226-.547,1.244,1.244,0,0,0-.736-.17Z" transform="translate(-433.356 -49.675)"/><g transform="translate(0.34)"><path class="a" d="M62.074,48.113H61.3V44h.774Zm.038-2.075L63.715,44h.453l-1.377,1.755,1.491,2.358h-.868Z" transform="translate(-61.3 -42.698)"/><path class="a" d="M80.074,48.113H79.3V44h.774Z" transform="translate(-75.904 -42.698)"/><path class="a" d="M89.574,47.83h2.019v.264H88.8V44h2.755v.264H89.574v1.585H91.46v.264H89.574Z" transform="translate(-83.611 -42.698)"/><path class="a" d="M91.3,38.062l.642-.962h.472l.679.962h-.283l-.623-.7-.6.7Zm.528,5.226a.372.372,0,0,1,.113-.264.359.359,0,0,1,.245-.094.374.374,0,0,1,.264.642.343.343,0,0,1-.264.113.373.373,0,0,1-.264-.113A.509.509,0,0,1,91.828,43.289Z" transform="translate(-85.64 -37.1)"/><path class="a" d="M107.285,48.113h-.774V44.264H105.7V44h2.415v.264h-.83Z" transform="translate(-97.323 -42.698)"/><path class="a" d="M132.585,48.113h-.774V44.264H131V44h2.415v.264h-.83Z" transform="translate(-117.849 -42.698)"/><path class="a" d="M148.315,47.626h-.792l-.434-1.075h-1.415l-.4,1.075H144.9l1.679-4.226Zm-1.34-1.358-.6-1.509-.585,1.509Z" transform="translate(-129.126 -42.211)"/><path class="a" d="M152.985,37.1h.528l-.83.962H152.4Z" transform="translate(-135.211 -37.1)"/><path class="a" d="M168.555,44.168l-.226.17a2.725,2.725,0,0,0-.49-.528,1.131,1.131,0,0,0-.679-.226,1.35,1.35,0,0,0-1.132.509,2.254,2.254,0,0,0-.4,1.415,2.086,2.086,0,0,0,.358,1.264,1.215,1.215,0,0,0,1.057.566,1.43,1.43,0,0,0,.83-.245,1.353,1.353,0,0,0,.547-.66l.264.132a1.681,1.681,0,0,1-.736.83,2.037,2.037,0,0,1-1.057.245,1.953,1.953,0,0,1-1.472-.623,2.054,2.054,0,0,1-.623-1.491,2.191,2.191,0,0,1,.623-1.6,2.091,2.091,0,0,1,1.547-.623,1.772,1.772,0,0,1,.887.226A2.272,2.272,0,0,1,168.555,44.168Z" transform="translate(-145.272 -42.13)"/><path class="a" d="M201.032,45.608h.774V47.1a3.137,3.137,0,0,1-.849.472,2.717,2.717,0,0,1-.962.17,1.953,1.953,0,0,1-1.472-.623,2.054,2.054,0,0,1-.623-1.491,2.191,2.191,0,0,1,.623-1.6,2.091,2.091,0,0,1,1.547-.623,1.772,1.772,0,0,1,.887.226,2.008,2.008,0,0,1,.7.623l-.226.17a2.726,2.726,0,0,0-.491-.528,1.13,1.13,0,0,0-.679-.226,1.349,1.349,0,0,0-1.132.509,2.254,2.254,0,0,0-.4,1.415,2.188,2.188,0,0,0,.358,1.321,1.246,1.246,0,0,0,1.075.566,1.637,1.637,0,0,0,.528-.094.6.6,0,0,0,.34-.226Z" transform="translate(-172.126 -42.211)"/><path class="a" d="M224.015,47.626h-.792l-.434-1.075h-1.415l-.4,1.075H220.6l1.679-4.226Zm-1.34-1.358-.6-1.509-.585,1.509Z" transform="translate(-190.543 -42.211)"/><path class="a" d="M228.4,68.277a.373.373,0,0,1,.113-.264.343.343,0,0,1,.264-.113.374.374,0,0,1,.264.641.342.342,0,0,1-.264.113.373.373,0,0,1-.264-.113A.343.343,0,0,1,228.4,68.277Z" transform="translate(-196.872 -62.089)"/><path class="a" d="M244.155,44.168l-.226.17a2.725,2.725,0,0,0-.491-.528,1.131,1.131,0,0,0-.679-.226,1.35,1.35,0,0,0-1.132.509,2.254,2.254,0,0,0-.4,1.415,2.086,2.086,0,0,0,.358,1.264,1.215,1.215,0,0,0,1.057.566,1.43,1.43,0,0,0,.83-.245,1.353,1.353,0,0,0,.547-.66l.264.132a1.682,1.682,0,0,1-.736.83,2.038,2.038,0,0,1-1.057.245,1.953,1.953,0,0,1-1.472-.623,2.054,2.054,0,0,1-.623-1.491,2.191,2.191,0,0,1,.623-1.6,2.091,2.091,0,0,1,1.547-.623,1.772,1.772,0,0,1,.887.226A2.079,2.079,0,0,1,244.155,44.168Z" transform="translate(-206.607 -42.13)"/><path class="a" d="M264.473,48.113H263.7V44h.773v1.792h1.679V44h.774v4.113h-.774V46.132h-1.679Z" transform="translate(-225.511 -42.698)"/><path class="a" d="M296.8,48.113V44h.849l1.189,2.774L299.951,44h.793v4.113h-.774V44.792l-1.359,3.434-1.472-3.472-.019,3.358Z" transform="translate(-252.366 -42.698)"/><path class="a" d="M323.673,47.83h2.019v.264H322.9V44h2.755v.264h-1.981v1.585h1.868v.264h-1.868Z" transform="translate(-273.541 -42.698)"/><path class="a" d="M341.739,48.113H341.4V44h.679l2.151,2.83.019-2.83h.34v4.113h-.34l-2.491-3.283Z" transform="translate(-288.551 -42.698)"/></g></svg>