<svg xmlns="http://www.w3.org/2000/svg" xmlns:xlink="http://www.w3.org/1999/xlink" width="24" height="24" viewBox="0 0 24 24"><defs><style>.a{fill:#2c6178;}.b{fill:none;}.c{clip-path:url(#a);}.d{clip-path:url(#b);}.e{clip-path:url(#c);}.f{clip-path:url(#d);}.g{clip-path:url(#e);}.h{clip-path:url(#f);}</style><clipPath id="a"><path class="a" d="M5.5-19.5h3.25A1.25,1.25,0,0,1,10-18.25v4.75a1.25,1.25,0,0,1-1.25,1.25H5.5a1.25,1.25,0,0,1-1.25-1.25v-4.75A1.25,1.25,0,0,1,5.5-19.5Z" transform="translate(-4.252 19.5)"/></clipPath><clipPath id="b"><path class="a" d="M24-14.413a2.937,2.937,0,0,0-3-2.87H19v-4.3A1.958,1.958,0,0,0,17-23.5H2a1.958,1.958,0,0,0-2,1.913V-4.848A3.426,3.426,0,0,0,3.5-1.5h17A3.426,3.426,0,0,0,24-4.848Zm-20.5,11A1.468,1.468,0,0,1,2-4.848V-21.109a.489.489,0,0,1,.5-.478h14a.489.489,0,0,1,.5.478V-4.848a3.2,3.2,0,0,0,.11.836.462.462,0,0,1-.089.412.508.508,0,0,1-.4.185ZM22-4.848a1.468,1.468,0,0,1-1.5,1.435A1.468,1.468,0,0,1,19-4.848V-14.891a.489.489,0,0,1,.5-.478H21a.979.979,0,0,1,1,.957Z" transform="translate(0 23.5)"/></clipPath><clipPath id="c"><path class="a" d="M12.751-17.953h2a.75.75,0,0,1,.75.75v.5a.75.75,0,0,1-.75.75h-2a.749.749,0,0,1-.53-.218A.749.749,0,0,1,12-16.7v-.5a.751.751,0,0,1,.219-.532.751.751,0,0,1,.532-.221Z" transform="translate(-12 17.953)"/></clipPath><clipPath id="d"><path class="a" d="M12.751-13.953h2a.75.75,0,0,1,.75.75v.5a.75.75,0,0,1-.75.75h-2A.75.75,0,0,1,12-12.7v-.5a.751.751,0,0,1,.219-.532.751.751,0,0,1,.532-.221Z" transform="translate(-12 13.953)"/></clipPath><clipPath id="e"><path class="a" d="M4.751-9.953h10a.75.75,0,0,1,.75.75v.5a.75.75,0,0,1-.75.75h-10A.75.75,0,0,1,4-8.7v-.5a.751.751,0,0,1,.219-.532.751.751,0,0,1,.532-.221Z" transform="translate(-4 9.953)"/></clipPath><clipPath id="f"><path class="a" d="M4.75-5.953h7.5A.75.75,0,0,1,13-5.2v.5a.75.75,0,0,1-.75.75H4.75A.749.749,0,0,1,4-4.7v-.5a.75.75,0,0,1,.219-.532.75.75,0,0,1,.531-.221Z" transform="translate(-4 5.953)"/></clipPath></defs><path class="b" d="M0,0H24V-24H0Z" transform="translate(0 24)"/><g transform="translate(0 24.5)"><g class="c" transform="translate(4.252 -19.754)"><path class="a" d="M-.748-24.5H15V-7.25H-.748Z" transform="translate(-4.252 19.5)"/></g><g class="d" transform="translate(0 -23.5)"><path class="a" d="M-5-28.5H29V3.065H-5Z" transform="translate(0 23.717)"/></g><g class="e" transform="translate(12 -18.217)"><path class="a" d="M7-22.953H20.5v12H7Z" transform="translate(-12 17.953)"/></g><g class="f" transform="translate(12 -14.408)"><path class="a" d="M7-18.953H20.5v12H7Z" transform="translate(-12 13.953)"/></g><g class="g" transform="translate(4 -10.598)"><path class="a" d="M-1-14.953H20.5v12H-1Z" transform="translate(-4 9.953)"/></g><g class="h" transform="translate(4 -6.789)"><path class="a" d="M-1-10.953H18v12H-1Z" transform="translate(-4 5.953)"/></g></g></svg>