<svg xmlns="http://www.w3.org/2000/svg" xmlns:xlink="http://www.w3.org/1999/xlink" width="24" height="24" viewBox="0 0 24 24"><defs><style>.a{fill:#888;}.b{fill:none;}.c{clip-path:url(#a);}.d{clip-path:url(#b);}.e{clip-path:url(#c);}.f{clip-path:url(#d);}</style><clipPath id="a"><path class="a" d="M3-1.25A2.972,2.972,0,0,1,.005-4.011L0-4.183V-21.05a2.221,2.221,0,0,1,2.1-2.195l.154-.005h15A2.23,2.23,0,0,1,19.495-21.2l.005.151V-4.183A1.484,1.484,0,0,0,21-2.717a1.488,1.488,0,0,0,1.493-1.325l.007-.141V-18.117a.742.742,0,0,1,.75-.733.745.745,0,0,1,.743.634l.007.1V-4.183a2.963,2.963,0,0,1-2.824,2.928L21-1.25ZM17.25-21.783h-15a.745.745,0,0,0-.743.634l-.007.1V-4.183a1.48,1.48,0,0,0,1.356,1.46L3-2.717H18.4l-.02-.033a2.868,2.868,0,0,1-.377-1.261L18-4.183V-21.05a.739.739,0,0,0-.648-.727Z" transform="translate(0 23.25)"/></clipPath><clipPath id="b"><path class="a" d="M15-9.75a.75.75,0,0,1,.75.75.75.75,0,0,1-.648.743L15-8.25H4.5A.75.75,0,0,1,3.75-9,.75.75,0,0,1,4.4-9.743l.1-.007Z" transform="translate(-3.75 9.75)"/></clipPath><clipPath id="c"><path class="a" d="M10.5-6.75a.75.75,0,0,1,.75.75.75.75,0,0,1-.648.743l-.1.007h-6A.75.75,0,0,1,3.75-6,.75.75,0,0,1,4.4-6.743l.1-.007Z" transform="translate(-3.75 6.75)"/></clipPath><clipPath id="d"><path class="a" d="M14.25-19.5h-9A1.5,1.5,0,0,0,3.75-18v4.5A1.5,1.5,0,0,0,5.25-12h9a1.5,1.5,0,0,0,1.5-1.5V-18A1.5,1.5,0,0,0,14.25-19.5Zm-9,1.5h9v4.5h-9Z" transform="translate(-3.75 19.5)"/></clipPath></defs><path class="b" d="M0,0H24V-24H0Z" transform="translate(0 24)"/><g transform="translate(0 0.25)"><g class="c" transform="translate(0 0.75)"><path class="a" d="M-5-28.25H29V3.528H-5Z" transform="translate(0 23.361)"/></g><g class="d" transform="translate(3.75 13.929)"><path class="a" d="M-1.25-14.75h22v11.5h-22Z" transform="translate(-3.75 9.75)"/></g><g class="e" transform="translate(3.75 16.857)"><path class="a" d="M-1.25-11.75h17.5V-.25H-1.25Z" transform="translate(-3.75 6.75)"/></g><g class="f" transform="translate(3.75 4.375)"><path class="a" d="M-1.25-24.5h22V-7h-22Z" transform="translate(-3.75 19.5)"/></g></g></svg>