<svg xmlns="http://www.w3.org/2000/svg" xmlns:xlink="http://www.w3.org/1999/xlink" width="23.999" height="23.997" viewBox="0 0 23.999 23.997"><defs><style>.a{fill:#888;}.b{clip-path:url(#a);}.c{clip-path:url(#b);}.d{clip-path:url(#c);}</style><clipPath id="a"><path class="a" d="M10.948-23.744a2.293,2.293,0,0,1,2.1,0h0l10.225,5.286A1.382,1.382,0,0,1,24-17.247a1.366,1.366,0,0,1-.738,1.213h0L13.052-10.759a2.293,2.293,0,0,1-2.1,0h0L.738-16.04A1.366,1.366,0,0,1,0-17.253a1.366,1.366,0,0,1,.738-1.213h0Zm1.416,1.333a.793.793,0,0,0-.727,0h0L1.658-17.253l9.978,5.162a.793.793,0,0,0,.627.043h0l.1-.043,9.984-5.159Z"/></clipPath><clipPath id="b"><path class="a" d="M18.234-14.97a.75.75,0,0,1,.917-.362l.094.041,4.017,2.078A1.366,1.366,0,0,1,24-12a1.366,1.366,0,0,1-.619,1.143l-.119.07L13.052-5.506a2.293,2.293,0,0,1-1.937.078l-.168-.078L.738-10.787A1.366,1.366,0,0,1,0-12a1.366,1.366,0,0,1,.619-1.143l.119-.07,4.017-2.078a.75.75,0,0,1,1.011.322.75.75,0,0,1-.234.958l-.087.053L1.657-12l9.979,5.163a.793.793,0,0,0,.627.043l.1-.043L22.342-12l-3.787-1.959a.75.75,0,0,1-.362-.917Z"/></clipPath><clipPath id="c"><path class="a" d="M18.234-9.72a.75.75,0,0,1,.917-.362l.094.041L23.262-7.96A1.366,1.366,0,0,1,24-6.747,1.366,1.366,0,0,1,23.381-5.6l-.119.07L13.052-.259a2.293,2.293,0,0,1-1.937.078l-.168-.078L.738-5.54A1.366,1.366,0,0,1,0-6.753,1.366,1.366,0,0,1,.619-7.9l.12-.07,4.017-2.075a.75.75,0,0,1,1.011.322.75.75,0,0,1-.235.958l-.087.053L1.657-6.754l9.979,5.163a.793.793,0,0,0,.627.043l.1-.043,9.979-5.157L18.555-8.709a.75.75,0,0,1-.362-.917Z"/></clipPath></defs><g class="b" transform="translate(0 24)"><path class="a" d="M-5-29H29V-5.5H-5Z"/></g><g class="c" transform="translate(0 24)"><path class="a" d="M-5-20.375H29V-.25H-5Z"/></g><g class="d" transform="translate(0 24)"><path class="a" d="M-5-15.125H29V5H-5Z"/></g></svg>