<svg xmlns="http://www.w3.org/2000/svg" xmlns:xlink="http://www.w3.org/1999/xlink" width="24" height="24" viewBox="0 0 24 24"><defs><style>.a{fill:#2c6178;}.b{clip-path:url(#a);}.c{clip-path:url(#b);}.d{clip-path:url(#c);}</style><clipPath id="a"><path class="a" d="M1.174-16.6l9.857,4.2a3.134,3.134,0,0,0,2.444,0l9.857-4.2a1.5,1.5,0,0,0,.921-1.375,1.5,1.5,0,0,0-.921-1.375l-9.853-4.2a3.135,3.135,0,0,0-2.444,0L1.176-19.354a1.5,1.5,0,0,0-.922,1.376A1.5,1.5,0,0,0,1.176-16.6Z" transform="translate(-0.254 23.796)"/></clipPath><clipPath id="b"><path class="a" d="M23.331-13.352l-1.271-.542a1.048,1.048,0,0,0-.817,0l-8.99,3.827-8.99-3.827a1.048,1.048,0,0,0-.817,0l-1.271.541a1.5,1.5,0,0,0-.922,1.376A1.5,1.5,0,0,0,1.175-10.6l9.852,4.194a3.134,3.134,0,0,0,2.444,0L23.328-10.6a1.5,1.5,0,0,0,.922-1.376,1.5,1.5,0,0,0-.922-1.376Z" transform="translate(-0.253 13.977)"/></clipPath><clipPath id="c"><path class="a" d="M23.331-7.4,22.06-7.939a1.042,1.042,0,0,0-.817,0l-8.99,3.827L3.264-7.939a1.042,1.042,0,0,0-.817,0L1.175-7.4A1.5,1.5,0,0,0,.253-6.023a1.5,1.5,0,0,0,.922,1.376L11.027-.452a3.134,3.134,0,0,0,2.444,0l9.853-4.193a1.5,1.5,0,0,0,.923-1.377A1.5,1.5,0,0,0,23.324-7.4Z" transform="translate(-0.253 8.022)"/></clipPath></defs><g class="b" transform="translate(0.001)"><path class="a" d="M-4.746-28.8H29.469V-7.152H-4.746Z" transform="translate(-0.362 23.796)"/></g><g class="c" transform="translate(0 10.073)"><path class="a" d="M-4.747-18.977H29.466V-1.159H-4.747Z" transform="translate(-0.361 13.977)"/></g><g class="d" transform="translate(0 16.182)"><path class="a" d="M-4.747-13.022h34.21V4.8H-4.747Z" transform="translate(-0.361 8.022)"/></g></svg>