<svg xmlns="http://www.w3.org/2000/svg" xmlns:xlink="http://www.w3.org/1999/xlink" width="24" height="24" viewBox="0 0 24 24"><defs><style>.a{fill:#888;}.b{clip-path:url(#a);}.c{clip-path:url(#b);}.d{clip-path:url(#c);}.e{clip-path:url(#d);}.f{clip-path:url(#e);}.g{clip-path:url(#f);}</style><clipPath id="a"><path class="a" d="M6.75-24a.75.75,0,0,1,.75.75.75.75,0,0,1-.648.743l-.1.007H2.25a.75.75,0,0,0-.743.648l-.007.1v4.5a.75.75,0,0,1-.75.75.75.75,0,0,1-.743-.648L0-17.249v-4.5a2.25,2.25,0,0,1,2.1-2.245L2.25-24Z"/></clipPath><clipPath id="b"><path class="a" d="M21.75-24a2.25,2.25,0,0,1,2.245,2.1L24-21.75v4.5a.75.75,0,0,1-.75.75.75.75,0,0,1-.743-.648l-.007-.1v-4.5a.75.75,0,0,0-.648-.743l-.1-.007h-4.5a.75.75,0,0,1-.75-.75.75.75,0,0,1,.648-.743l.1-.007Z"/></clipPath><clipPath id="c"><path class="a" d="M.75-7.5a.75.75,0,0,1,.743.648l.007.1v4.5a.75.75,0,0,0,.648.743l.1.007h4.5a.75.75,0,0,1,.75.75.75.75,0,0,1-.648.743L6.75,0H2.25A2.25,2.25,0,0,1,.005-2.1L0-2.25v-4.5A.75.75,0,0,1,.75-7.5Z"/></clipPath><clipPath id="d"><path class="a" d="M23.25-7.5a.75.75,0,0,1,.743.648l.007.1v4.5A2.25,2.25,0,0,1,21.9-.005L21.75,0h-4.5a.75.75,0,0,1-.75-.75.75.75,0,0,1,.648-.743l.1-.007h4.5a.75.75,0,0,0,.743-.648l.007-.1v-4.5A.75.75,0,0,1,23.25-7.5Z"/></clipPath><clipPath id="e"><path class="a" d="M12-20.25a4.875,4.875,0,0,0-4.875,4.875A4.875,4.875,0,0,0,12-10.5a4.875,4.875,0,0,0,4.875-4.875A4.875,4.875,0,0,0,12-20.25Zm0,1.5a3.375,3.375,0,0,1,3.375,3.375A3.375,3.375,0,0,1,12-12a3.375,3.375,0,0,1-3.375-3.375A3.375,3.375,0,0,1,12-18.75Z"/></clipPath><clipPath id="f"><path class="a" d="M12-10.5a7.462,7.462,0,0,1,7.045,5,.75.75,0,0,1-.461.955A.75.75,0,0,1,17.629-5,5.962,5.962,0,0,0,12-9,5.962,5.962,0,0,0,6.371-5a.75.75,0,0,1-.955.461A.75.75,0,0,1,4.955-5.5,7.462,7.462,0,0,1,12-10.5Z"/></clipPath></defs><g class="b" transform="translate(0 24)"><path class="a" d="M-5-29H12.5v17.5H-5Z"/></g><g class="c" transform="translate(0 24)"><path class="a" d="M11.5-29H29v17.5H11.5Z"/></g><g class="d" transform="translate(0 24)"><path class="a" d="M-5-12.5H12.5V5H-5Z"/></g><g class="e" transform="translate(0 24)"><path class="a" d="M11.5-12.5H29V5H11.5Z"/></g><g class="f" transform="translate(0 24)"><path class="a" d="M2.125-25.25h19.75V-5.5H2.125Z"/></g><g class="g" transform="translate(0 24)"><path class="a" d="M-.087-15.5H24.087V.5H-.087Z"/></g></svg>